<?xml version="1.0" encoding="utf-8"?>
<!-- Generator: Adobe Illustrator 24.3.0, SVG Export Plug-In . SVG Version: 6.00 Build 0)  -->
<svg version="1.1" id="Layer_1" xmlns="http://www.w3.org/2000/svg" xmlns:xlink="http://www.w3.org/1999/xlink" x="0px" y="0px"
	 viewBox="0 0 80 80" style="enable-background:new 0 0 80 80;" xml:space="preserve">
<style type="text/css">
	.st0{fill:#BFDBF5;}
	.st1{fill:#71ABD9;}
	.st2{fill:#214A80;}
	.st3{fill:#D5E6F5;}
	.st4{fill:#FFFFFF;}
	.st5{fill:#2E62F9;}
	.st6{fill:#82B2FC;}
	.st7{opacity:0.2;fill:#7BB8FF;}
	.st8{fill:#C2DBFF;}
	.st9{fill:#D0E3FF;}
</style>
<g>
	<path class="st0" d="M75.82,61.71H4.18c-1.9,0-3.44-1.54-3.44-3.44v-4.49h78.52l0,4.49C79.26,60.17,77.72,61.71,75.82,61.71z"/>
	<rect x="32.1" y="61.71" class="st1" width="16.11" height="6.94"/>
	<path class="st2" d="M79.26,53.91H0.74V11.03c0-1.66,1.35-3,3-3h72.51c1.66,0,3,1.35,3,3V53.91z"/>
	<rect x="3.93" y="11.32" class="st3" width="72.63" height="39.75"/>
	<path class="st4" d="M41.77,57.39c0,0.98-0.79,1.77-1.77,1.77c-0.98,0-1.77-0.79-1.77-1.77c0-0.98,0.79-1.77,1.77-1.77
		C40.98,55.62,41.77,56.41,41.77,57.39z"/>
	<path class="st0" d="M55.11,70.98H24.91l0,0c0-1.28,1.04-2.32,2.32-2.32h25.55C54.07,68.65,55.11,69.69,55.11,70.98L55.11,70.98z"
		/>
	<g>
		<rect x="9.33" y="17.01" class="st4" width="19.24" height="31.03"/>
		<rect x="57.11" y="17.18" class="st4" width="13.85" height="13.85"/>
		<g>
			<circle class="st5" cx="64.03" cy="24.29" r="4.53"/>
			<path class="st6" d="M64.03,24.29l-4.01-2.1c0.54-1.04,1.47-1.82,2.58-2.19c2.36-0.78,4.94,0.51,5.72,2.87
				c0.78,2.36-0.51,4.94-2.87,5.72c-2.36,0.78-4.94-0.51-5.72-2.87L64.03,24.29z"/>
		</g>
		<rect x="30.57" y="17.01" class="st4" width="24.49" height="33.41"/>
		<rect x="32.19" y="18.94" class="st2" width="21.23" height="1.16"/>
		<rect x="32.19" y="21.51" class="st2" width="5.79" height="1.16"/>
		<rect x="32.19" y="23.95" class="st2" width="5.79" height="1.16"/>
		<rect x="32.19" y="26.46" class="st6" width="5.79" height="1.16"/>
		<rect x="39.01" y="21.51" class="st6" width="13" height="1.16"/>
		<rect x="39.01" y="23.95" class="st2" width="13" height="1.16"/>
		<g>
			<g>
				<rect x="33.04" y="37.44" class="st7" width="19.53" height="1"/>
				<rect x="33.04" y="39.71" class="st8" width="19.53" height="1"/>
				<rect x="33.04" y="42.29" class="st8" width="19.53" height="1"/>
				<rect x="33.04" y="44.51" class="st8" width="19.53" height="1"/>
				<rect x="33.04" y="37.44" class="st2" width="19.53" height="1"/>
				<rect x="33.04" y="39.71" class="st6" width="7.01" height="1"/>
				<rect x="33.04" y="42.29" class="st2" width="10.59" height="1"/>
				<rect x="33.04" y="44.51" class="st6" width="3.27" height="1"/>
			</g>
		</g>
		<g>
			<g>
				<g>
					<path class="st9" d="M34.44,34.76c-0.61,0-1.18-0.24-1.62-0.67c-0.43-0.43-0.67-1.01-0.67-1.62c0-0.61,0.24-1.18,0.67-1.62
						c0.43-0.43,1.01-0.67,1.62-0.67c0.59,0,1.15,0.22,1.58,0.63c0.46,0.44,0.71,1.02,0.71,1.66c0,0.61-0.24,1.18-0.67,1.62
						C35.62,34.52,35.05,34.76,34.44,34.76z M34.44,30.62c-0.49,0-0.96,0.19-1.31,0.54c-0.35,0.35-0.54,0.81-0.54,1.31
						c0,0.49,0.19,0.96,0.54,1.31c0.35,0.35,0.81,0.54,1.31,0.54c0.49,0,0.96-0.19,1.31-0.54c0.35-0.35,0.54-0.81,0.54-1.31
						c0-0.51-0.2-0.99-0.58-1.34C35.37,30.81,34.91,30.62,34.44,30.62z"/>
				</g>
				<g>
					<path class="st6" d="M36.72,32.48h-0.44c0-0.51-0.2-0.99-0.58-1.34c-0.35-0.33-0.8-0.51-1.28-0.51v-0.44
						c0.59,0,1.15,0.22,1.58,0.63C36.47,31.25,36.72,31.84,36.72,32.48z"/>
				</g>
			</g>
			<g>
				<g>
					<path class="st9" d="M40.03,34.76c-0.61,0-1.18-0.24-1.62-0.67c-0.43-0.43-0.67-1.01-0.67-1.62c0-0.61,0.24-1.18,0.67-1.62
						c0.43-0.43,1.01-0.67,1.62-0.67c0.59,0,1.15,0.22,1.58,0.63c0.46,0.44,0.71,1.02,0.71,1.66c0,0.61-0.24,1.18-0.67,1.62
						C41.22,34.52,40.64,34.76,40.03,34.76z M40.03,30.62c-0.49,0-0.96,0.19-1.31,0.54c-0.35,0.35-0.54,0.81-0.54,1.31
						c0,0.49,0.19,0.96,0.54,1.31s0.81,0.54,1.31,0.54c0.49,0,0.96-0.19,1.31-0.54c0.35-0.35,0.54-0.81,0.54-1.31
						c0-0.51-0.2-0.99-0.58-1.34C40.96,30.81,40.51,30.62,40.03,30.62z"/>
				</g>
				<g>
					<path class="st6" d="M40.03,34.76v-0.44c0.49,0,0.96-0.19,1.31-0.54c0.35-0.35,0.54-0.81,0.54-1.31c0-0.51-0.2-0.99-0.58-1.34
						c-0.35-0.33-0.8-0.51-1.28-0.51v-0.44c0.59,0,1.15,0.22,1.58,0.63c0.46,0.44,0.71,1.02,0.71,1.66c0,0.61-0.24,1.18-0.67,1.62
						C41.22,34.52,40.64,34.76,40.03,34.76z"/>
				</g>
			</g>
			<g>
				<g>
					<path class="st9" d="M45.59,34.76c-0.61,0-1.18-0.24-1.62-0.67c-0.43-0.43-0.67-1.01-0.67-1.62c0-0.61,0.24-1.19,0.67-1.62
						c0.43-0.43,1.01-0.67,1.62-0.67c0.59,0,1.15,0.22,1.58,0.63c0.46,0.44,0.71,1.02,0.71,1.66c0,0.61-0.24,1.18-0.67,1.62
						C46.77,34.52,46.2,34.76,45.59,34.76z M45.59,30.62c-0.49,0-0.96,0.19-1.31,0.54c-0.35,0.35-0.54,0.81-0.54,1.31
						c0,0.49,0.19,0.96,0.54,1.31c0.35,0.35,0.81,0.54,1.31,0.54c0.49,0,0.96-0.19,1.31-0.54c0.35-0.35,0.54-0.81,0.54-1.31
						c0-0.51-0.2-0.99-0.58-1.34C46.52,30.81,46.06,30.62,45.59,30.62z"/>
				</g>
				<g>
					<path class="st6" d="M45.59,34.76c-0.61,0-1.18-0.24-1.62-0.67l0.31-0.31c0.35,0.35,0.81,0.54,1.31,0.54
						c0.49,0,0.96-0.19,1.31-0.54c0.35-0.35,0.54-0.81,0.54-1.31c0-0.51-0.2-0.99-0.58-1.34c-0.35-0.33-0.8-0.51-1.28-0.51v-0.44
						c0.59,0,1.15,0.22,1.58,0.63c0.46,0.44,0.71,1.02,0.71,1.66c0,0.61-0.24,1.18-0.67,1.62C46.77,34.52,46.2,34.76,45.59,34.76z"
						/>
				</g>
			</g>
			<g>
				<g>
					<g>
						<path class="st9" d="M51.14,34.76c-0.61,0-1.19-0.24-1.62-0.67c-0.43-0.43-0.67-1.01-0.67-1.62c0-0.61,0.24-1.19,0.67-1.62
							c0.43-0.43,1.01-0.67,1.62-0.67c0.59,0,1.15,0.22,1.58,0.63c0.46,0.44,0.71,1.02,0.71,1.66c0,0.61-0.24,1.18-0.67,1.62
							C52.32,34.52,51.75,34.76,51.14,34.76z M51.14,30.62c-0.49,0-0.96,0.19-1.31,0.54c-0.35,0.35-0.54,0.81-0.54,1.31
							c0,0.49,0.19,0.96,0.54,1.31c0.35,0.35,0.81,0.54,1.31,0.54s0.96-0.19,1.31-0.54c0.35-0.35,0.54-0.81,0.54-1.31
							c0-0.51-0.2-0.99-0.58-1.34C52.07,30.81,51.62,30.62,51.14,30.62z"/>
					</g>
				</g>
				<g>
					<path class="st6" d="M51.14,34.76c-0.61,0-1.19-0.24-1.62-0.67c-0.43-0.43-0.67-1.01-0.67-1.62h0.44
						c0,0.49,0.19,0.96,0.54,1.31c0.35,0.35,0.81,0.54,1.31,0.54s0.96-0.19,1.31-0.54c0.35-0.35,0.54-0.81,0.54-1.31
						c0-0.51-0.2-0.99-0.58-1.34c-0.35-0.33-0.8-0.51-1.28-0.51v-0.44c0.59,0,1.15,0.22,1.58,0.63c0.46,0.44,0.71,1.02,0.71,1.66
						c0,0.61-0.24,1.18-0.67,1.62C52.32,34.52,51.75,34.76,51.14,34.76z"/>
				</g>
			</g>
		</g>
		<rect x="9.33" y="17.01" class="st6" width="19.24" height="2.86"/>
		<rect x="10.49" y="28.87" class="st8" width="17.22" height="1.19"/>
		<rect x="10.49" y="30.8" class="st8" width="17.22" height="1.19"/>
		<rect x="10.49" y="32.73" class="st8" width="17.22" height="1.19"/>
		<rect x="10.49" y="34.66" class="st8" width="17.22" height="1.19"/>
		<rect x="10.49" y="36.59" class="st8" width="17.22" height="1.19"/>
		<rect x="10.49" y="38.52" class="st8" width="17.22" height="1.19"/>
		<rect x="10.49" y="40.45" class="st8" width="17.22" height="1.19"/>
		<rect x="10.49" y="42.38" class="st8" width="17.22" height="1.19"/>
	</g>
	<rect x="3.77" y="11.32" class="st6" width="72.79" height="2.34"/>
	<path class="st4" d="M6.83,12.5c0,0.45-0.36,0.81-0.81,0.81c-0.45,0-0.81-0.36-0.81-0.81c0-0.45,0.36-0.81,0.81-0.81
		C6.47,11.69,6.83,12.05,6.83,12.5z"/>
	<path class="st4" d="M9.12,12.5c0,0.45-0.36,0.81-0.81,0.81c-0.45,0-0.81-0.36-0.81-0.81c0-0.45,0.36-0.81,0.81-0.81
		C8.76,11.69,9.12,12.05,9.12,12.5z"/>
	<circle class="st4" cx="10.6" cy="12.5" r="0.81"/>
</g>
</svg>
