<?xml version="1.0" encoding="utf-8"?>
<!-- Generator: Adobe Illustrator 24.3.0, SVG Export Plug-In . SVG Version: 6.00 Build 0)  -->
<svg version="1.1" id="Layer_1" xmlns="http://www.w3.org/2000/svg" xmlns:xlink="http://www.w3.org/1999/xlink" x="0px" y="0px"
	 viewBox="0 0 80 80" style="enable-background:new 0 0 80 80;" xml:space="preserve">
<style type="text/css">
	.st0{fill:#BFDBF5;}
	.st1{fill:#71ABD9;}
	.st2{fill:#214A80;}
	.st3{fill:#D5E6F5;}
	.st4{fill:#FFFFFF;}
	.st5{fill:#82B2FC;}
	.st6{fill:#F8F1F2;}
	.st7{fill:#FFFFFC;}
	.st8{fill:#FBC69A;}
	.st9{fill:#EAAE81;}
	.st10{fill:#1E75BA;}
	.st11{fill:#1267A0;}
	.st12{fill:#F0F1F1;}
</style>
<g>
	<path class="st0" d="M75.82,62.2H4.18c-1.9,0-3.44-1.54-3.44-3.44v-4.49h78.52v4.49C79.26,60.66,77.72,62.2,75.82,62.2z"/>
	<rect x="32.1" y="62.2" class="st1" width="16.11" height="6.94"/>
	<path class="st2" d="M79.26,54.4H0.74V11.52c0-1.66,1.35-3,3-3h72.51c1.66,0,3,1.35,3,3V54.4H79.26z"/>
	<rect x="3.93" y="11.81" class="st3" width="72.63" height="39.75"/>
	<path class="st4" d="M41.77,57.88c0,0.98-0.79,1.77-1.77,1.77s-1.77-0.79-1.77-1.77s0.79-1.77,1.77-1.77S41.77,56.9,41.77,57.88z"
		/>
	<path class="st0" d="M55.11,71.47h-30.2l0,0c0-1.28,1.04-2.32,2.32-2.32h25.55C54.07,69.14,55.11,70.18,55.11,71.47L55.11,71.47z"
		/>
	<rect x="3.77" y="11.81" class="st5" width="72.79" height="2.34"/>
	<path class="st4" d="M6.83,12.99c0,0.45-0.36,0.81-0.81,0.81s-0.81-0.36-0.81-0.81s0.36-0.81,0.81-0.81S6.83,12.54,6.83,12.99z"/>
	<path class="st4" d="M9.12,12.99c0,0.45-0.36,0.81-0.81,0.81c-0.45,0-0.81-0.36-0.81-0.81s0.36-0.81,0.81-0.81
		C8.76,12.18,9.12,12.54,9.12,12.99z"/>
	<circle class="st4" cx="10.6" cy="12.99" r="0.81"/>
	<g>
		<g>
			<path class="st5" d="M33.5,32.87c0-3.93,3.2-7.13,7.12-7.13V20.8c-6.66,0-12.07,5.41-12.07,12.07c0,3.27,1.31,6.24,3.43,8.41
				l3.56-3.44C34.28,36.56,33.5,34.8,33.5,32.87z"/>
		</g>
		<g>
			<path class="st2" d="M47.15,30.02c0.38,0.87,0.6,1.83,0.6,2.85c0,3.93-3.2,7.12-7.12,7.12c-1.99,0-3.79-0.82-5.09-2.15
				l-3.56,3.44c2.19,2.25,5.25,3.66,8.64,3.66c6.67,0,12.07-5.4,12.07-12.07c0-1.65-0.33-3.22-0.93-4.66L47.15,30.02z"/>
		</g>
		<g>
			<path class="st4" d="M47.15,30.02l4.61-1.81c-1.82-4.35-6.12-7.41-11.14-7.41v4.95C43.54,25.74,46.05,27.51,47.15,30.02z"/>
		</g>
	</g>
	<g>
		<polygon class="st6" points="37,24.99 33.23,20.09 23.07,20.09 23.07,19.27 33.64,19.27 37.65,24.49 		"/>
	</g>
	<g>
		<polygon class="st6" points="45.1,24.98 44.43,24.51 48.11,19.27 58.57,19.27 58.57,20.09 48.54,20.09 		"/>
	</g>
	<g>
		<polygon class="st6" points="58.57,46.02 48.43,46.02 43.95,40.89 44.57,40.35 48.8,45.2 58.57,45.2 		"/>
	</g>
	<g>
		<rect x="23.07" y="16.9" class="st7" width="9.54" height="1.41"/>
	</g>
	<g>
		<rect x="13.02" y="34.74" class="st7" width="9.54" height="1.41"/>
	</g>
	<g>
		<rect x="13.02" y="37.35" class="st7" width="7.11" height="1.41"/>
	</g>
	<g>
		<rect x="13.02" y="39.95" class="st7" width="9.54" height="1.41"/>
	</g>
	<g>
		<rect x="58.57" y="34.76" class="st7" width="9.54" height="3.97"/>
	</g>
	<g>
		<rect x="58.57" y="37.35" class="st7" width="9.54" height="1.41"/>
	</g>
	<g>
		<rect x="58.57" y="39.95" class="st7" width="9.54" height="1.41"/>
	</g>
	<g>
		<rect x="58.57" y="24.1" class="st7" width="9.54" height="1.41"/>
	</g>
	<g>
		<rect x="58.57" y="26.7" class="st7" width="9.54" height="1.41"/>
	</g>
	<g>
		<rect x="58.57" y="29.31" class="st7" width="7.11" height="1.41"/>
	</g>
	<g>
		<rect x="13.02" y="24.1" class="st7" width="9.54" height="8.48"/>
	</g>
	<g>
		<rect x="49.03" y="17.02" class="st7" width="9.54" height="1.41"/>
	</g>
	<g>
		<rect x="49.03" y="46.96" class="st7" width="9.54" height="1.41"/>
	</g>
	<g>
		<polygon class="st6" points="33.18,46.02 23.04,46.02 23.04,45.2 32.81,45.2 37.05,40.35 37.66,40.89 		"/>
	</g>
	<g>
		<rect x="23.04" y="46.96" class="st7" width="9.54" height="1.41"/>
	</g>
</g>
<g>
	<g>
		<g>
			<path class="st8" d="M24.05,55.91l21.67,0.02c1.64,0,4.2-0.4,4.2-3.42c0-2.41-3.05-2.81-4.47-2.88L24.92,49.6
				C24.63,51.71,24.23,53.79,24.05,55.91z"/>
			<path class="st8" d="M21.34,59.19c-0.23,3.42,3.4,3.77,4.81,3.84l20.66-0.19c1.62-0.01,4.38-0.42,4.58-3.39
				c0.23-3.42-3.4-3.77-4.82-3.83L25.65,55.8C24.01,55.86,21.52,56.37,21.34,59.19z"/>
			<path class="st8" d="M19.76,65.58c-0.23,3.42,3.4,3.77,4.81,3.84l20.66-0.19c1.62-0.01,4.38-0.42,4.57-3.39
				c0.23-3.42-3.4-3.77-4.82-3.84L24.07,62.2C22.43,62.25,19.94,62.77,19.76,65.58z"/>
			<path class="st8" d="M22.12,71.45c-0.23,3.42,3.4,3.77,4.81,3.84l15.93-0.19c1.62-0.01,4.38-0.42,4.57-3.39
				c0.23-3.42-3.4-3.77-4.82-3.84l-16.19,0.19C24.79,68.12,22.31,68.63,22.12,71.45z"/>
			<path class="st8" d="M7.21,53.45l9.22-0.07c0,0,2.1-2.06,4.02-3.85c0.76-0.7,3.42-3.74,5.32-6.81c2.62-4.24,2.54-9.19,3.06-9.19
				c3.06-0.04,5.68,3.72,4.09,10.08c-0.92,3.71-2.17,8.31-2.17,8.31l-0.97,23.3c0,0-5.61,0.07-8.31,0.06c-2.7,0-5.26-3.72-5.26-3.72
				l-9.62,0.16C6.8,65.63,7.2,59.54,7.21,53.45z"/>
		</g>
	</g>
	<path class="st9" d="M48.22,55.82c0,0-4.64-0.95-10.02-0.09C42.55,56.16,48.22,55.82,48.22,55.82z"/>
	<path class="st9" d="M48.17,62.77c0,0-4.64-0.95-10.02-0.09C42.49,63.12,48.17,62.77,48.17,62.77z"/>
	<path class="st9" d="M46.59,69.19c0,0-4.64-0.95-10.02-0.09C40.91,69.54,46.59,69.19,46.59,69.19z"/>
	<g>
		<path class="st10" d="M0.36,75.21c-0.32,0-0.57-0.26-0.57-0.58l0.1-23.55c0-0.32,0.26-0.57,0.58-0.57l12.52-0.01
			c0.32,0,0.57,0.26,0.57,0.58l-0.1,23.55c0,0.32-0.26,0.57-0.58,0.57L0.36,75.21z"/>
		<path class="st11" d="M13.45,74.63l0.05-11.94l-13.67,0.12l-0.05,11.82c0,0.32,0.25,0.58,0.57,0.58l12.52-0.01
			C13.19,75.21,13.45,74.95,13.45,74.63z"/>
	</g>
	<path class="st12" d="M8.86,71.76c0,0.58,0.47,1.06,1.06,1.06c0.58,0,1.06-0.47,1.06-1.06c0-0.58-0.47-1.06-1.06-1.06
		C9.33,70.71,8.86,71.18,8.86,71.76z"/>
</g>
</svg>
