<?xml version="1.0" encoding="iso-8859-1"?>
<!-- Generator: Adobe Illustrator 19.0.0, SVG Export Plug-In . SVG Version: 6.00 Build 0)  -->
<svg version="1.1" id="Layer_1" xmlns="http://www.w3.org/2000/svg" xmlns:xlink="http://www.w3.org/1999/xlink" x="0px" y="0px"
	 viewBox="0 0 512 512" style="enable-background:new 0 0 512 512;" xml:space="preserve">
<path style="fill:#F07B52;" d="M475.469,503.172H26.684V35.31h458.834v457.814C485.517,498.674,481.018,503.172,475.469,503.172z"/>
<rect x="26.681" y="35.31" style="fill:#E5563C;" width="35.11" height="467.862"/>
<path style="fill:#CF442B;" d="M501.952,88.276H10.25c-5.549,0-10.048-4.499-10.048-10.048V18.876
	C0.201,13.326,4.7,8.828,10.25,8.828h491.702c5.549,0,10.048,4.499,10.048,10.048v59.351C512,83.777,507.501,88.276,501.952,88.276z
	"/>
<path style="fill:#B83C26;" d="M35.31,88.276H10.25c-5.549,0-10.048-4.499-10.048-10.048V18.876C0.201,13.326,4.7,8.828,10.25,8.828
	h25.06V88.276z"/>
<rect x="79.548" y="123.586" style="fill:#D7D8D9;" width="353.103" height="105.931"/>
<path style="fill:#FDDD85;" d="M290.157,304.868c-6.004-7.682-17.1-9.043-24.782-3.039l-89.899,70.257l25.154,25.155l86.487-67.589
	C294.801,323.647,296.161,312.552,290.157,304.868z"/>
<path style="fill:#FDD042;" d="M290.022,304.696c-0.007,0.001-0.006,0.001-0.011,0.001c-1.121,2.782-2.952,5.319-5.484,7.298
	l-47.157,36.853c-3.649,2.851-4.474,8.039-1.889,11.882l4.089,6.08l47.549-37.16C294.858,323.602,296.181,312.385,290.022,304.696z"
	/>
<path style="fill:#FDDD85;" d="M379.586,397.241h-26.483c9.751,0,17.655-7.905,17.655-17.655s-7.904-17.655-17.655-17.655h-220.69
	v141.241h220.69c9.751,0,17.655-7.905,17.655-17.655s-7.904-17.655-17.655-17.655h8.828c9.751,0,17.655-7.905,17.655-17.655
	c0-9.75-7.904-17.655-17.655-17.655h17.655c9.751,0,17.655-7.905,17.655-17.655S389.337,397.241,379.586,397.241z"/>
<g>
	<path style="fill:#FDD042;" d="M353.103,485.517h-70.621c-4.875,0-8.828,3.953-8.828,8.828v8.828h78.958
		c9.291,0,17.356-6.977,18.089-16.239c0.297-3.753-0.601-7.266-2.325-10.243C365.323,481.962,359.635,485.517,353.103,485.517z"/>
	<path style="fill:#FDD042;" d="M361.931,450.207h-79.448c-4.875,0-8.828,3.953-8.828,8.828v8.828h87.786
		c9.291,0,17.356-6.977,18.089-16.239c0.297-3.753-0.601-7.266-2.325-10.243C374.151,446.652,368.462,450.207,361.931,450.207z"/>
	<path style="fill:#FDD042;" d="M379.586,414.897h-97.103c-4.875,0-8.828,3.953-8.828,8.828v8.828h105.441
		c9.291,0,17.356-6.977,18.089-16.239c0.297-3.753-0.601-7.266-2.325-10.243C391.806,411.341,386.118,414.897,379.586,414.897z"/>
	<path style="fill:#FDD042;" d="M353.103,379.586h-70.621c-4.875,0-8.828,3.953-8.828,8.828v8.828h78.958
		c9.291,0,17.356-6.977,18.089-16.239c0.297-3.753-0.601-7.266-2.325-10.243C365.323,376.031,359.635,379.586,353.103,379.586z"/>
</g>
<path style="fill:#74757B;" d="M6.988,503.172H143.08c3.86,0,6.988-3.129,6.988-6.988V335.081c0-3.86-3.129-6.988-6.988-6.988H6.988
	c-3.86,0-6.988,3.129-6.988,6.988v161.103C0,500.043,3.129,503.172,6.988,503.172z"/>
<path style="fill:#606268;" d="M6.988,503.172h26.36V328.092H6.988c-3.86,0-6.988,3.129-6.988,6.988v161.103
	C0,500.043,3.129,503.172,6.988,503.172z"/>
<g>
	<circle style="fill:#EBEBEC;" cx="100.05" cy="461.484" r="16.673"/>
	<circle style="fill:#EBEBEC;" cx="41.686" cy="461.484" r="16.673"/>
</g>
<g>
	<path style="fill:#74757B;" d="M132.514,202.483c-4.57,0-8.276-3.704-8.276-8.276v-35.31c0-4.572,3.705-8.276,8.276-8.276
		s8.276,3.704,8.276,8.276v35.31C140.79,198.778,137.085,202.483,132.514,202.483z"/>
	<path style="fill:#74757B;" d="M158.897,202.483c-4.57,0-8.276-3.704-8.276-8.276v-35.31c0-4.572,3.705-8.276,8.276-8.276
		s8.276,3.704,8.276,8.276v35.31C167.172,198.778,163.467,202.483,158.897,202.483z"/>
	<path style="fill:#74757B;" d="M220.79,202.483c-4.57,0-8.276-3.704-8.276-8.276v-35.31c0-4.572,3.705-8.276,8.276-8.276
		s8.276,3.704,8.276,8.276v35.31C229.066,198.778,225.361,202.483,220.79,202.483z"/>
	<path style="fill:#74757B;" d="M256.1,202.483c-4.57,0-8.276-3.704-8.276-8.276v-35.31c0-4.572,3.705-8.276,8.276-8.276
		c4.57,0,8.276,3.704,8.276,8.276v35.31C264.376,198.778,260.671,202.483,256.1,202.483z"/>
	<path style="fill:#74757B;" d="M291.411,202.483c-4.57,0-8.276-3.704-8.276-8.276v-35.31c0-4.572,3.705-8.276,8.276-8.276
		c4.57,0,8.276,3.704,8.276,8.276v35.31C299.687,198.778,295.981,202.483,291.411,202.483z"/>
	<path style="fill:#74757B;" d="M379.687,202.483c-4.57,0-8.276-3.704-8.276-8.276v-35.31c0-4.572,3.705-8.276,8.276-8.276
		c4.57,0,8.276,3.704,8.276,8.276v35.31C387.962,198.778,384.257,202.483,379.687,202.483z"/>
	<path style="fill:#74757B;" d="M353.103,202.483c-4.57,0-8.276-3.704-8.276-8.276v-35.31c0-4.572,3.705-8.276,8.276-8.276
		c4.57,0,8.276,3.704,8.276,8.276v35.31C361.379,198.778,357.674,202.483,353.103,202.483z"/>
</g>
<g>
</g>
<g>
</g>
<g>
</g>
<g>
</g>
<g>
</g>
<g>
</g>
<g>
</g>
<g>
</g>
<g>
</g>
<g>
</g>
<g>
</g>
<g>
</g>
<g>
</g>
<g>
</g>
<g>
</g>
</svg>
