<?xml version="1.0" encoding="utf-8"?>
<!-- Generator: Adobe Illustrator 24.3.0, SVG Export Plug-In . SVG Version: 6.00 Build 0)  -->
<svg version="1.1" id="Layer_1" xmlns="http://www.w3.org/2000/svg" xmlns:xlink="http://www.w3.org/1999/xlink" x="0px" y="0px"
	 viewBox="0 0 80 80" style="enable-background:new 0 0 80 80;" xml:space="preserve">
<style type="text/css">
	.st0{fill:#BFDBF5;}
	.st1{fill:#71ABD9;}
	.st2{fill:#214A80;}
	.st3{fill:#D5E6F5;}
	.st4{fill:#FFFFFF;}
	.st5{fill:#82B2FC;}
	.st6{fill:#4482C3;}
	.st7{fill:#FDD7AD;}
	.st8{fill:#2C2F38;}
	.st9{fill:#95A5A5;}
	.st10{fill:#805333;}
	.st11{fill:#603E26;}
	.st12{fill:#BDC3C7;}
	.st13{fill:#F0C419;}
	.st14{fill:#F3D55B;}
	.st15{fill:#E57E25;}
</style>
<g>
	<path class="st0" d="M75.82,64.18H4.18c-1.9,0-3.44-1.54-3.44-3.44v-4.49h78.52v4.49C79.26,62.63,77.72,64.18,75.82,64.18z"/>
	<rect x="32.1" y="64.18" class="st1" width="16.11" height="6.94"/>
	<path class="st2" d="M79.26,56.37H0.74V13.49c0-1.66,1.35-3,3-3h72.51c1.66,0,3,1.35,3,3V56.37z"/>
	<rect x="3.93" y="13.79" class="st3" width="72.63" height="39.75"/>
	<path class="st4" d="M41.77,59.85c0,0.98-0.79,1.77-1.77,1.77c-0.98,0-1.77-0.79-1.77-1.77s0.79-1.77,1.77-1.77
		C40.98,58.08,41.77,58.87,41.77,59.85z"/>
	<path class="st0" d="M55.11,73.44H24.91l0,0c0-1.28,1.04-2.32,2.32-2.32h25.55C54.07,71.12,55.11,72.16,55.11,73.44L55.11,73.44z"
		/>
	<g>
		<path class="st4" d="M36.77,49.77H11.4c-1.91,0-3.45-1.55-3.45-3.45v-24c0-1.91,1.55-3.45,3.45-3.45h25.37
			c1.91,0,3.45,1.55,3.45,3.45v24C40.23,48.23,38.68,49.77,36.77,49.77z"/>
		<g>
			<rect x="14.03" y="24.45" class="st5" width="20.21" height="20.21"/>
			<circle class="st0" cx="28.85" cy="33.2" r="3.11"/>
			<polygon class="st4" points="24.88,38.33 28.49,34.01 34.5,39.44 34.5,44.66 24.88,44.66 			"/>
			<polygon class="st2" points="14.03,38.25 18.11,32 31.08,44.66 14.03,44.66 			"/>
		</g>
	</g>
</g>
<g id="Page-1">
	<g id="_x30_35---Creative-Thinking">
		<path id="Shape" class="st2" d="M70.82,33.47c-0.07,0.14-0.13,0.28-0.19,0.44l-2.3,5.55l-2.66-3.82l1.34-3.23
			c0.06-0.15,0.12-0.29,0.17-0.42L70.82,33.47z"/>
		<path id="Shape_1_" class="st6" d="M63.44,31.76c-0.05,0.98-0.15,1.96-0.3,2.94l-3.42,0.55c-0.07-1.24-0.05-2.48,0.07-3.72v0
			L63.44,31.76z"/>
		<path id="Shape_2_" class="st7" d="M55.14,25.76c0,0,0.43,3.81-1,4.15c-1.43,0.33-2.82-3.25-2.82-3.25l0.09-2.51
			c0.41,0.15,0.45-1.53,0.91-1.64c0.46-0.11,1.32,1.36,1.62,1.05L55.14,25.76z"/>
		<path id="Shape_3_" class="st6" d="M57.72,36.78l-1,3.26l-0.27-0.24l-2.55-2.21l-2.56-10.94c0,0,0.81,1.32,2.24,0.98
			c1.43-0.34,1.57-1.88,1.57-1.88L57.72,36.78z"/>
		<path id="Shape_4_" class="st2" d="M56.44,39.81l-2.55-2.21l-2.56-10.94c0,0,0.81,1.32,2.24,0.98L56.44,39.81z"/>
		<path id="Shape_5_" class="st6" d="M51.85,37.88l-0.04,6.09l-3.87-1.43l-3.91-9.43c-0.05-0.12-0.05-0.26,0-0.38
			c0.05-0.12,0.15-0.22,0.27-0.27l4.08-1.69c0.25-0.1,0.54,0.02,0.64,0.26l0.37,0.91l0.19,0.45l0.19,0.45l0.38,0.91l0.19,0.45
			l0.19,0.46l0.37,0.91l0.19,0.45l0.19,0.45l0.57,1.36L51.85,37.88z"/>
		<path id="Shape_6_" class="st2" d="M49.76,32.85l-2.26,0.94c-0.06,0.02-0.13,0.03-0.19,0.03c-0.23,0-0.43-0.17-0.47-0.39
			c-0.05-0.23,0.08-0.46,0.29-0.55l2.26-0.94l0.19,0.45L49.76,32.85z"/>
		<path id="Shape_7_" class="st2" d="M50.52,34.66l-1.36,0.56c-0.06,0.02-0.12,0.04-0.19,0.03c-0.23,0-0.43-0.17-0.47-0.39
			c-0.05-0.23,0.08-0.46,0.29-0.55l1.36-0.56l0.19,0.45L50.52,34.66z"/>
		<path id="Shape_8_" class="st2" d="M51.26,36.47L49,37.41c-0.06,0.02-0.12,0.03-0.19,0.03c-0.23,0-0.43-0.16-0.48-0.39
			c-0.05-0.23,0.07-0.46,0.29-0.55l2.26-0.94l0.19,0.45L51.26,36.47z"/>
		<path id="Shape_9_" class="st4" d="M72.39,45.93c0,0.91-0.36,1.78-1,2.43c-0.64,0.64-1.52,1-2.43,1H47.4
			c-1.89,0-3.43-1.54-3.43-3.43s1.54-3.43,3.43-3.43c0.33,0,0.66,0.05,0.98,0.14c0.04-1.93,1.15-3.68,2.89-4.52s3.8-0.65,5.34,0.51
			c1.04-2.77,3.92-4.4,6.83-3.87s5.03,3.07,5.03,6.03c0,0.61-0.09,1.22-0.27,1.8c0.25-0.06,0.5-0.08,0.76-0.08
			c0.91,0,1.78,0.36,2.43,1C72.03,44.14,72.39,45.02,72.39,45.93z"/>
		<path id="Shape_10_" class="st8" d="M53.94,23.56c-0.31,0.35-0.71,0.61-1.16,0.74c-0.46,0.08-0.93,0.03-1.37-0.15l0.09-2.59
			c0.01-0.29,0.21-0.53,0.49-0.6c0.05-0.01,0.09-0.01,0.14-0.01c0.24,0,0.46,0.13,0.57,0.34L53.94,23.56z"/>
		<path id="Shape_11_" class="st9" d="M63.44,31.76c-1.22,0.06-2.45-0.02-3.65-0.23c0.07-0.8,0.18-1.59,0.31-2.38
			c1.1,0.07,2.21,0.14,3.35,0.21C63.48,30.16,63.48,30.96,63.44,31.76z"/>
		<path id="Shape_12_" class="st10" d="M60.09,29.15c0,0-1.97-1.79-0.18-3.76c1.49-1.64,2.08-2.76,2.04-3.82
			c0-0.1,0.05-0.19,0.14-0.23c0.09-0.04,0.2-0.02,0.27,0.05c1.21,1.18,3.93,4.48,1.05,7.96"/>
		<path id="Shape_13_" class="st11" d="M62.44,28.14c-0.19,0-0.36-0.1-0.44-0.27c-0.08-0.17-0.07-0.36,0.05-0.51
			c0.43-0.59,0.61-1.32,0.49-2.04c-0.05-0.17,0-0.35,0.12-0.48c0.12-0.13,0.31-0.18,0.48-0.13c0.17,0.05,0.3,0.18,0.35,0.36
			c0.2,1.01-0.04,2.06-0.65,2.89C62.74,28.07,62.59,28.14,62.44,28.14z"/>
		<path id="Shape_14_" class="st12" d="M56.11,46.42c-0.2,0-0.37-0.12-0.45-0.3c-0.16-0.37-0.24-0.77-0.24-1.17
			c0-1.38,0.95-2.57,2.3-2.87s2.72,0.37,3.3,1.62c0.12,0.24,0.01,0.54-0.23,0.65c-0.24,0.12-0.54,0.01-0.65-0.23
			c-0.32-0.69-1.01-1.13-1.77-1.13c-1.08,0-1.96,0.88-1.96,1.96c0,0.27,0.05,0.54,0.16,0.79c0.05,0.12,0.05,0.25,0,0.38
			s-0.14,0.22-0.26,0.27C56.25,46.4,56.18,46.42,56.11,46.42z"/>
		<path id="Shape_15_" class="st12" d="M63.57,45.11c-0.19,0-0.37-0.11-0.45-0.29c-0.24-0.52-0.76-0.85-1.33-0.86
			c-0.33,0-0.65,0.11-0.91,0.32c-0.21,0.17-0.52,0.13-0.69-0.08c-0.17-0.21-0.13-0.52,0.08-0.69c0.43-0.35,0.97-0.53,1.52-0.53
			c0.96,0,1.83,0.56,2.22,1.43c0.07,0.15,0.06,0.33-0.03,0.47C63.89,45.02,63.74,45.11,63.57,45.11z"/>
		<path id="Shape_16_" class="st12" d="M50.83,42.5c-0.27,0-0.49-0.22-0.49-0.49c0-1.8,1.73-2.4,1.81-2.43
			c0.26-0.09,0.54,0.05,0.62,0.31c0.09,0.26-0.05,0.54-0.31,0.62c-0.65,0.22-1.1,0.81-1.14,1.49C51.32,42.28,51.1,42.5,50.83,42.5z"
			/>
		<path id="Shape_17_" class="st12" d="M59.16,39.07c-0.04,0-0.08,0-0.12-0.01c-0.26-0.07-0.42-0.33-0.36-0.59
			c0.33-1.35,1.53-2.31,2.93-2.33c0.27,0,0.49,0.22,0.49,0.49c0,0.27-0.22,0.49-0.49,0.49c-0.94,0.02-1.75,0.67-1.98,1.59
			C59.58,38.91,59.39,39.07,59.16,39.07z"/>
		<path id="Shape_18_" class="st13" d="M72.36,30.79c0.02,0.08-0.01,0.16-0.06,0.22c-0.63,0.73-1.13,1.56-1.48,2.46
			c-0.17,0.13-0.37,0.22-0.58,0.28c-0.54,0.14-1.1,0.09-1.61-0.13c0,0,0,0-0.01,0c-0.52-0.19-0.96-0.57-1.24-1.05
			c-0.1-0.18-0.18-0.37-0.21-0.58c0.38-0.89,0.61-1.84,0.69-2.81c0-0.08,0.05-0.15,0.12-0.2l2.75-1.72l0.71-0.45l0.19,0.82
			L72.36,30.79z"/>
		<path id="Shape_19_" class="st14" d="M71.44,26.82l-1.49,3.62h0l-1.31,3.18c0,0,0,0-0.01,0c-0.52-0.19-0.96-0.57-1.24-1.05
			c-0.1-0.18-0.18-0.37-0.21-0.58c0.38-0.89,0.61-1.84,0.69-2.81c0-0.08,0.05-0.15,0.12-0.2l2.75-1.72L71.44,26.82z"/>
		<path id="Shape_20_" class="st15" d="M71.63,27.63l-1.05,2.54c-0.08,0.18-0.25,0.3-0.45,0.3c-0.06,0-0.12-0.01-0.18-0.04h0
			c-0.18-0.07-0.3-0.25-0.3-0.45c0-0.07,0.01-0.13,0.04-0.19l1.05-2.53l0.71-0.45L71.63,27.63z"/>
	</g>
</g>
</svg>
