<?xml version="1.0" encoding="utf-8"?>
<!-- Generator: Adobe Illustrator 16.0.0, SVG Export Plug-In . SVG Version: 6.00 Build 0)  -->
<!DOCTYPE svg PUBLIC "-//W3C//DTD SVG 1.1//EN" "http://www.w3.org/Graphics/SVG/1.1/DTD/svg11.dtd">
<svg version="1.1" id="Capa_1" xmlns="http://www.w3.org/2000/svg" xmlns:xlink="http://www.w3.org/1999/xlink" x="0px" y="0px"
	 width="399.997px" height="399.997px" viewBox="0 0 399.997 399.997" enable-background="new 0 0 399.997 399.997"
	 xml:space="preserve">
<g>
	<g>
		<g>
			<path fill="#069BF7" d="M366.684,24.971H33.316C14.945,24.971,0,39.917,0,58.288V275.56c0,18.371,14.945,33.317,33.316,33.317
				h107.412l-20.387,44.955c-2.105,4.643-1.709,10.037,1.053,14.32c2.762,4.285,7.51,6.873,12.607,6.873h131.996
				c0.006,0,0.015,0,0.021,0c8.284,0,15-6.715,15-15c0-2.492-0.604-4.848-1.687-6.916l-20.062-44.232H366.68
				c18.371,0,33.316-14.946,33.316-33.317V58.288C400,39.917,385.055,24.971,366.684,24.971z M370,275.561
				c0,1.829-1.488,3.316-3.316,3.316H33.316c-1.828,0-3.316-1.487-3.316-3.316V58.288c0-1.829,1.488-3.317,3.316-3.317h333.366
				c1.828,0,3.316,1.488,3.316,3.317L370,275.561L370,275.561z"/>
			<path fill="#069BF7" d="M246.198,96.434c-1.057-1.056-2.921-0.9-4.166,0.344l-16.273,16.271
				c-1.246,1.247-1.399,3.116-0.348,4.171l23.104,23.104c0.525,0.526,1.261,0.751,2.013,0.688c0.757-0.063,1.53-0.413,2.157-1.038
				l16.271-16.272c1.244-1.245,1.399-3.111,0.342-4.166L246.198,96.434z"/>
			<path fill="#069BF7" d="M146.336,197.582c-0.684-0.684-1.748-0.882-2.791-0.523c-1.042,0.359-1.902,1.226-2.257,2.271
				l-11.118,32.934c-0.353,1.037-0.148,2.089,0.532,2.768c0.512,0.518,1.24,0.76,2.011,0.693c0.248-0.021,0.503-0.073,0.756-0.16
				l32.934-11.12c1.044-0.354,1.912-1.215,2.27-2.256c0.362-1.041,0.162-2.106-0.521-2.792L146.336,197.582z"/>
			<path fill="#069BF7" d="M229.504,182.228c1.451-0.662,2.51-1.965,2.858-3.519c0.351-1.555-0.047-3.185-1.071-4.405
				c-1.92-2.283-3.929-4.604-5.996-6.941l18.078-18.077c0.596-0.597,0.972-1.375,1.033-2.157c0.064-0.779-0.186-1.505-0.689-2.01
				l-23.104-23.101c-1.056-1.058-2.92-0.903-4.165,0.344l-17.631,17.633c-11.824-11.209-23.699-21.209-34.165-28.732
				c-7.369-5.296-20.85-14.199-28.355-14.313c-1.37-0.024-2.695,0.512-3.668,1.479c-0.976,0.966-1.519,2.285-1.508,3.657
				c0.039,5.114,4.528,14.341,12.639,25.977c7.72,11.075,18.326,23.802,30.426,36.563l-23,23.002
				c-1.248,1.247-1.403,3.111-0.346,4.166l23.103,23.101c0.525,0.531,1.254,0.755,2.011,0.691c0.752-0.063,1.533-0.414,2.155-1.035
				l23.446-23.447c2.047,1.811,4.076,3.571,6.078,5.268c0.93,0.787,2.098,1.209,3.297,1.209c0.271,0,0.543-0.022,0.814-0.065
				c1.471-0.239,2.766-1.109,3.539-2.383c1.368-2.248,3.15-4.479,5.301-6.626C223.282,185.806,226.284,183.693,229.504,182.228z"/>
			<path fill="#069BF7" d="M242.292,186.495c-5.938,0-11.605,2.531-16.396,7.32c-5.748,5.748-8.257,11.777-7.257,17.438
				c0.992,5.604,5.445,10.627,12.22,13.771c5.827,2.707,11.138,3.546,15.821,4.287c4.932,0.777,9.585,1.516,13.727,4.324
				c0.856,0.586,1.858,0.883,2.863,0.883c0.706,0,1.415-0.146,2.079-0.443c1.612-0.72,2.739-2.226,2.978-3.978
				c1.774-13.241-0.766-25.134-7.152-33.476C256.245,190.186,249.363,186.495,242.292,186.495z"/>
		</g>
	</g>
</g>
</svg>
