<?xml version="1.0" encoding="utf-8"?>
<!-- Generator: Adobe Illustrator 16.0.0, SVG Export Plug-In . SVG Version: 6.00 Build 0)  -->
<!DOCTYPE svg PUBLIC "-//W3C//DTD SVG 1.1//EN" "http://www.w3.org/Graphics/SVG/1.1/DTD/svg11.dtd">
<svg version="1.1" id="Capa_1" xmlns="http://www.w3.org/2000/svg" xmlns:xlink="http://www.w3.org/1999/xlink" x="0px" y="0px"
	 width="1000px" height="1000px" viewBox="0 0 1000 1000" enable-background="new 0 0 1000 1000" xml:space="preserve">
<g>
	<path fill="#00C9FF" d="M125.576,427.377h672.505c18.656,0,33.784-15.128,33.784-33.784V57.337
		c0-18.657-15.128-33.785-33.784-33.785H125.576c-18.66,0-33.785,15.128-33.785,33.785v336.252
		C91.788,412.246,106.916,427.377,125.576,427.377z M356.411,210.529l90.3,45.151c4.757,2.377,9.936,3.565,15.11,3.565
		c5.176,0,10.351-1.188,15.104-3.565l90.313-45.155l149.276,149.279H207.135L356.411,210.529z M159.357,312.027V112.003
		l133.35,66.673L159.357,312.027z M630.946,178.673l133.35-66.677v200.027L630.946,178.673z M461.825,187.69L268.684,91.118h386.289
		L461.825,187.69z"/>
	<path fill="#00C9FF" d="M976.889,583.168l-120.054-40.023c-29.875-9.956-77.946-17.754-109.431-17.754H400.418
		c-46.573,0-84.462,37.889-84.462,84.458v10.737c0,46.569,37.889,84.458,84.462,84.458h91.933l-18.576,18.579
		c-12.286,12.276-40.128,21.565-57.337,19.111l-291.953-41.707c-38.128-5.451-84.078,7.626-106.855,30.407
		c-14.155,14.158-20.216,33.01-16.613,51.714c4.216,21.889,20.893,40.556,45.751,51.209l299.132,128.201
		c21.03,9.014,49.528,13.886,76.326,13.886c14.649,0,28.791-1.461,40.916-4.491l125.849-31.465
		c29.158-7.293,73.519-22.553,100.993-34.751l33.599-14.916c17.415-7.73,50.788-8.875,68.674-2.36l106.357,38.707
		c17.535,6.391,36.919-2.649,43.296-20.188c6.388-17.532-2.653-36.919-20.188-43.303l-106.354-38.704
		c-34.444-12.542-85.69-10.777-119.202,4.098l-33.6,14.916c-23.653,10.502-64.854,24.681-89.966,30.956l-125.849,31.465
		c-19.942,4.99-55.327,2.148-74.232-5.953L75.677,773.235c10.394-4.198,25.838-7.235,39.252-5.323l291.953,41.711
		c38.135,5.458,87.428-10.983,114.67-38.223l40.418-40.421c27.747-27.751,21.653-52.687,17.747-62.124
		c-3.908-9.438-17.235-31.377-56.475-31.377H400.421c-9.155,0-16.893-7.738-16.893-16.893v-10.737
		c0-9.155,7.737-16.893,16.893-16.893h346.986c24.071,0,65.226,6.677,88.071,14.29l120.047,40.02
		c17.703,5.916,36.835-3.666,42.73-21.367C1004.158,608.202,994.59,589.067,976.889,583.168z"/>
</g>
</svg>
