<?xml version="1.0" encoding="utf-8"?>
<!-- Generator: Adobe Illustrator 24.3.0, SVG Export Plug-In . SVG Version: 6.00 Build 0)  -->
<svg version="1.1" id="Layer_1" xmlns="http://www.w3.org/2000/svg" xmlns:xlink="http://www.w3.org/1999/xlink" x="0px" y="0px"
	 viewBox="0 0 299 182" style="enable-background:new 0 0 299 182;" xml:space="preserve">
<style type="text/css">
	.st0{display:none;}
	.st1{display:inline;fill:#FFE6B1;}
	.st2{fill:#D6E3EB;stroke:#162873;stroke-width:0.9358;stroke-miterlimit:10;}
	.st3{display:inline;fill:#2D4199;}
	.st4{display:inline;fill:#AADEF8;}
	.st5{display:inline;fill:#00B0DD;}
	.st6{display:inline;}
	.st7{fill:#2C295B;}
	.st8{fill:none;stroke:#2D4199;stroke-miterlimit:10;}
	.st9{display:inline;fill:none;stroke:#2D4199;stroke-miterlimit:10;}
	.st10{fill:#91B3FA;}
	.st11{fill:#BDD0FB;}
	.st12{fill:#FFFFFF;}
	.st13{fill:#162873;}
	.st14{fill:#213899;}
	.st15{fill:#E7F4FF;}
	.st16{fill:#7D97F4;}
	.st17{opacity:0.56;}
	.st18{opacity:0.53;fill:#FFFFFF;}
	.st19{opacity:0.35;fill:#FFFFFF;}
	.st20{fill:url(#SVGID_1_);}
	.st21{fill:url(#SVGID_2_);}
	.st22{fill:url(#SVGID_3_);}
	.st23{fill:url(#SVGID_4_);}
	.st24{fill:url(#SVGID_5_);}
	.st25{fill:url(#SVGID_6_);}
	.st26{fill:url(#SVGID_7_);}
	.st27{fill:url(#SVGID_8_);}
	.st28{fill:url(#SVGID_9_);}
	.st29{fill:url(#SVGID_10_);}
	.st30{fill:url(#SVGID_11_);}
	.st31{fill:url(#SVGID_12_);}
	.st32{fill:url(#SVGID_13_);}
	.st33{fill:url(#SVGID_14_);}
	.st34{fill:url(#SVGID_15_);}
	.st35{fill:url(#SVGID_16_);}
	.st36{fill:url(#SVGID_17_);}
	.st37{fill:url(#SVGID_18_);}
	.st38{fill:url(#SVGID_19_);}
	.st39{fill:url(#SVGID_20_);}
	.st40{fill:url(#SVGID_21_);}
	.st41{fill:url(#SVGID_22_);}
	.st42{fill:url(#SVGID_23_);}
	.st43{fill:url(#SVGID_24_);}
	.st44{fill:url(#SVGID_25_);}
	.st45{fill:url(#SVGID_26_);}
	.st46{fill:url(#SVGID_27_);}
	.st47{fill:url(#SVGID_28_);}
	.st48{fill:url(#SVGID_29_);}
	.st49{fill:url(#SVGID_30_);}
	.st50{fill:url(#SVGID_31_);}
	.st51{fill:url(#SVGID_32_);}
	.st52{fill:url(#SVGID_33_);}
	.st53{fill:url(#SVGID_34_);}
	.st54{fill:url(#SVGID_35_);}
	.st55{fill:#2D4199;}
	.st56{fill:#AADEF8;}
	.st57{fill:#00B0DD;}
</style>
<g id="Group_5" transform="translate(0.165544, 11.021762)" class="st0">
	<path id="Path_6" class="st1" d="M61.01,59.74l-0.34,0.16l-0.62,0.3c-0.41,0.2-0.77,0.4-1.15,0.6c-0.74,0.41-1.45,0.83-2.14,1.27
		c-1.36,0.86-2.68,1.79-3.94,2.79c-2.49,1.95-4.8,4.11-6.91,6.47c-2.09,2.33-3.99,4.82-5.68,7.44c-1.67,2.61-3.15,5.33-4.43,8.14
		c-1.26,2.79-2.35,5.65-3.24,8.58c-0.41,1.46-0.87,2.91-1.19,4.39l-0.52,2.2l-0.43,2.21c-0.67,3.61-1.12,7.27-1.35,10.93v-13.86
		c0.64-3.42,1.55-6.79,2.71-10.07c1.98-5.91,4.9-12.75,8.13-20.16c2.66-6.05,4.92-11.38,7.03-15.7c2.1-4.32,4.18-7.5,5.89-9.2
		c-1.69,1.69-4.86,3.87-8.28,7.53c-4.15,4.4-7.52,9.48-9.97,15.01c-2.86,6.55-4.72,13.5-5.51,20.61V59.49
		c0.66-2.09,1.57-4.09,2.71-5.96c1.97-3.39,4.69-7.14,7.43-11.46c1.94-3.13,3.65-6.4,5.11-9.79c0.88-2.2,1.93-4.33,3.13-6.38
		c-0.85,1.27-2.99,2.58-5.44,4.6c-3.02,2.38-5.63,5.23-7.73,8.45c-2.59,4.08-4.36,8.63-5.21,13.38V40.9
		c0.8-5.28,2.5-13.23,2.5-22.44c0-9.86-2.92-17.22-2.92-20.71c0,3.48-2.92,10.85-2.92,20.71c0,9.21,1.7,17.16,2.5,22.44v12.47
		c-0.88-7.79-2.89-15.4-5.98-22.6c-2.64-5.98-6.19-11.52-10.53-16.41c-2.73-2.99-5.68-5.77-8.83-8.32c1.98,1.73,4.16,5.26,6.41,9.95
		c2.27,4.7,4.7,10.53,7.61,17.12c3.49,8.09,6.55,15.56,8.61,22.01c1.2,3.61,2.11,7.3,2.73,11.05v19.25c-0.25-2.39-0.59-4.75-1-7.1
		c-0.93-5.22-2.22-10.38-3.85-15.42c-1.62-5.02-3.53-9.95-5.73-14.74c-1.1-2.41-2.31-4.78-3.59-7.15c-1.35-2.47-2.86-4.85-4.5-7.13
		c1.79,2.49,2.55,5.57,2.13,8.61c-0.17,1.4-0.47,2.78-0.89,4.12c-0.42,1.33-0.91,2.59-1.39,3.76c-0.65,1.27-0.65,2.77-0.02,4.04
		c0.64,1.09,1.5,2.04,2.52,2.8c1.95,1.69,4.02,3.29,2.58,5.63c-1.4,2.32-3.11,4.5-2.98,7.03c0.11,1.56,0.72,3.04,1.73,4.23
		c1.69,2.13,3.61,4.07,5.73,5.78c1.64,1.42,3.12,3,4.44,4.72c1.14,1.5,2.16,3.08,3.08,4.72c0.79,1.46,1.32,2.74,1.7,3.65l0.05,0.11
		v22.01c-0.08-0.49-2.5-14.37-10.75-22.04c-7.75-7.21-14.97-9.5-16.87-10.56C2.53,83.55,13.44,97.02,17,101.66
		c5.5,7.16,11.24,16.12,11.24,26.04v0.01v30.03h0.83V119.8c0.14-0.87,0.37-1.72,0.68-2.54c0.57-1.44,1.34-2.79,2.28-4.02
		c0.93-1.18,1.96-2.27,3.07-3.26c1.12-0.97,2.25-1.82,3.32-2.6c1.29-0.8,2.17-2.12,2.42-3.62c0.13-1.36,0.05-2.72-0.26-4.05
		c-0.12-0.69-0.24-1.37-0.33-2.04c-0.07-0.62-0.07-1.25,0-1.87c0.08-1.21,0.89-2.24,2.04-2.62c2.65-0.99,5.39-1.55,7.09-3.53
		c0.47-0.53,0.85-1.13,1.13-1.79c0.36-0.81,0.62-1.66,0.79-2.54c0.41-2.02,0.62-4.66,0.95-8.45c0.47-4.42,2.04-8.66,4.55-12.33
		c2.13-3.14,4.33-4.88,4.7-5.02L61.01,59.74z"/>
	<path id="Path_7" class="st1" d="M251.12,80.72l0.27,0.12l0.49,0.23c0.32,0.16,0.61,0.32,0.91,0.48c0.58,0.32,1.14,0.65,1.68,0.99
		c1.07,0.68,2.1,1.41,3.1,2.19c1.96,1.53,3.78,3.23,5.43,5.09c1.64,1.83,3.13,3.79,4.46,5.85c1.31,2.05,2.47,4.19,3.48,6.4
		c0.99,2.19,1.84,4.44,2.55,6.74c0.32,1.15,0.68,2.29,0.93,3.45l0.41,1.73l0.33,1.74c0.52,2.84,0.88,5.71,1.06,8.59v-10.89
		c-0.5-2.69-1.22-5.33-2.13-7.91c-1.55-4.65-3.85-10.03-6.39-15.84c-2.09-4.76-3.87-8.94-5.52-12.34c-1.17-2.63-2.72-5.07-4.63-7.23
		c1.32,1.32,3.82,3.04,6.51,5.92c3.26,3.46,5.91,7.45,7.83,11.79c2.25,5.15,3.71,10.61,4.33,16.2V80.52
		c-0.52-1.64-1.23-3.21-2.13-4.68c-1.55-2.66-3.69-5.62-5.84-9.01c-1.52-2.46-2.87-5.03-4.01-7.69c-0.69-1.73-1.52-3.41-2.46-5.01
		c0.67,0.99,2.35,2.02,4.27,3.62c2.37,1.87,4.42,4.11,6.07,6.64c2.04,3.21,3.43,6.78,4.09,10.52v-9c-0.63-4.15-1.97-10.4-1.97-17.63
		c0-7.75,2.29-13.54,2.29-16.27c0,2.74,2.29,8.53,2.29,16.27c0,7.23-1.33,13.49-1.97,17.64v9.8c0.69-6.12,2.27-12.1,4.7-17.76
		c2.07-4.7,4.87-9.06,8.28-12.9c2.15-2.35,4.46-4.54,6.94-6.54c-1.55,1.36-3.26,4.13-5.03,7.82c-1.78,3.69-3.7,8.28-5.98,13.46
		c-2.74,6.36-5.14,12.23-6.76,17.3c-0.94,2.83-1.66,5.74-2.14,8.68v15.13c0.2-1.88,0.46-3.74,0.79-5.58
		c0.73-4.11,1.74-8.16,3.03-12.12c1.27-3.95,2.77-7.81,4.5-11.58c0.86-1.89,1.81-3.76,2.82-5.62c1.06-1.94,2.25-3.81,3.54-5.6
		c-1.41,1.96-2.01,4.38-1.67,6.77c0.13,1.1,0.37,2.18,0.7,3.24c0.33,1.04,0.72,2.03,1.09,2.95c0.51,1,0.51,2.17,0.01,3.17
		c-0.51,0.86-1.18,1.61-1.98,2.2c-1.53,1.33-3.16,2.58-2.03,4.42c1.1,1.82,2.45,3.54,2.34,5.52c-0.09,1.22-0.57,2.39-1.36,3.32
		c-1.33,1.68-2.84,3.2-4.5,4.54c-1.29,1.12-2.46,2.36-3.49,3.71c-0.89,1.18-1.7,2.42-2.42,3.71c-0.62,1.15-1.04,2.16-1.34,2.87
		c-0.01,0.03-0.02,0.06-0.04,0.09v17.3c0.06-0.39,1.97-11.29,8.45-17.33c6.09-5.67,11.77-7.47,13.26-8.3
		c-1.5,0.83-10.08,11.42-12.88,15.06c-4.32,5.62-8.83,12.67-8.83,20.46v0.01v23.6h-0.65v-29.81c-0.11-0.68-0.29-1.35-0.53-2
		c-0.45-1.13-1.05-2.19-1.79-3.16c-0.73-0.92-1.54-1.78-2.42-2.57c-0.88-0.76-1.77-1.43-2.61-2.04c-1.01-0.63-1.71-1.67-1.9-2.85
		c-0.11-1.07-0.04-2.14,0.21-3.19c0.09-0.54,0.19-1.08,0.26-1.6c0.06-0.49,0.06-0.98,0-1.47c-0.06-0.95-0.7-1.76-1.6-2.06
		c-2.08-0.78-4.23-1.22-5.57-2.77c-0.37-0.41-0.67-0.89-0.88-1.4c-0.28-0.64-0.49-1.31-0.62-1.99c-0.32-1.59-0.49-3.67-0.74-6.64
		c-0.37-3.48-1.6-6.81-3.58-9.69c-0.96-1.54-2.22-2.88-3.7-3.94L251.12,80.72z"/>
</g>
<line class="st2" x1="4.43" y1="179.36" x2="294.57" y2="179.36"/>
<g class="st0">
	<path class="st3" d="M35.56,165.45c0,0.32-0.26,0.57-0.57,0.57H12.5c-0.32,0-0.57-0.26-0.57-0.57l-1.15-27.21
		c0-0.32,0.26-0.57,0.57-0.57h24.78c0.32,0,0.57,0.26,0.57,0.57L35.56,165.45z"/>
	<path class="st4" d="M9.14,114.29c0,0-2.34,2.57-7.03-2.74c0,0,6.11-1.21,7.17,2.38L9.14,114.29z"/>
	<path class="st4" d="M9.4,113.92c0,0,3.48,0.04,2.77-7.01c0,0-5.04,3.66-3.13,6.87L9.4,113.92z"/>
	<path class="st5" d="M23.44,97.28c0,0-3.19,1.38-5.27-5.39c0,0,6.06,1.42,5.55,5.13L23.44,97.28z"/>
	<path class="st5" d="M24.03,96.83c0,0,3.15,1.47,5.42-5.25c0,0-6.1,1.25-5.68,4.97L24.03,96.83z"/>
	<path class="st5" d="M23.35,102.99c0,0-3.39,1.47-5.61-5.73c0,0,6.45,1.51,5.9,5.45L23.35,102.99z"/>
	<path class="st5" d="M23.98,102.52c0,0,3.35,1.56,5.76-5.58c0,0-6.48,1.33-6.04,5.29L23.98,102.52z"/>
	<path class="st5" d="M23.24,109.47c0,0-3.75,1.63-6.2-6.34c0,0,7.13,1.67,6.52,6.03L23.24,109.47z"/>
	<path class="st5" d="M23.94,108.95c0,0,3.7,1.73,6.37-6.17c0,0-7.17,1.48-6.68,5.85L23.94,108.95z"/>
	<path class="st5" d="M23.24,116.31c0,0-3.76,1.63-6.22-6.35c0,0,7.14,1.67,6.54,6.04L23.24,116.31z"/>
	<path class="st5" d="M23.94,115.79c0,0,3.71,1.73,6.38-6.19c0,0-7.19,1.48-6.7,5.86L23.94,115.79z"/>
	<path class="st5" d="M22.65,121.41c0,0-2.7,1.17-4.47-4.57c0,0,5.13,1.2,4.7,4.34L22.65,121.41z"/>
	<path class="st5" d="M23.18,121.2c0,0,2.48,1.59,5.14-3.8c0,0-5.26,0.37-5.33,3.54L23.18,121.2z"/>
	<path class="st5" d="M22.84,125.58c0,0,2.04,1.3,4.22-3.12c0,0-4.32,0.3-4.38,2.9L22.84,125.58z"/>
	<path class="st5" d="M22.75,125.58c0,0-2.04,1.3-4.22-3.12c0,0,4.32,0.3,4.38,2.9L22.75,125.58z"/>
	<path class="st4" d="M11.58,119.74c0,0-2.68,2.96-8.08-3.15c0,0,7.02-1.39,8.23,2.74L11.58,119.74z"/>
	<path class="st4" d="M11.87,119.32c0,0,3.99,0.04,3.19-8.06c0,0-5.79,4.2-3.59,7.9L11.87,119.32z"/>
	<path class="st4" d="M13.73,125.6c0,0-3,3.31-9.03-3.52c0,0,7.84-1.55,9.21,3.06L13.73,125.6z"/>
	<path class="st4" d="M14.06,125.13c0,0,4.46,0.05,3.56-9.01c0,0-6.47,4.7-4.02,8.83L14.06,125.13z"/>
	<path class="st4" d="M15.62,132.38c0,0-3.25,3.06-8.72-4.22c0,0,7.94-0.92,8.93,3.78L15.62,132.38z"/>
	<path class="st4" d="M15.99,131.94c0,0,4.45,0.4,4.26-8.7c0,0-6.82,4.17-4.7,8.49L15.99,131.94z"/>
	<g class="st6">
		<path class="st7" d="M36.18,115.57c0,0,2.44,2.47,6.91-3.03c0,0-6.15-0.95-7.06,2.68L36.18,115.57z"/>
		<path class="st7" d="M35.91,115.21c0,0-3.47,0.18-3.06-6.89c0,0,5.19,3.44,3.41,6.74L35.91,115.21z"/>
		<path class="st7" d="M33.98,121.11c0,0,2.81,2.84,7.94-3.48c0,0-7.07-1.09-8.11,3.08L33.98,121.11z"/>
		<path class="st7" d="M33.67,120.7c0,0-3.99,0.21-3.52-7.92c0,0,5.96,3.95,3.92,7.74L33.67,120.7z"/>
		<path class="st7" d="M32.07,127.05c0,0,3.14,3.18,8.87-3.89c0,0-7.9-1.22-9.07,3.45L32.07,127.05z"/>
		<path class="st7" d="M31.72,126.6c0,0-4.46,0.24-3.94-8.85c0,0,6.66,4.42,4.38,8.65L31.72,126.6z"/>
		<path class="st7" d="M30.47,133.91c0,0,3.38,2.92,8.54-4.58c0,0-7.97-0.59-8.77,4.15L30.47,133.91z"/>
		<path class="st7" d="M30.08,133.49c0,0-4.43,0.59-4.62-8.51c0,0,6.99,3.88,5.06,8.28L30.08,133.49z"/>
		<path class="st8" d="M28.21,143.71c0,0,1.25-13.4,9.62-32.71"/>
		<path class="st7" d="M37.42,111.16c0,0-2.27-2.63,3.58-6.64c0,0,0.45,6.21-3.24,6.82L37.42,111.16z"/>
	</g>
	<path class="st9" d="M21.42,142.67c0,0,3.41-39.05,1.97-50.22"/>
	<path class="st5" d="M23.45,92.73c0,0,3.09-1.59-0.84-7.5c0,0-2.74,5.59,0.46,7.54L23.45,92.73z"/>
	<path class="st9" d="M18.29,142.07c0,0-1.81-13.34-10.99-32.28"/>
</g>
<g>
	<g>
		<g>
			<g>
				<path class="st10" d="M79.86,24.78c-0.03,0.01-0.07,0.01-0.1-0.01c-0.08-0.03-0.12-0.13-0.08-0.21
					c0.08-0.19,0.17-0.39,0.27-0.58c0.04-0.08,0.13-0.11,0.21-0.07c0.08,0.04,0.11,0.13,0.07,0.21c-0.09,0.19-0.18,0.38-0.26,0.57
					C79.95,24.74,79.91,24.77,79.86,24.78z"/>
				<path class="st10" d="M110.22,24.44c-0.07,0.02-0.15-0.02-0.18-0.09c-0.18-0.39-0.38-0.77-0.59-1.15
					c-0.04-0.08-0.02-0.17,0.06-0.22c0.08-0.04,0.17-0.02,0.22,0.06c0.21,0.38,0.42,0.77,0.6,1.17c0.04,0.08,0,0.17-0.08,0.21
					C110.24,24.43,110.23,24.43,110.22,24.44z M108.47,21.51c-0.06,0.01-0.13-0.01-0.16-0.06c-0.25-0.34-0.53-0.68-0.81-1
					c-0.06-0.07-0.05-0.17,0.02-0.22c0.07-0.06,0.17-0.05,0.22,0.01c0.29,0.33,0.57,0.67,0.83,1.02c0.05,0.07,0.04,0.17-0.03,0.22
					C108.51,21.49,108.5,21.5,108.47,21.51z M106.17,18.99c-0.05,0.01-0.1,0-0.14-0.04c-0.32-0.29-0.66-0.56-1-0.82
					c-0.07-0.05-0.08-0.15-0.03-0.22c0.05-0.07,0.15-0.08,0.22-0.03c0.35,0.26,0.69,0.54,1.01,0.83c0.07,0.06,0.07,0.16,0.01,0.22
					C106.23,18.97,106.2,18.98,106.17,18.99z M81.16,22.36c-0.04,0.01-0.09,0-0.12-0.02c-0.07-0.05-0.09-0.15-0.05-0.22
					c0.24-0.37,0.49-0.73,0.76-1.07c0.05-0.07,0.15-0.08,0.22-0.03c0.07,0.05,0.08,0.15,0.03,0.22c-0.26,0.34-0.51,0.69-0.75,1.05
					C81.24,22.33,81.2,22.35,81.16,22.36z M103.4,16.99c-0.04,0.01-0.08,0-0.12-0.02c-0.37-0.21-0.75-0.41-1.14-0.6
					c-0.08-0.04-0.11-0.13-0.08-0.21c0.04-0.08,0.13-0.11,0.21-0.08c0.39,0.19,0.79,0.39,1.16,0.61c0.08,0.04,0.1,0.14,0.06,0.22
					C103.48,16.96,103.44,16.99,103.4,16.99z M83.31,19.71c-0.05,0.01-0.11,0-0.15-0.04c-0.06-0.06-0.06-0.16,0-0.22
					c0.31-0.31,0.63-0.61,0.96-0.9c0.07-0.06,0.17-0.05,0.22,0.02c0.06,0.07,0.05,0.17-0.02,0.22c-0.32,0.28-0.64,0.58-0.94,0.88
					C83.36,19.69,83.34,19.7,83.31,19.71z M100.29,15.61c-0.03,0.01-0.06,0.01-0.09,0c-0.41-0.13-0.82-0.25-1.24-0.35
					c-0.08-0.02-0.14-0.11-0.12-0.19c0.02-0.08,0.11-0.14,0.19-0.12c0.43,0.1,0.85,0.22,1.26,0.36c0.08,0.03,0.13,0.12,0.1,0.2
					C100.38,15.56,100.34,15.6,100.29,15.61z M85.94,17.54c-0.06,0.02-0.13-0.01-0.17-0.07c-0.05-0.07-0.03-0.17,0.04-0.22
					c0.36-0.24,0.74-0.47,1.12-0.68c0.08-0.04,0.17-0.01,0.22,0.06c0.04,0.08,0.01,0.17-0.06,0.22c-0.37,0.21-0.74,0.43-1.1,0.67
					C85.98,17.53,85.96,17.54,85.94,17.54z M96.95,14.89c-0.02,0-0.04,0.01-0.05,0c-0.43-0.05-0.86-0.08-1.29-0.09
					c-0.09,0-0.16-0.08-0.15-0.16c0-0.09,0.08-0.16,0.16-0.15c0.44,0.01,0.88,0.05,1.31,0.09c0.09,0.01,0.15,0.09,0.14,0.17
					C97.07,14.82,97.02,14.87,96.95,14.89z M93.54,14.86c-0.01,0-0.01,0-0.02,0c-0.43,0.04-0.86,0.1-1.28,0.17
					c-0.09,0.02-0.17-0.04-0.18-0.13c-0.01-0.09,0.05-0.17,0.13-0.18c0.43-0.07,0.87-0.13,1.3-0.17c0.09-0.01,0.16,0.06,0.17,0.14
					C93.67,14.77,93.62,14.85,93.54,14.86z M88.97,15.96c-0.08,0.02-0.15-0.02-0.18-0.1c-0.03-0.08,0.01-0.17,0.09-0.21
					c0.41-0.16,0.82-0.31,1.24-0.44c0.09-0.02,0.17,0.02,0.2,0.1c0.03,0.08-0.02,0.17-0.1,0.2c-0.41,0.13-0.82,0.27-1.22,0.43
					C88.98,15.96,88.98,15.96,88.97,15.96z"/>
				<path class="st10" d="M111.16,27.02c-0.08,0.02-0.17-0.03-0.19-0.11c-0.05-0.2-0.11-0.4-0.18-0.6c-0.03-0.08,0.02-0.17,0.1-0.2
					c0.08-0.02,0.17,0.02,0.2,0.1c0.06,0.2,0.12,0.41,0.18,0.61C111.3,26.91,111.25,27,111.16,27.02
					C111.17,27.02,111.16,27.02,111.16,27.02z"/>
			</g>
			<g>
				<path class="st10" d="M109.44,39.89c-0.04,0.01-0.08,0-0.12-0.02c-0.08-0.04-0.1-0.14-0.06-0.22c0.11-0.18,0.21-0.36,0.31-0.55
					c0.04-0.08,0.14-0.11,0.21-0.06c0.08,0.04,0.11,0.14,0.06,0.21c-0.1,0.19-0.21,0.37-0.31,0.56
					C109.52,39.85,109.48,39.88,109.44,39.89z"/>
				<path class="st10" d="M99.03,47.6l-0.14,0.03c-0.09,0.02-0.17-0.03-0.19-0.12c-0.02-0.08,0.03-0.17,0.12-0.19c0,0,0,0,0,0
					l0.14-0.03c0.36-0.09,0.73-0.19,1.09-0.3c0.08-0.02,0.17,0.02,0.2,0.1c0.03,0.08-0.02,0.17-0.1,0.2
					C99.77,47.4,99.4,47.51,99.03,47.6z M96.84,47.97c-0.01,0-0.01,0-0.02,0c-0.43,0.04-0.86,0.07-1.29,0.08
					c-0.09,0-0.16-0.07-0.16-0.15c0-0.09,0.07-0.16,0.15-0.16c0.42-0.01,0.85-0.04,1.27-0.08c0.09-0.01,0.16,0.05,0.17,0.14
					C96.97,47.88,96.92,47.95,96.84,47.97z M102.07,46.54c-0.07,0.02-0.15-0.02-0.18-0.09c-0.04-0.08,0-0.17,0.08-0.21
					c0.38-0.18,0.76-0.37,1.13-0.57c0.08-0.04,0.17-0.02,0.22,0.06c0.04,0.08,0.02,0.17-0.06,0.22c-0.37,0.21-0.76,0.41-1.15,0.59
					C102.09,46.54,102.08,46.54,102.07,46.54z M93.48,47.98c-0.02,0-0.03,0.01-0.05,0c-0.43-0.04-0.86-0.1-1.28-0.18
					c-0.09-0.02-0.14-0.1-0.13-0.18c0.02-0.09,0.1-0.14,0.18-0.13c0.41,0.07,0.84,0.13,1.26,0.17c0.09,0.01,0.15,0.09,0.14,0.17
					C93.6,47.91,93.55,47.97,93.48,47.98z M104.96,44.84c-0.06,0.01-0.13-0.01-0.16-0.06c-0.05-0.07-0.04-0.17,0.03-0.22
					c0.34-0.25,0.67-0.51,0.99-0.79c0.07-0.06,0.17-0.05,0.22,0.02c0.06,0.07,0.05,0.17-0.02,0.22c-0.33,0.28-0.67,0.55-1.01,0.81
					C105,44.83,104.98,44.83,104.96,44.84z M90.19,47.32c-0.03,0.01-0.06,0.01-0.08,0c-0.41-0.13-0.82-0.27-1.22-0.43
					c-0.08-0.03-0.12-0.12-0.09-0.21c0.03-0.08,0.12-0.12,0.21-0.09c0.39,0.16,0.79,0.3,1.2,0.42c0.08,0.03,0.13,0.11,0.1,0.2
					C90.29,47.27,90.24,47.31,90.19,47.32z M107.45,42.59c-0.05,0.01-0.1,0-0.14-0.04c-0.06-0.06-0.07-0.16-0.01-0.22
					c0.28-0.31,0.56-0.64,0.82-0.97c0.05-0.07,0.15-0.08,0.22-0.03c0.07,0.05,0.08,0.15,0.03,0.22c-0.26,0.34-0.54,0.67-0.83,0.99
					C107.51,42.57,107.48,42.58,107.45,42.59z M87.1,46.01c-0.04,0.01-0.08,0-0.11-0.02c-0.38-0.21-0.75-0.43-1.11-0.67
					c-0.07-0.05-0.09-0.15-0.05-0.22c0.05-0.07,0.15-0.09,0.22-0.05c0.35,0.23,0.72,0.45,1.09,0.65c0.08,0.04,0.1,0.14,0.06,0.21
					C87.18,45.97,87.14,46,87.1,46.01z M84.34,44.1c-0.05,0.01-0.1,0-0.14-0.03c-0.26-0.22-0.51-0.45-0.76-0.68
					c-0.07-0.06-0.13-0.13-0.2-0.19c-0.06-0.06-0.06-0.16,0-0.22c0.06-0.06,0.16-0.06,0.22,0c0.06,0.06,0.13,0.13,0.19,0.19
					c0.24,0.23,0.49,0.46,0.74,0.67c0.07,0.06,0.07,0.16,0.02,0.22C84.4,44.07,84.37,44.09,84.34,44.1z M82.02,41.68
					c-0.06,0.01-0.12-0.01-0.16-0.06c-0.26-0.34-0.52-0.69-0.76-1.05c-0.05-0.07-0.03-0.17,0.04-0.22c0.07-0.05,0.17-0.03,0.22,0.04
					c0.23,0.35,0.48,0.7,0.74,1.03c0.05,0.07,0.04,0.17-0.03,0.22C82.06,41.66,82.04,41.67,82.02,41.68z M80.22,38.84
					c-0.07,0.02-0.15-0.02-0.18-0.08c-0.19-0.38-0.37-0.78-0.53-1.18c-0.03-0.08,0.01-0.17,0.09-0.21c0.08-0.03,0.17,0.01,0.21,0.09
					c0.16,0.39,0.33,0.78,0.52,1.16c0.04,0.08,0.01,0.17-0.07,0.21C80.24,38.83,80.23,38.84,80.22,38.84z"/>
				<path class="st10" d="M79.04,35.69c-0.08,0.02-0.17-0.03-0.19-0.11c-0.05-0.2-0.1-0.41-0.15-0.62
					c-0.02-0.09,0.04-0.17,0.12-0.19c0.09-0.02,0.17,0.03,0.19,0.12c0.05,0.2,0.1,0.41,0.15,0.61
					C79.17,35.58,79.12,35.67,79.04,35.69C79.04,35.69,79.04,35.69,79.04,35.69z"/>
			</g>
			<g>
				<path class="st10" d="M82.36,32.48c0,0.09,0.05,0.16,0.13,0.19l2.29,0.82c0.25,1.11,0.67,2.18,1.27,3.18l-1.09,2.17
					c-0.04,0.08-0.02,0.17,0.04,0.23l2.04,2.09c0.06,0.06,0.15,0.08,0.23,0.04l2.2-1.04c0.99,0.63,2.05,1.08,3.15,1.35l0.77,2.31
					c0.03,0.08,0.1,0.14,0.19,0.14l2.91,0.03c0.09,0,0.16-0.05,0.19-0.13l0.82-2.29c1.11-0.25,2.18-0.67,3.18-1.27l2.17,1.09
					c0.08,0.04,0.17,0.02,0.23-0.04l2.09-2.04c0.06-0.06,0.08-0.15,0.04-0.23l-1.04-2.2c0.63-0.99,1.08-2.05,1.35-3.15l2.31-0.76
					c0.08-0.03,0.14-0.1,0.14-0.19l0.03-2.91c0-0.09-0.05-0.16-0.13-0.19l-2.29-0.82c-0.25-1.11-0.67-2.18-1.27-3.18l1.09-2.17
					c0.04-0.08,0.02-0.17-0.04-0.23l-2.04-2.09c-0.06-0.06-0.15-0.08-0.23-0.04l-2.2,1.04c-0.99-0.63-2.05-1.08-3.15-1.35
					l-0.76-2.31c-0.03-0.08-0.1-0.14-0.19-0.14l-2.91-0.03c-0.09,0-0.16,0.05-0.19,0.13l-0.82,2.29c-1.11,0.25-2.18,0.67-3.18,1.27
					l-2.17-1.09c-0.08-0.04-0.17-0.02-0.23,0.04l-2.09,2.04c-0.06,0.06-0.08,0.15-0.04,0.23l1.04,2.2
					c-0.63,0.99-1.08,2.05-1.35,3.15l-2.31,0.77c-0.08,0.03-0.14,0.1-0.14,0.19L82.36,32.48z"/>
				<g>
					<path class="st11" d="M95.83,33.92C95.83,33.93,95.83,33.93,95.83,33.92c-0.74,0.18-1.5,0.06-2.14-0.34
						c-0.64-0.39-1.09-1.02-1.27-1.75c-0.18-0.73-0.06-1.49,0.34-2.14c0.81-1.33,2.56-1.75,3.89-0.93c0.64,0.39,1.09,1.02,1.27,1.75
						c0.18,0.73,0.06,1.49-0.34,2.14C97.19,33.3,96.57,33.75,95.83,33.92z M94.62,28.89c-0.61,0.15-1.13,0.52-1.45,1.06
						c-0.33,0.54-0.43,1.17-0.28,1.78c0.15,0.61,0.52,1.13,1.06,1.46c0.54,0.33,1.17,0.43,1.78,0.28c0,0,0,0,0,0
						c0.61-0.15,1.13-0.52,1.45-1.06c0.33-0.54,0.43-1.17,0.28-1.78c-0.15-0.61-0.52-1.13-1.06-1.46
						C95.87,28.85,95.23,28.75,94.62,28.89C94.62,28.89,94.62,28.89,94.62,28.89z"/>
				</g>
				<g>
					<path class="st11" d="M96.95,38.24c-2.41,0.58-5.06-0.08-6.92-1.98c-0.36-0.37-0.69-0.78-0.96-1.22l0.4-0.25
						c0.26,0.41,0.56,0.79,0.9,1.14c2.06,2.11,5.16,2.59,7.69,1.43c0,0,0.01,0,0.01-0.01c0,0,0.01,0,0.01-0.01
						c0.68-0.32,1.32-0.75,1.89-1.3c1.3-1.27,2.03-2.97,2.05-4.78c0.01-0.58-0.06-1.14-0.19-1.69c-0.28-1.17-0.88-2.26-1.74-3.14
						c-2.62-2.68-6.93-2.73-9.61-0.11c-0.88,0.86-1.51,1.94-1.82,3.13l-0.46-0.12c0.33-1.27,1.01-2.42,1.95-3.35
						c2.87-2.8,7.48-2.75,10.28,0.12c0.93,0.95,1.56,2.11,1.87,3.36c0.14,0.58,0.21,1.19,0.2,1.8c-0.02,1.94-0.8,3.76-2.19,5.12
						C99.35,37.32,98.18,37.94,96.95,38.24z"/>
				</g>
			</g>
		</g>
		<g>
			<g>
				<path class="st10" d="M108.45,29.2c-0.04,0.01-0.08,0.01-0.11-0.01c-0.09-0.04-0.13-0.15-0.09-0.24c0.1-0.22,0.2-0.45,0.31-0.66
					c0.05-0.09,0.15-0.12,0.24-0.08c0.09,0.05,0.12,0.15,0.08,0.24c-0.11,0.21-0.21,0.43-0.3,0.64
					C108.55,29.15,108.51,29.18,108.45,29.2z"/>
				<path class="st10" d="M128.39,27.8c-0.07,0.02-0.15-0.01-0.2-0.08c-0.26-0.42-0.55-0.83-0.86-1.21
					c-0.06-0.08-0.05-0.19,0.03-0.25c0.08-0.06,0.19-0.05,0.25,0.03c0.32,0.4,0.62,0.82,0.89,1.25c0.05,0.09,0.03,0.2-0.06,0.25
					C128.42,27.79,128.41,27.79,128.39,27.8z M125.76,24.85c-0.05,0.01-0.11,0-0.15-0.03c-0.39-0.31-0.8-0.59-1.23-0.84
					c-0.09-0.05-0.11-0.16-0.06-0.25c0.05-0.09,0.16-0.11,0.25-0.06c0.44,0.26,0.87,0.55,1.27,0.87c0.08,0.06,0.09,0.18,0.03,0.25
					C125.83,24.82,125.8,24.84,125.76,24.85z M110.12,26.5c-0.05,0.01-0.11,0-0.16-0.04c-0.08-0.06-0.09-0.18-0.02-0.25
					c0.17-0.21,0.36-0.42,0.55-0.61c0.16-0.17,0.34-0.34,0.51-0.5c0.07-0.07,0.19-0.06,0.26,0.01c0.07,0.07,0.06,0.19-0.01,0.26
					c-0.17,0.15-0.33,0.32-0.49,0.48c-0.18,0.19-0.36,0.39-0.53,0.6C110.19,26.47,110.15,26.49,110.12,26.5z M122.27,22.98
					c-0.03,0.01-0.07,0.01-0.1,0c-0.47-0.15-0.96-0.27-1.44-0.36c-0.1-0.02-0.16-0.11-0.15-0.21c0.02-0.1,0.11-0.16,0.21-0.15
					c0.5,0.09,1,0.22,1.49,0.38c0.09,0.03,0.15,0.13,0.12,0.23C122.38,22.92,122.33,22.97,122.27,22.98z M113.14,23.94
					c-0.08,0.02-0.16-0.01-0.2-0.09c-0.05-0.09-0.02-0.2,0.07-0.25c0.44-0.26,0.91-0.48,1.38-0.68c0.09-0.04,0.2,0.01,0.24,0.1
					c0.04,0.09-0.01,0.2-0.1,0.24c-0.46,0.19-0.91,0.41-1.34,0.66C113.17,23.93,113.15,23.94,113.14,23.94z M118.36,22.44
					c-0.01,0-0.02,0-0.04,0c-0.5,0.02-0.99,0.07-1.48,0.16c-0.1,0.02-0.19-0.05-0.21-0.15c-0.02-0.1,0.05-0.19,0.15-0.21
					c0.5-0.09,1.02-0.14,1.53-0.16c0.1,0,0.18,0.07,0.19,0.17C118.5,22.34,118.44,22.42,118.36,22.44z"/>
				<path class="st10" d="M129.65,30.72c-0.09,0.02-0.19-0.03-0.22-0.13c-0.06-0.23-0.13-0.46-0.21-0.68
					c-0.03-0.09,0.02-0.2,0.11-0.23c0.1-0.04,0.2,0.02,0.23,0.11c0.08,0.23,0.15,0.47,0.22,0.7
					C129.81,30.59,129.76,30.69,129.65,30.72C129.66,30.72,129.66,30.72,129.65,30.72z"/>
			</g>
			<g>
				<path class="st10" d="M128.34,39.68c-0.05,0.01-0.1,0-0.14-0.02c-0.08-0.05-0.11-0.16-0.06-0.25c0.13-0.2,0.25-0.41,0.36-0.61
					c0.05-0.09,0.16-0.12,0.25-0.07c0.09,0.05,0.12,0.16,0.07,0.25c-0.12,0.21-0.24,0.43-0.37,0.63
					C128.42,39.64,128.38,39.67,128.34,39.68z"/>
				<path class="st10" d="M122.3,44.41c-0.09,0.02-0.18-0.03-0.21-0.12c-0.03-0.09,0.02-0.2,0.12-0.23
					c0.46-0.15,0.92-0.34,1.36-0.55c0.09-0.04,0.2-0.01,0.24,0.08c0.04,0.09,0.01,0.2-0.08,0.24c-0.45,0.22-0.92,0.41-1.4,0.56
					C122.31,44.4,122.31,44.41,122.3,44.41z M119.94,44.91c-0.01,0-0.02,0-0.02,0c-0.5,0.05-1.01,0.07-1.51,0.06
					c-0.1,0-0.18-0.09-0.18-0.19c0-0.1,0.09-0.18,0.19-0.18c0.49,0.01,0.98,0,1.46-0.05c0.1-0.01,0.19,0.06,0.2,0.16
					C120.09,44.81,120.03,44.89,119.94,44.91z M125.73,42.57c-0.07,0.02-0.14-0.01-0.18-0.06c-0.06-0.08-0.05-0.19,0.03-0.25
					c0.38-0.3,0.75-0.63,1.09-0.98c0.07-0.07,0.18-0.07,0.26,0c0.07,0.07,0.07,0.18,0,0.26c-0.35,0.36-0.73,0.7-1.13,1.01
					C125.78,42.56,125.76,42.57,125.73,42.57z M116.06,44.64c-0.03,0.01-0.06,0.01-0.09,0c-0.49-0.12-0.97-0.28-1.44-0.46
					c-0.09-0.04-0.14-0.14-0.1-0.23c0.04-0.09,0.14-0.14,0.23-0.1c0.45,0.18,0.92,0.33,1.39,0.45c0.1,0.02,0.16,0.12,0.13,0.22
					C116.18,44.57,116.13,44.62,116.06,44.64z M112.51,43.06c-0.05,0.01-0.1,0-0.14-0.03c-0.42-0.28-0.82-0.59-1.2-0.92
					c-0.07-0.07-0.08-0.18-0.02-0.26c0.07-0.07,0.18-0.08,0.26-0.02c0.37,0.32,0.76,0.62,1.16,0.9c0.08,0.06,0.1,0.17,0.05,0.25
					C112.59,43.02,112.55,43.05,112.51,43.06z M109.7,40.37c-0.07,0.02-0.14-0.01-0.19-0.07c-0.3-0.41-0.57-0.83-0.81-1.27
					c-0.05-0.09-0.02-0.2,0.07-0.25c0.09-0.05,0.2-0.02,0.25,0.07c0.23,0.43,0.5,0.84,0.79,1.23c0.06,0.08,0.04,0.19-0.04,0.25
					C109.74,40.35,109.72,40.36,109.7,40.37z"/>
				<path class="st10" d="M107.97,36.87c-0.09,0.02-0.19-0.03-0.22-0.13c-0.07-0.23-0.13-0.47-0.18-0.71
					c-0.02-0.1,0.04-0.19,0.13-0.22c0,0,0,0,0,0c0.1-0.02,0.19,0.04,0.22,0.14c0.05,0.23,0.11,0.46,0.18,0.69
					C108.13,36.74,108.08,36.84,107.97,36.87C107.98,36.87,107.97,36.87,107.97,36.87z"/>
			</g>
			<g>
				<path class="st10" d="M110.13,34.35c0,0.06,0.04,0.11,0.09,0.13l1.55,0.55c0.17,0.75,0.45,1.48,0.86,2.16l-0.74,1.47
					c-0.03,0.05-0.02,0.11,0.02,0.16l1.38,1.41c0.04,0.04,0.1,0.05,0.15,0.03l1.49-0.7c0.67,0.42,1.39,0.73,2.14,0.91l0.52,1.56
					c0.02,0.05,0.07,0.09,0.13,0.09l1.97,0.02c0.06,0,0.11-0.04,0.13-0.09l0.55-1.55c0.75-0.17,1.48-0.45,2.16-0.86l1.47,0.74
					c0.05,0.03,0.11,0.02,0.16-0.02l1.41-1.38c0.04-0.04,0.05-0.1,0.03-0.15l-0.7-1.49c0.43-0.67,0.73-1.39,0.91-2.14l1.56-0.52
					c0.05-0.02,0.09-0.07,0.09-0.13l0.02-1.97c0-0.06-0.04-0.11-0.09-0.13l-1.55-0.55c-0.17-0.75-0.45-1.48-0.86-2.16l0.74-1.47
					c0.03-0.05,0.02-0.11-0.02-0.16l-1.38-1.41c-0.04-0.04-0.1-0.05-0.15-0.03l-1.49,0.7c-0.67-0.43-1.39-0.73-2.14-0.91l-0.52-1.56
					c-0.02-0.05-0.07-0.09-0.13-0.09l-1.97-0.02c-0.06,0-0.11,0.04-0.13,0.09l-0.55,1.55c-0.75,0.17-1.48,0.45-2.16,0.86l-1.47-0.74
					c-0.05-0.03-0.11-0.02-0.16,0.02l-1.41,1.38c-0.04,0.04-0.05,0.1-0.03,0.15l0.7,1.49c-0.42,0.67-0.73,1.39-0.91,2.14l-1.56,0.52
					c-0.05,0.02-0.09,0.07-0.09,0.13L110.13,34.35z"/>
				<g>
					<path class="st11" d="M119.28,35.43C119.28,35.43,119.28,35.43,119.28,35.43c-0.53,0.13-1.07,0.04-1.53-0.24
						c-0.46-0.28-0.78-0.73-0.91-1.25c-0.13-0.53-0.04-1.07,0.24-1.53c0.58-0.95,1.83-1.25,2.78-0.67c0.46,0.28,0.78,0.73,0.91,1.25
						c0.13,0.53,0.04,1.07-0.24,1.53C120.25,34.98,119.81,35.3,119.28,35.43z M118.46,32.02c-0.37,0.09-0.7,0.32-0.92,0.67
						c-0.21,0.34-0.27,0.74-0.18,1.12c0.09,0.39,0.33,0.71,0.67,0.92c0.34,0.21,0.74,0.27,1.12,0.18c0,0,0,0,0,0
						c0.38-0.09,0.71-0.33,0.92-0.67c0.21-0.34,0.27-0.74,0.18-1.12c-0.09-0.39-0.33-0.71-0.67-0.92
						C119.23,31.98,118.83,31.93,118.46,32.02z"/>
				</g>
				<g>
					<path class="st11" d="M120.04,38.35c-1.67,0.4-3.5-0.06-4.79-1.37c-0.22-0.23-0.42-0.48-0.6-0.74
						c-0.02-0.03-0.04-0.07-0.07-0.1l0.46-0.29c0.17,0.27,0.37,0.52,0.59,0.75l0,0c0.25,0.25,0.52,0.47,0.81,0.66c0,0,0,0,0,0
						c0,0,0,0,0,0c1.28,0.81,2.9,0.91,4.26,0.29c0.35-0.16,0.69-0.37,1-0.63c0.01-0.01,0.02-0.02,0.03-0.02
						c0.01-0.01,0.02-0.01,0.02-0.02c0.02-0.02,0.04-0.04,0.06-0.05c0.05-0.05,0.11-0.1,0.16-0.15c0.86-0.84,1.34-1.96,1.35-3.16
						c0-0.38-0.04-0.75-0.12-1.11c-0.19-0.78-0.58-1.49-1.15-2.08c-0.84-0.86-1.96-1.34-3.16-1.35c-1.2-0.01-2.33,0.44-3.19,1.28
						c-0.58,0.57-1,1.28-1.21,2.07l-0.52-0.14c0.23-0.88,0.7-1.68,1.35-2.32c0.96-0.94,2.23-1.45,3.58-1.43
						c1.34,0.02,2.6,0.55,3.54,1.52c0.64,0.66,1.08,1.46,1.29,2.33c0.1,0.4,0.15,0.82,0.14,1.25c-0.02,1.34-0.55,2.6-1.52,3.54
						C121.7,37.71,120.89,38.14,120.04,38.35z"/>
				</g>
			</g>
		</g>
	</g>
	<g>
		<g>
			<path class="st10" d="M4.65,5.3C4.5,4.66,5.4,4.24,5.95,4.69c5.58,4.52,18.99,18.07,15.65,41.75
				c-4.19,29.71,2.97,40.55,11.9,47.16c0,0-12.25-3.11-19.96-14.11C-5.39,52.48,7.32,16.64,4.65,5.3z"/>
			<path class="st12" d="M8.9,14.58c0.7,3.31,1.32,6.62,1.8,9.96c0.5,3.33,0.88,6.67,1.15,10.02c0.25,3.35,0.42,6.7,0.43,10.05
				c0.03,3.35-0.11,6.7-0.27,10.06c-0.13,3.36-0.29,6.75-0.04,10.16c0.24,3.4,0.96,6.83,2.38,10.05c0.36,0.8,0.73,1.6,1.15,2.37
				c0.41,0.78,0.86,1.54,1.32,2.3c0.94,1.51,1.99,2.97,3.17,4.35c2.36,2.77,5.2,5.22,8.33,7.29c0.33,0.22,0.8,0.16,1.06-0.12
				c0.25-0.28,0.19-0.68-0.12-0.9l0,0c-0.75-0.52-1.48-1.05-2.19-1.61c-0.36-0.27-0.7-0.56-1.05-0.84
				c-0.34-0.29-0.69-0.57-1.02-0.87c-1.33-1.18-2.56-2.45-3.68-3.78c-2.25-2.66-4.05-5.62-5.41-8.69c-0.66-1.54-1.19-3.13-1.58-4.74
				c-0.39-1.61-0.63-3.25-0.76-4.91c-0.27-3.31-0.15-6.66-0.04-10.02c0.1-3.36,0.17-6.74,0.08-10.12c-0.04-1.69-0.11-3.38-0.22-5.06
				c-0.05-0.84-0.12-1.69-0.18-2.53c-0.08-0.84-0.16-1.68-0.25-2.52c-0.36-3.36-0.84-6.71-1.45-10.04
				c-0.62-3.33-1.34-6.64-2.21-9.93c-0.02-0.09-0.13-0.15-0.24-0.13C8.95,14.4,8.88,14.49,8.9,14.58z"/>
		</g>
		<g>
			<g>
				<path class="st11" d="M18.1,72.73c-0.68,0.73-1.89,0.52-2.3-0.39c-2.27-5.01-7.41-19.77,1.08-36.77
					c7.17-14.36,9.69-22.82,10.57-26.74c0.19-0.83,1.32-0.94,1.67-0.16C32.9,17.24,42.9,46.43,18.1,72.73z"/>
				<path class="st12" d="M16.86,72.2c-0.02,0-0.05,0.01-0.08,0.01c-0.22,0-0.39-0.18-0.38-0.4c0-0.24,0.48-24.61,9.54-45.02
					c0.09-0.2,0.32-0.29,0.51-0.2c0.2,0.09,0.29,0.32,0.2,0.51c-9,20.26-9.47,44.48-9.48,44.72C17.18,72.01,17.04,72.17,16.86,72.2z
					"/>
			</g>
		</g>
	</g>
	<g>
		<g>
			<g>
				<g>
					<g>
						<path class="st13" d="M130.39,109.23V39.55c0-1.81-1.47-3.28-3.28-3.28H13.97c-1.81,0-3.28,1.47-3.28,3.28v69.67H130.39z"/>
					</g>
					<path class="st2" d="M10.96,109.36v10.07c0,1.94,1.56,3.51,3.49,3.51h112.32c1.93,0,3.49-1.57,3.49-3.51v-10.07H10.96z"/>
					<circle class="st12" cx="70.54" cy="115.28" r="3.13"/>
					<g>
						<path class="st14" d="M91.24,137.79c0,0-0.87-0.43-1.87-0.81c-1.07-0.4-2.35-0.9-3.11-1.27c-1.32-0.63-1.44-1.05-1.93-3.22
							c-0.54-2.37-1.05-7.37-1.25-9.55H58.01c-0.21,2.18-0.71,7.18-1.25,9.55c-0.5,2.17-0.61,2.59-1.93,3.22
							c-0.75,0.36-2.01,0.86-3.07,1.25l0,0c-1.02,0.38-1.85,0.68-1.85,0.68s-0.8,0.45,0.49,0.51h40.3
							C91.91,138.18,91.24,137.79,91.24,137.79z"/>
					</g>
					<g>
						<path class="st13" d="M83.85,128.89c-0.11-1.04-0.71-5.27-0.77-5.94H58.01c-0.06,0.67,0,1-0.11,2.03L83.85,128.89z"/>
					</g>
					<rect x="16.25" y="41.89" class="st15" width="108.58" height="61.14"/>
				</g>
			</g>
		</g>
	</g>
	<g>
		<g>
			<rect x="16.16" y="41.68" class="st16" width="108.66" height="61.49"/>
			<g class="st17">
				<path class="st18" d="M68.59,53.53l-9.49-0.06c-0.18,0-0.33-0.15-0.33-0.33l0.01-1.28c0-0.18,0.15-0.32,0.33-0.32l9.49,0.06
					c0.18,0,0.33,0.15,0.33,0.33l-0.01,1.28C68.93,53.39,68.78,53.53,68.59,53.53z"/>
				<path class="st18" d="M90.55,53.67l-19-0.12c-0.29,0-0.53-0.23-0.52-0.52l0.01-0.9c0-0.28,0.24-0.51,0.53-0.51l19,0.12
					c0.29,0,0.53,0.23,0.52,0.52l-0.01,0.9C91.08,53.45,90.84,53.68,90.55,53.67z"/>
				<path class="st18" d="M68.65,56.92l-9.49-0.06c-0.18,0-0.33-0.15-0.33-0.33l0.01-1.28c0-0.18,0.15-0.32,0.33-0.32l9.49,0.06
					c0.18,0,0.33,0.15,0.33,0.33l-0.01,1.28C68.98,56.77,68.83,56.92,68.65,56.92z"/>
				<path class="st18" d="M106.94,57.17l-28.33-0.18c-0.29,0-0.53-0.23-0.52-0.52l0.01-0.9c0-0.28,0.24-0.51,0.53-0.51l28.33,0.18
					c0.29,0,0.53,0.23,0.52,0.52l-0.01,0.9C107.47,56.94,107.23,57.17,106.94,57.17z"/>
				<path class="st18" d="M68.62,60.3l-9.49-0.06c-0.18,0-0.33-0.15-0.33-0.33l0.01-1.28c0-0.18,0.15-0.32,0.33-0.32l9.49,0.06
					c0.18,0,0.33,0.15,0.33,0.33l-0.01,1.28C68.95,60.16,68.8,60.3,68.62,60.3z"/>
				<path class="st18" d="M119.42,60.63l-37.23-0.24c-0.29,0-0.53-0.23-0.52-0.52l0.01-0.9c0-0.28,0.24-0.51,0.53-0.51l37.23,0.24
					c0.29,0,0.53,0.23,0.52,0.52l-0.01,0.9C119.94,60.4,119.71,60.63,119.42,60.63z"/>
				<path class="st18" d="M68.67,63.68l-9.49-0.06c-0.18,0-0.33-0.15-0.33-0.33l0.01-1.28c0-0.18,0.15-0.32,0.33-0.32l9.49,0.06
					c0.18,0,0.33,0.15,0.33,0.33l-0.01,1.28C69.01,63.54,68.86,63.69,68.67,63.68z"/>
				<path class="st18" d="M119.59,64.02l-37.23-0.24c-0.29,0-0.53-0.23-0.52-0.52l0.01-0.9c0-0.28,0.24-0.51,0.53-0.51l37.23,0.24
					c0.29,0,0.53,0.23,0.52,0.52l-0.01,0.9C120.12,63.79,119.88,64.02,119.59,64.02z"/>
				<path class="st18" d="M68.62,67.2l-9.49-0.06c-0.18,0-0.33-0.15-0.33-0.33l0.01-1.28c0-0.18,0.15-0.32,0.33-0.32l9.49,0.06
					c0.18,0,0.33,0.15,0.33,0.33l-0.01,1.28C68.95,67.06,68.8,67.2,68.62,67.2z"/>
				<path class="st18" d="M119.49,67.53l-37.23-0.24c-0.29,0-0.53-0.23-0.52-0.52l0.01-0.9c0-0.28,0.24-0.51,0.53-0.51l37.23,0.24
					c0.29,0,0.53,0.23,0.52,0.52l-0.01,0.9C120.02,67.3,119.78,67.53,119.49,67.53z"/>
				<path class="st18" d="M68.67,70.58l-9.49-0.06c-0.18,0-0.33-0.15-0.33-0.33l0.01-1.28c0-0.18,0.15-0.32,0.33-0.32l9.49,0.06
					c0.18,0,0.33,0.15,0.33,0.33l-0.01,1.28C69,70.44,68.85,70.59,68.67,70.58z"/>
				<path class="st18" d="M93.82,70.75l-22.4-0.15c-0.29,0-0.53-0.23-0.52-0.52l0.01-0.9c0-0.28,0.24-0.51,0.53-0.51l22.4,0.15
					c0.29,0,0.53,0.23,0.52,0.52l-0.01,0.9C94.35,70.52,94.11,70.75,93.82,70.75z"/>
				<path class="st18" d="M68.64,73.96l-9.49-0.06c-0.18,0-0.33-0.15-0.33-0.33l0.01-1.28c0-0.18,0.15-0.32,0.33-0.32l9.49,0.06
					c0.18,0,0.33,0.15,0.33,0.33l-0.01,1.28C68.97,73.82,68.82,73.97,68.64,73.96z"/>
				<path class="st18" d="M104.87,74.2l-28.19-0.18c-0.29,0-0.53-0.23-0.52-0.52l0.01-0.9c0-0.28,0.24-0.51,0.53-0.51l28.19,0.18
					c0.29,0,0.53,0.23,0.52,0.52l-0.01,0.9C105.4,73.97,105.16,74.2,104.87,74.2z"/>
				<path class="st18" d="M68.69,77.35l-9.49-0.06c-0.18,0-0.33-0.15-0.33-0.33l0.01-1.28c0-0.18,0.15-0.32,0.33-0.32l9.49,0.06
					c0.18,0,0.33,0.15,0.33,0.33l-0.01,1.28C69.03,77.21,68.88,77.35,68.69,77.35z"/>
				<path class="st18" d="M119.67,77.68l-38.53-0.25c-0.29,0-0.53-0.23-0.52-0.52l0.01-0.9c0-0.28,0.24-0.51,0.53-0.51l38.53,0.25
					c0.29,0,0.53,0.23,0.52,0.52l-0.01,0.9C120.19,77.46,119.96,77.68,119.67,77.68z"/>
				<path class="st18" d="M68.44,87.45l-9.49-0.06c-0.18,0-0.33-0.15-0.33-0.33l0.01-1.28c0-0.18,0.15-0.32,0.33-0.32l9.49,0.06
					c0.18,0,0.33,0.15,0.33,0.33l-0.01,1.28C68.77,87.31,68.62,87.46,68.44,87.45z"/>
				<path class="st18" d="M93.59,87.62l-22.4-0.15c-0.29,0-0.53-0.23-0.52-0.52l0.01-0.9c0-0.28,0.24-0.51,0.53-0.51l22.4,0.15
					c0.29,0,0.53,0.23,0.52,0.52l-0.01,0.9C94.12,87.39,93.88,87.62,93.59,87.62z"/>
				<path class="st18" d="M68.41,90.83l-9.49-0.06c-0.18,0-0.33-0.15-0.33-0.33l0.01-1.28c0-0.18,0.15-0.32,0.33-0.32l9.49,0.06
					c0.18,0,0.33,0.15,0.33,0.33l-0.01,1.28C68.74,90.69,68.59,90.84,68.41,90.83z"/>
				<path class="st18" d="M104.62,91.07l-28.19-0.18c-0.29,0-0.53-0.23-0.52-0.52l0.01-0.9c0-0.28,0.24-0.51,0.53-0.51l28.19,0.18
					c0.29,0,0.53,0.23,0.52,0.52l-0.01,0.9C105.15,90.84,104.91,91.07,104.62,91.07z"/>
				<path class="st18" d="M68.46,94.22l-9.49-0.06c-0.18,0-0.33-0.15-0.33-0.33l0.01-1.28c0-0.18,0.15-0.32,0.33-0.32l9.49,0.06
					c0.18,0,0.33,0.15,0.33,0.33L68.8,93.9C68.8,94.08,68.65,94.22,68.46,94.22z"/>
				<path class="st18" d="M119.42,94.55L80.89,94.3c-0.29,0-0.53-0.23-0.52-0.52l0.01-0.9c0-0.28,0.24-0.51,0.53-0.51l38.53,0.25
					c0.29,0,0.53,0.23,0.52,0.52l-0.01,0.9C119.95,94.33,119.71,94.55,119.42,94.55z"/>
				<path class="st18" d="M68.55,80.79l-9.49-0.06c-0.18,0-0.33-0.15-0.33-0.33l0.01-1.28c0-0.18,0.15-0.32,0.33-0.32l9.49,0.06
					c0.18,0,0.33,0.15,0.33,0.33l-0.01,1.28C68.88,80.65,68.73,80.8,68.55,80.79z"/>
				<path class="st18" d="M119.34,81.12L80.8,80.87c-0.29,0-0.53-0.23-0.52-0.52l0.01-0.9c0-0.28,0.24-0.51,0.53-0.51l38.53,0.25
					c0.29,0,0.53,0.23,0.52,0.52l-0.01,0.9C119.86,80.9,119.63,81.13,119.34,81.12z"/>
				<path class="st18" d="M68.61,84.18l-9.49-0.06c-0.18,0-0.33-0.15-0.33-0.33l0.01-1.28c0-0.18,0.15-0.32,0.33-0.32l9.49,0.06
					c0.18,0,0.33,0.15,0.33,0.33l-0.01,1.28C68.94,84.04,68.79,84.18,68.61,84.18z"/>
				<path class="st18" d="M119.52,84.51l-38.53-0.25c-0.29,0-0.53-0.23-0.52-0.52l0.01-0.9c0-0.28,0.24-0.51,0.53-0.51l38.53,0.25
					c0.29,0,0.53,0.23,0.52,0.52l-0.01,0.9C120.05,84.28,119.81,84.51,119.52,84.51z"/>
				<path class="st19" d="M54.32,72.4H21.98c-1.26,0-2.28-0.44-2.28-0.98V50.97c0-0.55,1.05-0.99,2.33-0.98l32.47,0.26
					c1.25,0.01,2.24,0.45,2.24,0.99l-0.13,20.19C56.61,71.96,55.58,72.4,54.32,72.4z"/>
				<path class="st19" d="M54.18,96.22H21.84c-1.26,0-2.28-0.44-2.28-0.98V74.78c0-0.55,1.05-0.99,2.33-0.98l32.47,0.26
					c1.25,0.01,2.24,0.45,2.24,0.99l-0.13,20.19C56.47,95.78,55.44,96.22,54.18,96.22z"/>
			</g>
			<linearGradient id="SVGID_1_" gradientUnits="userSpaceOnUse" x1="74.3058" y1="14.0449" x2="67.2451" y2="73.3544">
				<stop  offset="0" style="stop-color:#4F52FF"/>
				<stop  offset="1" style="stop-color:#4042E2"/>
			</linearGradient>
			<rect x="16.4" y="41.68" class="st20" width="108.43" height="6.72"/>
			<circle class="st16" cx="21.93" cy="45.05" r="1.68"/>
			<circle class="st16" cx="32.14" cy="45.05" r="1.68"/>
			<circle class="st16" cx="26.96" cy="45.05" r="1.68"/>
		</g>
		<g>
			
				<linearGradient id="SVGID_2_" gradientUnits="userSpaceOnUse" x1="-259.4373" y1="464.6413" x2="-289.1488" y2="500.166" gradientTransform="matrix(0.9859 -0.1433 0.1671 0.8185 224.5766 -361.6385)">
				<stop  offset="0" style="stop-color:#4F52FF"/>
				<stop  offset="1" style="stop-color:#4042E2"/>
			</linearGradient>
			<path class="st21" d="M29.07,77.56l21.69-0.31c0.58-0.01,1.03-0.48,1.03-1.06l-0.31-21.92c-0.01-0.58-0.48-1.03-1.06-1.03
				l-21.69,0.31c-0.58,0.01-1.03,0.48-1.03,1.06l0.31,21.92C28.02,77.11,28.49,77.57,29.07,77.56z"/>
			<g>
				<path class="st12" d="M30.04,71.34l4.43-6.38c0.05-0.06,0.12-0.11,0.21-0.11c0.08,0,0.16,0.04,0.21,0.1l2.78,3.64l4.34-6.16
					c0.05-0.07,0.13-0.11,0.22-0.11c0.09,0,0.17,0.04,0.22,0.1l6.93,8.87c0.06,0.07,0.06,0.2,0.02,0.27
					c-0.05,0.08-0.14,0.16-0.24,0.16l-9.14,0.01l-4.53,0.01l-5.23,0.01c-0.09,0-0.18-0.07-0.22-0.15
					C29.99,71.53,29.99,71.41,30.04,71.34z"/>
				<path class="st12" d="M33.15,61c0.03,1.07,0.94,1.92,2.04,1.89c1.11-0.03,1.99-0.93,1.97-2.01s-0.95-1.93-2.06-1.89
					C33.99,59.03,33.12,59.93,33.15,61z"/>
			</g>
		</g>
		<g>
			<g>
				<linearGradient id="SVGID_3_" gradientUnits="userSpaceOnUse" x1="83.5044" y1="71.987" x2="63.3724" y2="100.5074">
					<stop  offset="0" style="stop-color:#4F52FF"/>
					<stop  offset="1" style="stop-color:#4042E2"/>
				</linearGradient>
				<circle class="st22" cx="78.9" cy="78.51" r="7.83"/>
				<g>
					<path class="st12" d="M76.36,80.46l-3.3-1.68v-0.54l3.3-1.91v0.92l-2.28,1.22l2.28,1.08V80.46z"/>
					<path class="st12" d="M79.87,75.58L78,81.26l-0.94-0.01l1.86-5.65L79.87,75.58z"/>
					<path class="st12" d="M80.57,79.56l2.41-1.1l-2.41-1.23v-0.94l3.52,1.93v0.57l-3.52,1.71V79.56z"/>
				</g>
			</g>
			<g>
				<linearGradient id="SVGID_4_" gradientUnits="userSpaceOnUse" x1="96.4536" y1="57.2404" x2="74.0846" y2="116.2387">
					<stop  offset="0" style="stop-color:#FF928E"/>
					<stop  offset="1" style="stop-color:#FE7062"/>
				</linearGradient>
				<circle class="st23" cx="93" cy="66.36" r="7.83"/>
				<path class="st12" d="M90.46,63.29v6.6c0,0.42,0.36,0.69,0.67,0.49l5.52-3.47c0.34-0.22,0.34-0.83,0-1.02l-5.52-3.13
					C90.82,62.58,90.46,62.86,90.46,63.29z"/>
			</g>
			<g>
				<linearGradient id="SVGID_5_" gradientUnits="userSpaceOnUse" x1="102.2836" y1="74.595" x2="117.9419" y2="74.595">
					<stop  offset="0" style="stop-color:#4F52FF"/>
					<stop  offset="1" style="stop-color:#4042E2"/>
				</linearGradient>
				<circle class="st24" cx="110.11" cy="74.59" r="7.83"/>
				<g>
					<rect x="105.52" y="74.36" class="st12" width="1.92" height="3.51"/>
					<rect x="108.63" y="72.33" class="st12" width="1.92" height="5.54"/>
					<rect x="111.81" y="70.55" class="st12" width="1.92" height="7.32"/>
				</g>
			</g>
		</g>
	</g>
</g>
<g>
	<g>
		<g>
			<g>
				
					<linearGradient id="SVGID_6_" gradientUnits="userSpaceOnUse" x1="-1512.8954" y1="196.8017" x2="-1512.6465" y2="223.1916" gradientTransform="matrix(-1 0 0 1 -1269.1969 0)">
					<stop  offset="0" style="stop-color:#09005D"/>
					<stop  offset="1" style="stop-color:#1A0F91"/>
				</linearGradient>
				<path class="st25" d="M251.71,165.68c0,0,0.31,1.72,0.43,3.76c0.05,0.87-0.59,1.62-1.46,1.71c-3.02,0.29-9.89,0.83-14.28,0.2
					c-0.61-0.09-0.86-0.84-0.4-1.27c1.81-1.69,6.18-4.96,13.37-5.68L251.71,165.68z"/>
				
					<linearGradient id="SVGID_7_" gradientUnits="userSpaceOnUse" x1="-1519.2567" y1="167.3307" x2="-1520.626" y2="156.6254" gradientTransform="matrix(-1 0 0 1 -1269.1969 0)">
					<stop  offset="0" style="stop-color:#FEBBBA"/>
					<stop  offset="1" style="stop-color:#FF928E"/>
				</linearGradient>
				<path class="st26" d="M253.21,161.8l-1.53,3.74c-0.21,0.51-0.73,0.83-1.28,0.77c-0.37-0.04-0.82-0.11-1.25-0.24
					c-0.86-0.26-1.35-1.17-1.09-2.04l1.15-3.85L253.21,161.8z"/>
				
					<linearGradient id="SVGID_8_" gradientUnits="userSpaceOnUse" x1="-1548.5499" y1="197.1379" x2="-1548.301" y2="223.5277" gradientTransform="matrix(-1 0 0 1 -1269.1969 0)">
					<stop  offset="0" style="stop-color:#09005D"/>
					<stop  offset="1" style="stop-color:#1A0F91"/>
				</linearGradient>
				<path class="st27" d="M279.3,168.66c0,0-3.06,2.56-4.25,5.84c-0.33,0.9,0.36,1.85,1.32,1.85h6.29c0.92,0,1.63-0.83,1.47-1.73
					C283.73,172.35,282.58,168.67,279.3,168.66z"/>
				
					<linearGradient id="SVGID_9_" gradientUnits="userSpaceOnUse" x1="-1549.1843" y1="170.9998" x2="-1550.5187" y2="160.5677" gradientTransform="matrix(-1 0 0 1 -1269.1969 0)">
					<stop  offset="0" style="stop-color:#FEBBBA"/>
					<stop  offset="1" style="stop-color:#FF928E"/>
				</linearGradient>
				<path class="st28" d="M283.09,165.33c0,0-0.62,2.73-1.09,4.54c-0.09,0.33-0.44,0.51-0.76,0.39c-0.95-0.34-1.73-0.49-2.29-0.42
					c-0.26,0.03-0.49-0.18-0.49-0.44l-0.06-4.54L283.09,165.33z"/>
				
					<linearGradient id="SVGID_10_" gradientUnits="userSpaceOnUse" x1="-1558.5092" y1="131.3596" x2="-1517.4384" y2="131.3596" gradientTransform="matrix(-1 0 0 1 -1269.1969 0)">
					<stop  offset="0" style="stop-color:#09005D"/>
					<stop  offset="1" style="stop-color:#1A0F91"/>
				</linearGradient>
				<path class="st29" d="M266.83,103.84l-18.59,56.71c0,0,3.57,2.34,5.26,2.24l22.08-45.58c0,0,3.86,28.08,1.99,48.25l6.32,0.48
					c0,0,10.28-51.52,2.49-69.17L266.83,103.84z"/>
				
					<linearGradient id="SVGID_11_" gradientUnits="userSpaceOnUse" x1="-1549.9902" y1="125.0585" x2="-1548.4965" y2="122.0709" gradientTransform="matrix(-1 0 0 1 -1269.1969 0)">
					<stop  offset="0" style="stop-color:#4F52FF"/>
					<stop  offset="1" style="stop-color:#4042E2"/>
				</linearGradient>
				<path class="st30" d="M275.47,116.73c0.01,0,0.02,0,0.02,0c0.1-0.01,0.17-0.1,0.16-0.2l-0.72-5.73c-0.01-0.1-0.1-0.17-0.2-0.16
					c-0.1,0.01-0.17,0.1-0.16,0.2l0.72,5.73C275.3,116.66,275.38,116.73,275.47,116.73z"/>
			</g>
			<linearGradient id="SVGID_12_" gradientUnits="userSpaceOnUse" x1="302.2672" y1="26.596" x2="292.3913" y2="42.8207">
				<stop  offset="0" style="stop-color:#FF928E"/>
				<stop  offset="1" style="stop-color:#FE7062"/>
			</linearGradient>
			<path class="st31" d="M263.35,53.94c0,0,15.06,1.34,12.93,12.07c0,0,8.33,15.67,12.22,34.12c0.13,0.6-0.28,1.19-0.88,1.29
				l-25.08,4.29c-0.69,0.12-1.36-0.31-1.54-0.99L255,81.56l-2.34,10.77l-7.42-1.93l6.25-31.64
				C251.5,58.76,252.37,54.14,263.35,53.94z"/>
			<linearGradient id="SVGID_13_" gradientUnits="userSpaceOnUse" x1="274.1485" y1="52.0156" x2="267.4469" y2="59.7753">
				<stop  offset="0" style="stop-color:#E1473D"/>
				<stop  offset="1" style="stop-color:#E9605A"/>
			</linearGradient>
			<path class="st32" d="M254.88,80.53c0.01,0,0.03,0,0.04,0c0.1-0.02,0.16-0.12,0.14-0.22l-2.09-9.6c-0.02-0.1-0.12-0.16-0.22-0.14
				c-0.1,0.02-0.16,0.12-0.14,0.22l2.09,9.6C254.71,80.47,254.79,80.53,254.88,80.53z"/>
			
				<linearGradient id="SVGID_14_" gradientUnits="userSpaceOnUse" x1="-1539.0994" y1="102.4833" x2="-1520.3979" y2="102.4833" gradientTransform="matrix(-1 0 0 1 -1269.1969 0)">
				<stop  offset="0" style="stop-color:#FEBBBA"/>
				<stop  offset="1" style="stop-color:#FF928E"/>
			</linearGradient>
			<path class="st33" d="M256.39,109.09c0.79-0.43,1.72-0.55,2.59-0.34l1.75,0.43c0.37,0.09,0.74-0.16,0.78-0.54l1.81-16.07
				c2.26,1.07,5.52,0.94,6.59,0.87l-4.16,18.95H251.2L256.39,109.09z"/>
			
				<linearGradient id="SVGID_15_" gradientUnits="userSpaceOnUse" x1="-1521.8656" y1="79.04" x2="-1486.9415" y2="79.04" gradientTransform="matrix(-1 0 0 1 -1269.1969 0)">
				<stop  offset="0" style="stop-color:#FEBBBA"/>
				<stop  offset="1" style="stop-color:#FF928E"/>
			</linearGradient>
			<path class="st34" d="M217.74,74.23l0.44-1.46c0.25-0.84,0.87-1.52,1.69-1.85l7.95-3.2c0,0,0.12-1.02-1.68-1.71
				c-1.8-0.69-1.38-2.71-1.38-2.71s2.46,1.12,6.06,2.9c2.06,1.02,3.21,2.81,3.83,4.17l18.02,21.96l-2.12,1.45
				c-2.78,1.91-6.61,0.97-8.19-2.01l-9.76-18.72C227.7,74.53,222.75,74.81,217.74,74.23z"/>
			<g>
				
					<linearGradient id="SVGID_16_" gradientUnits="userSpaceOnUse" x1="-1534.4388" y1="59.4523" x2="-1522.2844" y2="46.9823" gradientTransform="matrix(-1 0 0 1 -1269.1969 0)">
					<stop  offset="0" style="stop-color:#FEBBBA"/>
					<stop  offset="1" style="stop-color:#FF928E"/>
				</linearGradient>
				<path class="st35" d="M258.47,43.69l4.63,12.96c0,0-4.1,3.21-7.1,2.12l-2.33-7.43C253.67,51.35,255.45,42.27,258.47,43.69z"/>
				<g>
					
						<linearGradient id="SVGID_17_" gradientUnits="userSpaceOnUse" x1="-1516.8119" y1="39.1254" x2="-1531.9653" y2="59.1723" gradientTransform="matrix(-1 0 0 1 -1269.1969 0)">
						<stop  offset="0" style="stop-color:#FEBBBA"/>
						<stop  offset="1" style="stop-color:#FF928E"/>
					</linearGradient>
					<path class="st36" d="M244.64,39.04c0,0.2,4.46,12.63,4.46,12.63l7.04-2.7l-2.48-12.41C253.67,36.56,244.64,35.69,244.64,39.04
						z"/>
					
						<linearGradient id="SVGID_18_" gradientUnits="userSpaceOnUse" x1="-1528.3849" y1="43.9612" x2="-1510.2838" y2="43.9612" gradientTransform="matrix(-1 0 0 1 -1269.1969 0)">
						<stop  offset="0" style="stop-color:#09005D"/>
						<stop  offset="1" style="stop-color:#1A0F91"/>
					</linearGradient>
					<path class="st37" d="M252.43,39.58l1.82,6.43c0.02,0.08,0.04,0.17,0.04,0.25c0,0.52-0.13,2.33-1.97,2.08
						c-1.67-0.22-3.19-0.4-4.16,0.06c-0.44,0.21-0.64,0.71-0.48,1.16c0.41,1.13,1.37,3.66,2.54,5.73c0.24,0.42,0.76,0.58,1.2,0.38
						c1.32-0.6,4.08-1.95,6.04-3.55c0.27-0.22,0.39-0.56,0.33-0.9c-0.31-1.65-1.23-6.65-1.27-8.08c-0.04-1.35,1.47-2.37,2.14-2.76
						c0.22-0.13,0.37-0.34,0.43-0.58c0.21-0.87,0.39-2.83-2.12-3.26c-0.52-0.09-0.86-0.59-0.76-1.11c0.21-1.04,0.14-2.56-1.82-3.12
						c-2-0.57-3.26,0.63-3.9,1.56c-0.26,0.37-0.74,0.49-1.16,0.31c-0.24-0.11-0.52-0.11-0.83,0.15c-0.41,0.35-1.04,0.24-1.35-0.2
						c-0.58-0.86-1.64-1.72-3.44-1.13c-3.18,1.03-3.03,4.7-1.86,6.69c1.17,1.99,4.55,0.68,6.16-0.64c1.22-1.01,3.08-0.4,3.9-0.06
						C252.16,39.09,252.36,39.31,252.43,39.58z"/>
					
						<linearGradient id="SVGID_19_" gradientUnits="userSpaceOnUse" x1="-1539.0057" y1="55.0009" x2="-1526.8516" y2="42.5309" gradientTransform="matrix(-1 0 0 1 -1269.1969 0)">
						<stop  offset="0" style="stop-color:#FEBBBA"/>
						<stop  offset="1" style="stop-color:#FF928E"/>
					</linearGradient>
					<path class="st38" d="M257.15,45.49c0,0-1.88-3.56-0.64-4.68c1.25-1.12,3.36-0.94,3.3,1.85
						C259.74,46.13,257.15,45.49,257.15,45.49z"/>
				</g>
			</g>
			<linearGradient id="SVGID_20_" gradientUnits="userSpaceOnUse" x1="286.9835" y1="47.9285" x2="280.6347" y2="59.039">
				<stop  offset="0" style="stop-color:#E1473D"/>
				<stop  offset="1" style="stop-color:#E9605A"/>
			</linearGradient>
			<path class="st39" d="M268.44,93.68c1.03,0,1.76-0.08,1.84-0.09l0.13-0.01l5.48-25.57c0.02-0.1-0.04-0.2-0.14-0.22
				c-0.1-0.02-0.2,0.04-0.22,0.14l-5.43,25.3c-0.82,0.07-5.17,0.36-7.48-1.27l4.75-22.21l-0.99-1.87c-0.05-0.09-0.16-0.13-0.25-0.08
				c-0.09,0.05-0.13,0.16-0.08,0.25l0.93,1.75l-4.77,22.32l0.1,0.07C263.97,93.45,266.65,93.68,268.44,93.68z"/>
		</g>
		<g>
			<path class="st16" d="M261.34,178.54c0.14,0,0.29-0.03,0.43-0.1c0.55-0.26,0.8-0.95,0.57-1.55l-22.65-57.47
				c-0.24-0.6-0.87-0.87-1.42-0.62c-0.55,0.26-0.8,0.95-0.57,1.55l22.65,57.47C260.53,178.27,260.93,178.54,261.34,178.54z"/>
			<path class="st16" d="M235.83,178.54c0.42,0,0.82-0.27,0.99-0.71l22.65-57.47c0.24-0.6-0.02-1.29-0.57-1.55
				c-0.55-0.26-1.18,0.02-1.42,0.62l-22.65,57.47c-0.24,0.6,0.02,1.29,0.57,1.55C235.54,178.51,235.68,178.54,235.83,178.54z"/>
			<path class="st16" d="M164.93,178.54c0.14,0,0.29-0.03,0.43-0.1c0.55-0.26,0.8-0.95,0.57-1.55l-22.65-57.47
				c-0.24-0.6-0.87-0.87-1.42-0.62c-0.55,0.26-0.8,0.95-0.57,1.55l22.65,57.47C164.11,178.27,164.51,178.54,164.93,178.54z"/>
			<path class="st16" d="M139.41,178.54c0.42,0,0.82-0.27,0.99-0.71l22.65-57.47c0.24-0.6-0.02-1.29-0.57-1.55
				c-0.55-0.26-1.18,0.02-1.42,0.62l-22.65,57.47c-0.24,0.6,0.02,1.29,0.57,1.55C139.12,178.51,139.27,178.54,139.41,178.54z"/>
		</g>
		<g>
			<rect x="177.44" y="139.81" class="st16" width="2.68" height="28.96"/>
			<path class="st16" d="M167.05,169.33h23.46v-0.78c0-0.53-0.43-0.97-0.97-0.97h-21.52c-0.53,0-0.97,0.43-0.97,0.97V169.33z"/>
			<path class="st16" d="M163.57,138.8c0,1.58,1.3,2.88,2.88,2.88h23.73c1.58,0,2.88-1.3,2.88-2.88v-2.6c0-1.58-1.3-2.88-2.88-2.88
				h-23.73c-1.58,0-2.88,1.3-2.88,2.88V138.8z"/>
		</g>
		<g>
			<linearGradient id="SVGID_21_" gradientUnits="userSpaceOnUse" x1="238.4889" y1="111.3911" x2="187.6985" y2="154.657">
				<stop  offset="0" style="stop-color:#FEBBBA"/>
				<stop  offset="1" style="stop-color:#FF928E"/>
			</linearGradient>
			<path class="st40" d="M198.55,120.5c0,0,3.98,0.62,8.45,3.61c0.7,0.47,1.09,1.29,0.98,2.13c-0.54,4.24-2.74,17.98-10,31.4
				c-0.38,0.71-0.49,1.53-0.32,2.32l1.26,5.87l2.34,2.19h-6.03l-4.01-10.86l1.72-0.54c1.33-0.42,2.24-1.64,2.27-3.04l0.2-11.65
				c-0.17-5.19,3.18-8.77,3.18-8.77l-9.63-0.47L198.55,120.5z"/>
			
				<linearGradient id="SVGID_22_" gradientUnits="userSpaceOnUse" x1="-1465.5514" y1="156.6651" x2="-1468.3522" y2="199.6109" gradientTransform="matrix(-1 0 0 1 -1269.1969 0)">
				<stop  offset="0" style="stop-color:#4F52FF"/>
				<stop  offset="1" style="stop-color:#4042E2"/>
			</linearGradient>
			<path class="st41" d="M203.62,169.08c0.55,0.72-5.91,1.67-9.17,0.1c0,0-4.52-7.87-4.52-11.92c0,0,0.36-0.83,3.01-0.64
				c0,0,1.52,9.32,3.12,10.36c1.6,1.04,4.49,0.11,4.49,0.11S202.81,168.02,203.62,169.08z"/>
			<linearGradient id="SVGID_23_" gradientUnits="userSpaceOnUse" x1="208.5386" y1="145.2959" x2="245.4557" y2="166.4586">
				<stop  offset="0" style="stop-color:#FEBBBA"/>
				<stop  offset="1" style="stop-color:#FF928E"/>
			</linearGradient>
			<path class="st42" d="M190.18,133.32c0.05-0.09,10.37-1.24,10.37-1.24s-0.34,3.14,0.72,7.45c1.05,4.32,16.2,23.02,16.2,23.02
				l-1.59,5.03c4.91,1.71,9.74,1.98,14.49,0.87l-9.84-5.91c0,0-9.21-31.38-14.85-36.98l-10.34-3.58L190.18,133.32z"/>
			<linearGradient id="SVGID_24_" gradientUnits="userSpaceOnUse" x1="204.6096" y1="78.2954" x2="201.3176" y2="85.3496">
				<stop  offset="0" style="stop-color:#E1473D"/>
				<stop  offset="1" style="stop-color:#E9605A"/>
			</linearGradient>
			<path class="st43" d="M167.05,115.06c0,0-5.94,8.84-6.43,12.87c-0.49,4.03,1.63,5.67,7.86,5.94c6.24,0.27,22.88,0.27,22.88,0.27
				l14.21-12.14c0,0-10.35-3.69-13.04-4.74C189.83,116.21,167.05,115.06,167.05,115.06z"/>
			
				<linearGradient id="SVGID_25_" gradientUnits="userSpaceOnUse" x1="-1492.5789" y1="154.9025" x2="-1495.3798" y2="197.8482" gradientTransform="matrix(-1 0 0 1 -1269.1969 0)">
				<stop  offset="0" style="stop-color:#4F52FF"/>
				<stop  offset="1" style="stop-color:#4042E2"/>
			</linearGradient>
			<path class="st44" d="M216.47,165.89c0,0-1.71,1.66-0.55,3.5c0,0,13.54,2.4,17.22,1.31c0,0-0.76-1.74-4.9-3.73l0.31,0.23
				c0.39,0.3,0.16,0.91-0.33,0.89C225.49,167.94,219.84,167.44,216.47,165.89z"/>
		</g>
		<g>
			<linearGradient id="SVGID_26_" gradientUnits="userSpaceOnUse" x1="183.7633" y1="73.3631" x2="212.333" y2="44.4407">
				<stop  offset="0" style="stop-color:#E1473D"/>
				<stop  offset="1" style="stop-color:#E9605A"/>
			</linearGradient>
			<path class="st45" d="M179.06,65.41c-0.9,0.28-4.13,1.44-3.72,3.52c0.06,0.28-0.2,0.51-0.48,0.44c-1.39-0.38-4.48-0.85-6.39,1.54
				c-1.69,2.11-0.43,4.11,0.6,5.2c0.25,0.26,0.04,0.69-0.32,0.65c-2.56-0.32-8.14-0.4-9.05,4.82c-0.85,4.87,2.54,6.24,4.55,6.63
				c0.34,0.07,0.42,0.51,0.13,0.7c-1,0.64-2.16,1.95-1.69,4.54c0.74,4.06,8.7,3.73,9.63,3.68c0.06,0,0.11-0.02,0.17-0.05l12.76-7.28
				c0.1-0.06,0.17-0.15,0.19-0.27l2.58-14.88c0.02-0.12-0.02-0.24-0.1-0.33l-8.47-8.81C179.35,65.4,179.2,65.36,179.06,65.41z"/>
			
				<linearGradient id="SVGID_27_" gradientUnits="userSpaceOnUse" x1="-1454.942" y1="87.3214" x2="-1433.5902" y2="133.7929" gradientTransform="matrix(-1 0 0 1 -1269.1969 0)">
				<stop  offset="0" style="stop-color:#FF928E"/>
				<stop  offset="1" style="stop-color:#FE7062"/>
			</linearGradient>
			<path class="st46" d="M183.12,113.89c0,0,6.92-6.59,10.33-10.95c1.84-2.36,2.42-5.46,1.57-8.33c-1.56-5.24-4.32-10.67-4.57-11.51
				c-0.39-1.29-8.15-1.24-8.15-1.24s-15.27,9.91-21.27,26.69l6.74,2.1c0,0,3.99-6.69,7.93-10.94c0,0-6.82,9-7.06,12.69
				L183.12,113.89z"/>
			
				<linearGradient id="SVGID_28_" gradientUnits="userSpaceOnUse" x1="-1454.4274" y1="90.4078" x2="-1456.4373" y2="77.5111" gradientTransform="matrix(-1 0 0 1 -1269.1969 0)">
				<stop  offset="0" style="stop-color:#FEBBBA"/>
				<stop  offset="1" style="stop-color:#FF928E"/>
			</linearGradient>
			<path class="st47" d="M191.38,75.86c-0.08,0.27-2.11,6.98-2.26,7.12c-0.16,0.14-4.44,0.37-6.46-1.01l3.42-7.16L191.38,75.86z"/>
			<g>
				
					<linearGradient id="SVGID_29_" gradientUnits="userSpaceOnUse" x1="-1463.1145" y1="66.1027" x2="-1445.3606" y2="78.1619" gradientTransform="matrix(-1 0 0 1 -1269.1969 0)">
					<stop  offset="0" style="stop-color:#FEBBBA"/>
					<stop  offset="1" style="stop-color:#FF928E"/>
				</linearGradient>
				<path class="st48" d="M188.06,61.75c0,0,3.66,1.54,6.14,6.83c2.49,5.28,0.63,7.72-1.7,8.06c-2.33,0.33-5.82,0.28-9.51-3.13
					C179.3,70.1,183.3,59.92,188.06,61.75z"/>
				<linearGradient id="SVGID_30_" gradientUnits="userSpaceOnUse" x1="179.8503" y1="69.4978" x2="208.42" y2="40.5755">
					<stop  offset="0" style="stop-color:#E1473D"/>
					<stop  offset="1" style="stop-color:#E9605A"/>
				</linearGradient>
				<path class="st49" d="M185.47,70.69c0,0-2.76-7.73,4.09-7.82l1.61,1.13c0,0,2.51-4.29-1.61-6.33c-4.13-2.05-8.96-0.36-10.71,5.2
					c-1.76,5.56-2.06,9.28,0.87,11.94c2.92,2.66,4.13-0.36,4.13-0.36s-1.59-2.49-0.94-3.82c0.65-1.33,2.14,0.28,2.14,0.28
					L185.47,70.69z"/>
				
					<linearGradient id="SVGID_31_" gradientUnits="userSpaceOnUse" x1="-1464.4763" y1="63.7863" x2="-1443.9182" y2="77.7503" gradientTransform="matrix(-1 0 0 1 -1269.1969 0)">
					<stop  offset="0" style="stop-color:#FEBBBA"/>
					<stop  offset="1" style="stop-color:#FF928E"/>
				</linearGradient>
				<path class="st50" d="M185.76,71.73c0,0-1.36-3.93-3.26-2.4c-2.47,2,1.12,3.94,2.83,4.36L185.76,71.73z"/>
			</g>
			
				<linearGradient id="SVGID_32_" gradientUnits="userSpaceOnUse" x1="-1442.8888" y1="112.7384" x2="-1405.1416" y2="112.7384" gradientTransform="matrix(-1 0 0 1 -1269.1969 0)">
				<stop  offset="0" style="stop-color:#FEBBBA"/>
				<stop  offset="1" style="stop-color:#FF928E"/>
			</linearGradient>
			<path class="st51" d="M197.22,114.38l-5.08-4.9l-7.03,2.97c0,0-7,1.08-11.01,0c-4.01-1.08-4.01-1.08-4.01-1.08l-9.05-2.82
				l-1.42,4.02c-0.36,1.02,0,2.15,0.88,2.78c0.78,0.56,1.7,1.17,2.29,1.42c1.19,0.52,29.39-0.36,29.39-0.36L197.22,114.38z"/>
		</g>
		<g>
			<linearGradient id="SVGID_33_" gradientUnits="userSpaceOnUse" x1="193.6964" y1="86.3847" x2="192.7558" y2="116.4827">
				<stop  offset="0" style="stop-color:#4F52FF"/>
				<stop  offset="1" style="stop-color:#4042E2"/>
			</linearGradient>
			<path class="st52" d="M177.98,116.69c0.02,0,0.05,0,0.07,0l29.49-0.03c0.73,0,1.32-0.59,1.32-1.32c0-0.73-0.59-1.33-1.32-1.32
				l-29.49,0.03c-0.73,0-1.32,0.59-1.32,1.32C176.73,116.08,177.28,116.65,177.98,116.69z"/>
			<linearGradient id="SVGID_34_" gradientUnits="userSpaceOnUse" x1="215.4958" y1="87.0659" x2="214.5553" y2="117.1639">
				<stop  offset="0" style="stop-color:#4F52FF"/>
				<stop  offset="1" style="stop-color:#4042E2"/>
			</linearGradient>
			<path class="st53" d="M234.05,89.91h-24.56c-1.81,0-3.46,1.05-4.23,2.68l-11.35,24.08h30.52c1.17,0,2.22-0.71,2.65-1.8
				l8.81-22.28C236.38,91.31,235.44,89.91,234.05,89.91z"/>
			<path class="st16" d="M216.75,102.25c-0.53,1.65-0.14,3.26,0.88,3.59c1.02,0.33,2.27-0.75,2.81-2.4
				c0.53-1.65,0.14-3.26-0.88-3.59C218.54,99.53,217.28,100.6,216.75,102.25z"/>
		</g>
		<g>
			<path class="st10" d="M237.13,115.75l29.03,0v-3l-29.03,0C237.75,112.75,237.75,115.75,237.13,115.75z"/>
			<linearGradient id="SVGID_35_" gradientUnits="userSpaceOnUse" x1="256.5659" y1="65.4765" x2="254.6923" y2="88.6634">
				<stop  offset="0" style="stop-color:#E1473D"/>
				<stop  offset="1" style="stop-color:#E9605A"/>
			</linearGradient>
			<path class="st54" d="M265.8,115.75c0.19,0,0.35-0.16,0.35-0.35v-2.29c0-0.19-0.16-0.35-0.35-0.35H236.6
				c-0.19,0-0.35-0.15-0.35-0.34s0.16-0.34,0.35-0.34h31.22c0.69,0,1.25,0.56,1.25,1.25v1.91c0,0.65-0.53,1.18-1.18,1.18H236.6
				c-0.19,0-0.35-0.15-0.35-0.34c0-0.19,0.16-0.34,0.35-0.34H265.8z"/>
		</g>
		<path class="st16" d="M136.76,117.76c-0.07-0.33,0.03-0.68,0.28-0.94c0.25-0.26,0.62-0.41,1.01-0.41h132.83
			c0.52,0,1,0.23,1.27,0.61c0.28,0.38,0.32,0.85,0.1,1.26l-1.44,2.71c-0.33,0.62-1.04,1.02-1.83,1.02H138.96
			c-0.73,0-1.36-0.45-1.5-1.07L136.76,117.76z"/>
	</g>
	<g>
		<path class="st55" d="M153.21,116.35c0,0.11-0.09,0.21-0.21,0.21h-8.08c-0.11,0-0.21-0.09-0.21-0.21l-0.41-9.77
			c0-0.11,0.09-0.21,0.21-0.21h8.9c0.11,0,0.21,0.09,0.21,0.21L153.21,116.35z"/>
		<path class="st56" d="M143.72,97.98c0,0-0.84,0.92-2.52-0.98c0,0,2.19-0.43,2.57,0.86L143.72,97.98z"/>
		<path class="st56" d="M143.81,97.85c0,0,1.25,0.01,1-2.52c0,0-1.81,1.31-1.12,2.47L143.81,97.85z"/>
		<path class="st57" d="M148.86,91.87c0,0-1.15,0.5-1.89-1.94c0,0,2.18,0.51,1.99,1.84L148.86,91.87z"/>
		<path class="st57" d="M149.07,91.71c0,0,1.13,0.53,1.95-1.89c0,0-2.19,0.45-2.04,1.79L149.07,91.71z"/>
		<path class="st57" d="M148.82,93.92c0,0-1.22,0.53-2.01-2.06c0,0,2.31,0.54,2.12,1.96L148.82,93.92z"/>
		<path class="st57" d="M149.05,93.75c0,0,1.2,0.56,2.07-2c0,0-2.33,0.48-2.17,1.9L149.05,93.75z"/>
		<path class="st57" d="M148.79,96.25c0,0-1.35,0.58-2.23-2.28c0,0,2.56,0.6,2.34,2.16L148.79,96.25z"/>
		<path class="st57" d="M149.03,96.06c0,0,1.33,0.62,2.29-2.22c0,0-2.58,0.53-2.4,2.1L149.03,96.06z"/>
		<path class="st57" d="M148.79,98.7c0,0-1.35,0.59-2.23-2.28c0,0,2.57,0.6,2.35,2.17L148.79,98.7z"/>
		<path class="st57" d="M149.03,98.52c0,0,1.33,0.62,2.29-2.22c0,0-2.58,0.53-2.41,2.11L149.03,98.52z"/>
		<path class="st57" d="M148.57,100.54c0,0-0.97,0.42-1.6-1.64c0,0,1.84,0.43,1.69,1.56L148.57,100.54z"/>
		<path class="st57" d="M148.76,100.46c0,0,0.89,0.57,1.84-1.36c0,0-1.89,0.13-1.91,1.27L148.76,100.46z"/>
		<path class="st57" d="M148.64,102.04c0,0,0.73,0.47,1.52-1.12c0,0-1.55,0.11-1.57,1.04L148.64,102.04z"/>
		<path class="st57" d="M148.61,102.04c0,0-0.73,0.47-1.52-1.12c0,0,1.55,0.11,1.57,1.04L148.61,102.04z"/>
		<path class="st56" d="M144.59,99.94c0,0-0.96,1.06-2.9-1.13c0,0,2.52-0.5,2.96,0.98L144.59,99.94z"/>
		<path class="st56" d="M144.7,99.79c0,0,1.43,0.02,1.14-2.9c0,0-2.08,1.51-1.29,2.84L144.7,99.79z"/>
		<path class="st56" d="M145.37,102.04c0,0-1.08,1.19-3.24-1.26c0,0,2.82-0.56,3.31,1.1L145.37,102.04z"/>
		<path class="st56" d="M145.49,101.87c0,0,1.6,0.02,1.28-3.24c0,0-2.32,1.69-1.44,3.17L145.49,101.87z"/>
		<path class="st56" d="M146.05,104.48c0,0-1.17,1.1-3.13-1.52c0,0,2.85-0.33,3.21,1.36L146.05,104.48z"/>
		<path class="st56" d="M146.18,104.32c0,0,1.6,0.14,1.53-3.13c0,0-2.45,1.5-1.69,3.05L146.18,104.32z"/>
		<g>
			<path class="st7" d="M153.43,98.44c0,0,0.88,0.89,2.48-1.09c0,0-2.21-0.34-2.54,0.96L153.43,98.44z"/>
			<path class="st7" d="M153.33,98.31c0,0-1.25,0.07-1.1-2.48c0,0,1.86,1.24,1.23,2.42L153.33,98.31z"/>
			<path class="st7" d="M152.64,100.43c0,0,1.01,1.02,2.85-1.25c0,0-2.54-0.39-2.91,1.11L152.64,100.43z"/>
			<path class="st7" d="M152.53,100.28c0,0-1.43,0.08-1.26-2.84c0,0,2.14,1.42,1.41,2.78L152.53,100.28z"/>
			<path class="st7" d="M151.96,102.56c0,0,1.13,1.14,3.19-1.4c0,0-2.84-0.44-3.26,1.24L151.96,102.56z"/>
			<path class="st7" d="M151.83,102.4c0,0-1.6,0.08-1.41-3.18c0,0,2.39,1.59,1.57,3.11L151.83,102.4z"/>
			<path class="st7" d="M151.38,105.03c0,0,1.21,1.05,3.07-1.65c0,0-2.86-0.21-3.15,1.49L151.38,105.03z"/>
			<path class="st7" d="M151.24,104.88c0,0-1.59,0.21-1.66-3.06c0,0,2.51,1.39,1.82,2.97L151.24,104.88z"/>
			<path class="st8" d="M150.57,108.55c0,0,0.45-4.81,3.46-11.75"/>
			<path class="st7" d="M153.88,96.85c0,0-0.82-0.95,1.28-2.39c0,0,0.16,2.23-1.16,2.45L153.88,96.85z"/>
		</g>
		<path class="st8" d="M148.13,108.17c0,0,1.22-14.03,0.71-18.04"/>
		<path class="st57" d="M148.86,90.23c0,0,1.11-0.57-0.3-2.69c0,0-0.98,2.01,0.16,2.71L148.86,90.23z"/>
		<path class="st8" d="M147.01,107.96c0,0-0.65-4.79-3.95-11.59"/>
	</g>
</g>
</svg>
