<?xml version="1.0" encoding="utf-8"?>
<!-- Generator: Adobe Illustrator 16.0.0, SVG Export Plug-In . SVG Version: 6.00 Build 0)  -->
<!DOCTYPE svg PUBLIC "-//W3C//DTD SVG 1.1//EN" "http://www.w3.org/Graphics/SVG/1.1/DTD/svg11.dtd">
<svg version="1.1" id="Layer_1" xmlns="http://www.w3.org/2000/svg" xmlns:xlink="http://www.w3.org/1999/xlink" x="0px" y="0px"
	 width="295px" height="132px" viewBox="0 29.5 295 132" enable-background="new 0 29.5 295 132" xml:space="preserve">
<g>
	<path fill="#282828" d="M145.831,48.212c3.005-1.806,6.517-2.577,9.983-2.819c5.31-0.338,10.631,0.391,15.803,1.565
		c8.363,1.718,16.837,2.974,25.365,3.459c4.432,0.244,8.886,0.261,13.304-0.205c0.211-0.018,0.43-0.028,0.647-0.033
		c-0.929,0.628-2.047,0.884-3.109,1.183c-4.278,1.025-8.708,1.083-13.08,1.017c-8.419-0.255-16.775-1.48-25.044-3.027
		c-4.642-0.96-9.429-1.311-14.151-0.843c-3.063,0.335-6.178,1.082-8.766,2.823c-1.804,1.207-3.209,3.014-3.839,5.097
		c-0.56,1.706-0.588,3.527-0.452,5.302c-1.153,0.053-2.308,0.079-3.461,0.079c-0.177-2.716,0.345-5.484,1.54-7.931
		C141.729,51.533,143.584,49.552,145.831,48.212z"/>
	<path fill="#282828" d="M76.811,129.135c1.395-0.328,2.956-0.152,4.136,0.699c0.795,0.548,1.497,1.449,1.424,2.46
		c-0.083,0.685-0.968,1.011-1.488,0.577c-0.41-0.439-0.601-1.043-1.026-1.475c-0.771-0.854-2.163-0.926-3.114-0.342
		c-0.847,0.533-1.268,1.541-1.368,2.506c-0.105,1.16-0.08,2.438,0.612,3.43c0.887,1.287,3.036,1.357,4.014,0.143
		c0.349-0.421,0.483-0.964,0.746-1.435c0.364-0.7,1.593-0.39,1.655,0.385c0.056,1.183-0.704,2.263-1.649,2.903
		c-1.141,0.775-2.605,0.813-3.92,0.592c-1.149-0.195-2.168-0.922-2.778-1.905c-0.948-1.506-1.072-3.412-0.669-5.112
		C73.785,130.9,75.136,129.514,76.811,129.135z"/>
	<g>
		<path fill="#282828" d="M133.071,129.18c0.778-0.455,1.912-0.13,2.225,0.75c1.046,2.567,2.076,5.143,3.122,7.707
			c0.146,0.394,0.327,0.801,0.289,1.23c-0.105,0.648-0.907,1.033-1.485,0.73c-0.275-0.146-0.42-0.437-0.543-0.705
			c-0.264-0.596-0.485-1.209-0.71-1.817c-1.362-0.033-2.727-0.044-4.084-0.005c-0.534,0.718-0.56,1.734-1.156,2.433
			c-0.585,0.49-1.644,0.013-1.631-0.769c0.059-0.598,0.342-1.137,0.549-1.689c0.812-2.066,1.633-4.131,2.438-6.199
			C132.329,130.252,132.502,129.553,133.071,129.18z M132.383,135.441c0.987,0.011,1.976,0.012,2.965-0.002
			c-0.457-1.383-0.967-2.746-1.489-4.104C133.323,132.688,132.843,134.063,132.383,135.441z"/>
	</g>
	<path fill="#282828" d="M165.688,129.079c0.437-0.172,1.039-0.127,1.326,0.287c0.231,0.304,0.207,0.708,0.223,1.069
		c-0.002,2.61-0.002,5.225,0.004,7.834c-0.016,0.357-0.006,0.76-0.24,1.057c-0.395,0.494-1.248,0.494-1.641,0
		c-0.238-0.297-0.229-0.699-0.241-1.059c0.009-2.664,0-5.326,0.005-7.99C165.104,129.82,165.229,129.281,165.688,129.079z"/>
	<g>
		<path fill="#282828" d="M181.189,129.139c1.64-0.345,3.514-0.17,4.851,0.924c1.048,0.846,1.562,2.188,1.675,3.502
			c0.113,1.459-0.064,3.027-0.943,4.248c-0.682,0.994-1.814,1.619-2.994,1.797c-1.448,0.218-3.039,0.045-4.252-0.838
			c-1.115-0.799-1.699-2.146-1.865-3.477c-0.164-1.375-0.021-2.839,0.674-4.061C178.92,130.157,180.004,129.411,181.189,129.139z
			 M181.807,130.805c-1.137,0.312-1.813,1.439-1.975,2.547c-0.193,1.263-0.063,2.689,0.771,3.711
			c0.914,1.125,2.748,1.236,3.834,0.304c0.732-0.63,1.065-1.605,1.133-2.546c0.07-1.066-0.062-2.223-0.725-3.1
			C184.165,130.807,182.874,130.469,181.807,130.805z"/>
	</g>
	<path fill="#282828" d="M198.377,129.391c0.463-0.57,1.46-0.541,1.891,0.057c1.525,2.217,2.918,4.529,4.496,6.712
		c0.084-2.104-0.019-4.213,0.047-6.316c-0.009-0.768,0.98-1.108,1.539-0.679c0.381,0.297,0.39,0.822,0.402,1.266
		c-0.01,2.615,0,5.231-0.006,7.846c-0.018,0.461-0.082,1.037-0.539,1.277c-0.654,0.35-1.493,0.059-1.883-0.549
		c-1.469-2.105-2.786-4.314-4.249-6.424c-0.056,2.052,0.024,4.104-0.036,6.152c0.012,0.672-0.727,1.158-1.342,0.906
		c-0.508-0.158-0.656-0.736-0.635-1.207c0-2.615,0.006-5.229-0.004-7.846C198.064,130.172,198.075,129.71,198.377,129.391z"/>
	<path fill="#282828" d="M219.838,129.132c1.296-0.259,2.75-0.25,3.905,0.472c0.705,0.434,1.28,1.213,1.198,2.076
		c-0.056,0.665-0.907,1.078-1.457,0.686c-0.475-0.479-0.625-1.221-1.215-1.598c-0.508-0.306-1.137-0.287-1.703-0.211
		c-0.571,0.094-1.211,0.5-1.226,1.137c-0.026,0.592,0.57,0.926,1.056,1.104c1.347,0.456,2.861,0.561,4.035,1.438
		c1.402,1.084,1.248,3.457-0.099,4.526c-1.229,0.996-2.942,1.078-4.435,0.794c-1.383-0.259-2.635-1.416-2.744-2.855
		c-0.076-0.647,0.637-1.186,1.238-0.958c0.547,0.183,0.658,0.825,0.92,1.271c0.59,1.371,2.619,1.426,3.617,0.498
		c0.633-0.578,0.404-1.699-0.375-2.023c-1.378-0.611-3.012-0.607-4.246-1.545c-1.086-0.815-1.252-2.5-0.488-3.582
		C218.286,129.686,219.063,129.305,219.838,129.132z"/>
	<g>
		<path fill="#282828" d="M93.109,129.434c0.455-0.369,1.088-0.267,1.633-0.287c1.346,0.035,2.701-0.071,4.044,0.084
			c1.09,0.127,2.089,0.934,2.339,2.02c0.173,0.868,0.107,1.875-0.507,2.566c-0.473,0.565-1.2,0.797-1.873,1.029
			c1.097,0.879,1.928,2.062,2.476,3.351c0.102,0.308,0.271,0.661,0.087,0.976c-0.321,0.669-1.375,0.688-1.804,0.123
			c-0.911-1.156-1.42-2.598-2.443-3.669c-0.55-0.596-1.421-0.535-2.159-0.531c-0.032,1.214,0.037,2.427-0.03,3.638
			c-0.004,0.562-0.513,1.017-1.07,0.961c-0.607,0.049-1.056-0.539-1.01-1.109c-0.017-2.663,0.004-5.326-0.011-7.986
			C92.787,130.191,92.768,129.714,93.109,129.434z M94.899,130.757c-0.005,0.937-0.005,1.873,0,2.81
			c0.87-0.008,1.742,0.045,2.608-0.041c0.512-0.057,1.082-0.207,1.378-0.668c0.423-0.723,0.044-1.801-0.804-1.984
			C97.034,130.675,95.958,130.773,94.899,130.757z"/>
	</g>
	<path fill="#282828" d="M112.028,129.424c0.367-0.303,0.884-0.261,1.333-0.277c1.775,0.021,3.552-0.029,5.327,0.021
		c0.685-0.065,1.059,0.812,0.681,1.322c-0.225,0.313-0.65,0.294-0.992,0.308c-1.512-0.005-3.024-0.001-4.534-0.008
		c-0.019,0.833-0.015,1.667-0.006,2.5c1.502,0.036,3.006-0.031,4.507,0.025c0.613-0.021,0.972,0.713,0.667,1.217
		c-0.22,0.384-0.71,0.39-1.098,0.406c-1.36,0.012-2.718-0.016-4.076,0.008c-0.009,0.961-0.009,1.922,0.001,2.88
		c1.711,0.036,3.422-0.026,5.132,0.026c0.566,0.008,0.886,0.699,0.645,1.174c-0.153,0.443-0.676,0.498-1.074,0.494
		c-1.781-0.002-3.562-0.009-5.341,0c-0.393-0.006-0.827,0.006-1.152-0.246c-0.332-0.281-0.356-0.752-0.366-1.156
		c0-2.457,0.004-4.914-0.003-7.374C111.69,130.292,111.664,129.759,112.028,129.424z"/>
	<path fill="#282828" d="M146.943,129.27c0.417-0.162,0.878-0.117,1.317-0.123c2.035,0.021,4.073-0.027,6.107,0.021
		c0.408-0.006,0.849,0.241,0.908,0.678c0.131,0.489-0.239,1.036-0.758,1.048c-0.865,0.055-1.729-0.012-2.595,0.037
		c0.027,2.443,0.002,4.891,0.017,7.336c-0.002,0.463-0.041,1.051-0.508,1.289c-0.629,0.393-1.596-0.041-1.588-0.822
		c-0.051-2.604-0.001-5.213-0.021-7.821c-0.883-0.025-1.766,0.044-2.645-0.027C146.38,130.839,146.233,129.557,146.943,129.27z"/>
</g>
<g>
	<path fill="#FFB000" d="M128.843,68.766c2.888-2.502,6.563-4.098,10.376-4.411c0.001,3.764,0.021,7.528-0.009,11.292l-0.071,0.114
		c-1.928,0.515-3.637,1.842-4.522,3.639c-0.541,1.015-0.756,2.17-0.766,3.313c-3.778-0.003-7.558,0-11.337-0.003
		C122.473,77.434,124.837,72.201,128.843,68.766z"/>
</g>
<g>
	<path fill="#00C9FF" d="M142.437,64.35c5.816,0.382,11.305,3.815,14.269,8.822c1.745,2.855,2.618,6.192,2.64,9.53
		c-3.847,0.023-7.695,0.001-11.543,0.011c0.03-1.751-0.599-3.505-1.777-4.806c-0.917-1.055-2.171-1.773-3.509-2.146l-0.072-0.114
		C142.415,71.882,142.433,68.115,142.437,64.35z"/>
</g>
<g>
	<path fill="#00293F" d="M35.212,65.459c0.798-0.119,1.605-0.176,2.413-0.197c8.764-0.01,17.526,0.011,26.289-0.01
		c0.089,2.896,0.014,5.796,0.038,8.695c-0.003,0.812,0.028,1.626-0.039,2.437c-8.137-0.022-16.274-0.005-24.413-0.01
		c-0.867,0.024-1.754-0.095-2.601,0.147c-1.664,0.44-3.106,1.613-3.904,3.133c-0.728,1.409-0.837,3.103-0.38,4.612
		c0.478,1.577,1.686,2.858,3.121,3.624c0.632,0.315,1.315,0.592,2.035,0.575c4.228-0.008,8.457,0,12.687-0.005
		c1.265,0.002,2.533,0.086,3.775,0.344c3.075,0.612,5.902,2.196,8.213,4.288c0.64,0.528,1.015,1.282,1.558,1.897
		c2.365,2.986,3.721,6.759,3.784,10.567c-0.047,3.026-0.903,6.028-2.442,8.637c-0.676,1.211-1.604,2.248-2.41,3.369
		c-2.114,2.106-4.737,3.748-7.61,4.59c-2.646,0.793-5.43,0.598-8.156,0.619c-7.51-0.002-15.021,0.004-22.533-0.002
		c-0.003-3.701-0.003-7.405,0-11.106c8.294-0.004,16.588-0.002,24.882,0c0.697-0.011,1.409,0.058,2.09-0.126
		c1.705-0.428,3.182-1.62,3.996-3.174c0.563-1.094,0.748-2.362,0.591-3.578c-0.332-3.018-3.36-5.422-6.366-5.137
		c-4.12,0.006-8.24,0.002-12.36,0.002c-2.875-0.021-5.721-0.855-8.168-2.36c-1.61-0.989-3.168-2.14-4.325-3.651
		c-2.308-2.705-3.829-6.116-4.111-9.673c-0.244-2.801,0.183-5.671,1.332-8.244c0.892-2.083,2.232-3.952,3.795-5.585
		C28.532,67.752,31.736,65.974,35.212,65.459z"/>
	<path fill="#00293F" d="M72.332,65.188c3.911-0.002,7.821-0.015,11.731,0.005c0.003,3.949-0.028,7.896,0.016,11.845
		c9.364,0.006,18.73-0.015,28.095,0.011c0.013,3.911,0.044,7.821-0.017,11.73c-9.362-0.006-18.725-0.014-28.089,0.005
		c-0.023,3.713,0.001,7.427-0.011,11.14c-0.038,3.11,1.344,6.198,3.659,8.271c1.806,1.601,4.133,2.615,6.542,2.802
		c2.667,0.233,5.39-0.558,7.545-2.134c2.82-2.047,4.507-5.497,4.5-8.971c3.905-0.009,7.814-0.027,11.721,0.012
		c0.072,5.851-2.291,11.656-6.347,15.857c-3.658,3.826-8.689,6.327-13.959,6.868c-3.611,0.38-7.33-0.03-10.724-1.348
		c-4.297-1.646-8.089-4.597-10.679-8.404c-2.538-3.698-3.984-8.147-3.992-12.642C72.33,88.554,72.312,76.871,72.332,65.188z"/>
	<g>
		<path fill="#00293F" d="M197.398,65.186c3.912-0.003,7.822-0.003,11.733,0c0.007,10.172,0,20.342,0.002,30.514
			c-0.028,3.095,0.181,6.233-0.543,9.274c-1.108,4.942-3.921,9.489-7.854,12.68c-2.391,1.937-5.17,3.393-8.125,4.246
			c-5.538,1.549-11.691,1.045-16.801-1.651c-5.487-2.755-9.688-7.863-11.449-13.733c-1.315-4.511-1.264-9.433,0.22-13.895
			c1.535-4.564,4.53-8.633,8.479-11.398c3.625-2.561,8.002-4.063,12.447-4.154c4.133-0.178,8.25,0.922,11.887,2.857
			C197.406,75.013,197.393,70.099,197.398,65.186z M184.934,88.864c-2.523,0.297-4.933,1.491-6.693,3.322
			c-1.858,1.943-2.986,4.578-3.074,7.271c-0.169,3.516,1.451,7.07,4.238,9.225c2.33,1.808,5.385,2.657,8.312,2.26
			c2.925-0.367,5.698-1.944,7.458-4.321c1.428-1.918,2.237-4.298,2.23-6.694c0.02-3.249-1.465-6.486-3.971-8.562
			C191.098,89.419,187.953,88.477,184.934,88.864z"/>
	</g>
	<path fill="#00293F" d="M213.674,65.186c3.901,0.001,7.801-0.015,11.7,0.008c-0.007,3.958-0.007,7.916,0,11.875
		c-3.899,0.02-7.799,0.006-11.7,0.007C213.672,73.112,213.672,69.149,213.674,65.186z"/>
	<g>
		<path fill="#00293F" d="M250.816,77.132c3.08-0.241,6.224,0.07,9.162,1.055c5.143,1.706,9.66,5.277,12.416,9.956
			c3.164,5.172,3.998,11.621,2.537,17.479c-1.246,4.831-4.104,9.244-8.05,12.306c-2.338,1.824-5.032,3.195-7.885,4.006
			c-5.658,1.556-11.933,0.955-17.093-1.889c-4.525-2.4-8.156-6.402-10.166-11.111c-2.579-5.99-2.44-13.117,0.43-18.983
			c1.992-4.161,5.283-7.69,9.311-9.944C244.334,78.384,247.539,77.373,250.816,77.132z M241.656,89.441
			c-1.424,5.795-2.825,11.595-4.209,17.398c2.826,0.025,5.652,0.004,8.48,0.011c0.04,1.096,0.016,2.194,0.016,3.293
			c1.134,0.059,2.271,0.03,3.408,0.019c0.008-1.104-0.014-2.211,0.012-3.317c0.725,0.012,1.449,0.01,2.177,0
			c0.007-1.129,0.003-2.258,0.003-3.385c-0.727-0.018-1.447-0.02-2.171,0c-0.042-1.085-0.007-2.169-0.024-3.254
			c-1.133-0.008-2.268-0.025-3.397,0.012c-0.007,1.07,0.013,2.145-0.011,3.215c-1.392,0.021-2.778,0.026-4.166-0.006
			c1.072-4.671,2.248-9.32,3.359-13.983C243.973,89.437,242.814,89.438,241.656,89.441z M255.831,89.438
			c-0.565,3.07-1.235,6.12-1.798,9.19c1.14-0.011,2.281,0.042,3.421-0.019c0.618-0.246,1.185-0.642,1.858-0.744
			c1.791-0.353,3.875-0.053,5.197,1.3c0.903,0.89,1.274,2.179,1.301,3.418c0.131,2.163-1.509,4.296-3.643,4.694
			c-1.534,0.306-3.264,0.07-4.475-0.981c-1.037-0.851-1.657-2.128-1.767-3.456c-1.067-0.039-2.138-0.023-3.204-0.012
			c-0.027,2.887,1.676,5.672,4.191,7.054c2.01,1.15,4.527,1.356,6.703,0.563c2.621-0.92,4.688-3.275,5.244-6.002
			c0.521-2.555-0.123-5.344-1.84-7.329c-1.188-1.538-3.142-2.227-5.01-2.455c-1.287-0.156-2.576,0.114-3.781,0.553
			c0.155-0.778,0.334-1.553,0.521-2.324c2.457-0.021,4.915,0.004,7.374-0.011c0.011-1.158,0.015-2.314-0.004-3.469
			C262.695,89.411,259.262,89.355,255.831,89.438z"/>
	</g>
	<path fill="#00293F" d="M213.673,79.986c3.902-0.011,7.806-0.045,11.702,0.017c-0.011,14.253-0.006,28.505-0.001,42.759
		c-3.899,0.022-7.799,0.008-11.7,0.008C213.672,108.509,213.673,94.247,213.673,79.986z"/>
	<path fill="#00293F" d="M122.443,85.966c3.806-0.014,7.612-0.014,11.416,0c0.016,1.838-0.006,3.679,0.008,5.519
		c0.033,1.789,0.787,3.554,2.079,4.796c1.604,1.646,4.074,2.369,6.315,1.875c2.981-0.584,5.36-3.326,5.516-6.36
		c0.038-1.943-0.003-3.887,0.02-5.829c3.805-0.014,7.61-0.014,11.416,0c0.01,6.269,0,12.54,0.004,18.811
		c-0.033,4.998-2.31,9.904-6.014,13.242c-3.596,3.287-8.542,5.033-13.406,4.72c-5.407-0.234-10.611-3.066-13.796-7.435
		c-2.232-3.031-3.525-6.756-3.56-10.527C122.443,98.505,122.434,92.237,122.443,85.966z"/>
</g>
<g>
	<path fill="#FF0000" d="M140.172,78.691c2.168-0.438,4.451,1.321,4.52,3.546c0.021,3.026,0,6.054,0.012,9.081
		c0.018,0.965-0.342,1.935-0.999,2.646c-1.035,1.152-2.792,1.583-4.239,1.017c-1.445-0.517-2.498-1.965-2.509-3.504
		c-0.006-2.609,0-5.22-0.002-7.83c0.005-0.867-0.083-1.773,0.273-2.591C137.71,79.828,138.866,78.898,140.172,78.691z"/>
</g>
</svg>
