<?xml version="1.0" encoding="utf-8"?>
<!-- Generator: Adobe Illustrator 16.0.0, SVG Export Plug-In . SVG Version: 6.00 Build 0)  -->
<!DOCTYPE svg PUBLIC "-//W3C//DTD SVG 1.1//EN" "http://www.w3.org/Graphics/SVG/1.1/DTD/svg11.dtd">
<svg version="1.1" id="Layer_1" xmlns="http://www.w3.org/2000/svg" xmlns:xlink="http://www.w3.org/1999/xlink" x="0px" y="0px"
	 width="1000px" height="1000px" viewBox="0 0 1000 1000" enable-background="new 0 0 1000 1000" xml:space="preserve">
<g>
	<path fill="#00C9FF" d="M846.141,0l28.084,25.836c11.93,10.975,116.792,109.806,125.039,199.291
		c6.859,74.431-35.786,165.365-72.77,228.543c-50.724,86.652-122.979,177.896-208.951,263.869L510.934,510.93l147.65-147.648
		l-87.862-87.862L846.141,0z"/>
	<path fill="#00C9FF" d="M363.285,658.578l147.648-147.646l206.609,206.609C545.964,889.118,359.17,999.99,241.662,1000.002
		c-5.64,0-11.193-0.249-16.531-0.74C135.646,991.011,36.814,886.15,25.838,874.223L0.004,846.135l275.421-275.421L363.285,658.578z"
		/>
</g>
</svg>
