<?xml version="1.0" encoding="utf-8"?>
<!-- Generator: Adobe Illustrator 24.3.0, SVG Export Plug-In . SVG Version: 6.00 Build 0)  -->
<svg version="1.1" id="Layer_1" xmlns="http://www.w3.org/2000/svg" xmlns:xlink="http://www.w3.org/1999/xlink" x="0px" y="0px"
	 viewBox="0 0 299 182" style="enable-background:new 0 0 299 182;" xml:space="preserve">
<style type="text/css">
	.st0{display:none;}
	.st1{display:inline;fill:#FFE6B1;}
	.st2{fill:#D6E3EB;stroke:#162873;stroke-width:0.9358;stroke-miterlimit:10;}
	.st3{fill:none;stroke:#FFFFFF;stroke-width:2;stroke-linecap:round;stroke-linejoin:round;stroke-dasharray:0.2492,7.9758;}
	.st4{fill:#162873;}
	.st5{fill:#FFFFFF;}
	.st6{fill:#213899;}
	.st7{fill:#E7F4FF;}
	.st8{fill:#00B0DD;}
	.st9{opacity:0.3;}
	.st10{fill:#AADEF8;}
	.st11{fill:#FFD045;}
	.st12{fill:#2C295B;}
	.st13{fill:#F4815E;}
	.st14{fill:#2D4199;}
	.st15{fill:none;stroke:#2D4199;stroke-miterlimit:10;}
	.st16{fill:#0085CA;}
</style>
<g id="Group_5" transform="translate(0.165544, 11.021762)" class="st0">
	<path id="Path_6" class="st1" d="M61.01,59.74l-0.34,0.16l-0.62,0.3c-0.41,0.2-0.77,0.4-1.15,0.6c-0.74,0.41-1.45,0.83-2.14,1.27
		c-1.36,0.86-2.68,1.79-3.94,2.79c-2.49,1.95-4.8,4.11-6.91,6.47c-2.09,2.33-3.99,4.82-5.68,7.44c-1.67,2.61-3.15,5.33-4.43,8.14
		c-1.26,2.79-2.35,5.65-3.24,8.58c-0.41,1.46-0.87,2.91-1.19,4.39l-0.52,2.2l-0.43,2.21c-0.67,3.61-1.12,7.27-1.35,10.93v-13.86
		c0.64-3.42,1.55-6.79,2.71-10.07c1.98-5.91,4.9-12.75,8.13-20.16c2.66-6.05,4.92-11.38,7.03-15.7c2.1-4.32,4.18-7.5,5.89-9.2
		c-1.69,1.69-4.86,3.87-8.28,7.53c-4.15,4.4-7.52,9.48-9.97,15.01c-2.86,6.55-4.72,13.5-5.51,20.61V59.49
		c0.66-2.09,1.57-4.09,2.71-5.96c1.97-3.39,4.69-7.14,7.43-11.46c1.94-3.13,3.65-6.4,5.11-9.79c0.88-2.2,1.93-4.33,3.13-6.38
		c-0.85,1.27-2.99,2.58-5.44,4.6c-3.02,2.38-5.63,5.23-7.73,8.45c-2.59,4.08-4.36,8.63-5.21,13.38V40.9
		c0.8-5.28,2.5-13.23,2.5-22.44c0-9.86-2.92-17.22-2.92-20.71c0,3.48-2.92,10.85-2.92,20.71c0,9.21,1.7,17.16,2.5,22.44v12.47
		c-0.88-7.79-2.89-15.4-5.98-22.6c-2.64-5.98-6.19-11.52-10.53-16.41c-2.73-2.99-5.68-5.77-8.83-8.32c1.98,1.73,4.16,5.26,6.41,9.95
		c2.27,4.7,4.7,10.53,7.61,17.12c3.49,8.09,6.55,15.56,8.61,22.01c1.2,3.61,2.11,7.3,2.73,11.05v19.25c-0.25-2.39-0.59-4.75-1-7.1
		c-0.93-5.22-2.22-10.38-3.85-15.42c-1.62-5.02-3.53-9.95-5.73-14.74c-1.1-2.41-2.31-4.78-3.59-7.15c-1.35-2.47-2.86-4.85-4.5-7.13
		c1.79,2.49,2.55,5.57,2.13,8.61c-0.17,1.4-0.47,2.78-0.89,4.12c-0.42,1.33-0.91,2.59-1.39,3.76c-0.65,1.27-0.65,2.77-0.02,4.04
		c0.64,1.09,1.5,2.04,2.52,2.8c1.95,1.69,4.02,3.29,2.58,5.63c-1.4,2.32-3.11,4.5-2.98,7.03c0.11,1.56,0.72,3.04,1.73,4.23
		c1.69,2.13,3.61,4.07,5.73,5.78c1.64,1.42,3.12,3,4.44,4.72c1.14,1.5,2.16,3.08,3.08,4.72c0.79,1.46,1.32,2.74,1.7,3.65l0.05,0.11
		v22.01c-0.08-0.49-2.5-14.37-10.75-22.04c-7.75-7.21-14.97-9.5-16.87-10.56C2.53,83.55,13.44,97.02,17,101.66
		c5.5,7.16,11.24,16.12,11.24,26.04v0.01v30.03h0.83V119.8c0.14-0.87,0.37-1.72,0.68-2.54c0.57-1.44,1.34-2.79,2.28-4.02
		c0.93-1.18,1.96-2.27,3.07-3.26c1.12-0.97,2.25-1.82,3.32-2.6c1.29-0.8,2.17-2.12,2.42-3.62c0.13-1.36,0.05-2.72-0.26-4.05
		c-0.12-0.69-0.24-1.37-0.33-2.04c-0.07-0.62-0.07-1.25,0-1.87c0.08-1.21,0.89-2.24,2.04-2.62c2.65-0.99,5.39-1.55,7.09-3.53
		c0.47-0.53,0.85-1.13,1.13-1.79c0.36-0.81,0.62-1.66,0.79-2.54c0.41-2.02,0.62-4.66,0.95-8.45c0.47-4.42,2.04-8.66,4.55-12.33
		c2.13-3.14,4.33-4.88,4.7-5.02L61.01,59.74z"/>
	<path id="Path_7" class="st1" d="M251.12,80.72l0.27,0.12l0.49,0.23c0.32,0.16,0.61,0.32,0.91,0.48c0.58,0.32,1.14,0.65,1.68,0.99
		c1.07,0.68,2.1,1.41,3.1,2.19c1.96,1.53,3.78,3.23,5.43,5.09c1.64,1.83,3.13,3.79,4.46,5.85c1.31,2.05,2.47,4.19,3.48,6.4
		c0.99,2.19,1.84,4.44,2.55,6.74c0.32,1.15,0.68,2.29,0.93,3.45l0.41,1.73l0.33,1.74c0.52,2.84,0.88,5.71,1.06,8.59v-10.89
		c-0.5-2.69-1.22-5.33-2.13-7.91c-1.55-4.65-3.85-10.03-6.39-15.84c-2.09-4.76-3.87-8.94-5.52-12.34c-1.17-2.63-2.72-5.07-4.63-7.23
		c1.32,1.32,3.82,3.04,6.51,5.92c3.26,3.46,5.91,7.45,7.83,11.79c2.25,5.15,3.71,10.61,4.33,16.2V80.52
		c-0.52-1.64-1.23-3.21-2.13-4.68c-1.55-2.66-3.69-5.62-5.84-9.01c-1.52-2.46-2.87-5.03-4.01-7.69c-0.69-1.73-1.52-3.41-2.46-5.01
		c0.67,0.99,2.35,2.02,4.27,3.62c2.37,1.87,4.42,4.11,6.07,6.64c2.04,3.21,3.43,6.78,4.09,10.52v-9c-0.63-4.15-1.97-10.4-1.97-17.63
		c0-7.75,2.29-13.54,2.29-16.27c0,2.74,2.29,8.53,2.29,16.27c0,7.23-1.33,13.49-1.97,17.64v9.8c0.69-6.12,2.27-12.1,4.7-17.76
		c2.07-4.7,4.87-9.06,8.28-12.9c2.15-2.35,4.46-4.54,6.94-6.54c-1.55,1.36-3.26,4.13-5.03,7.82c-1.78,3.69-3.7,8.28-5.98,13.46
		c-2.74,6.36-5.14,12.23-6.76,17.3c-0.94,2.83-1.66,5.74-2.14,8.68v15.13c0.2-1.88,0.46-3.74,0.79-5.58
		c0.73-4.11,1.74-8.16,3.03-12.12c1.27-3.95,2.77-7.81,4.5-11.58c0.86-1.89,1.81-3.76,2.82-5.62c1.06-1.94,2.25-3.81,3.54-5.6
		c-1.41,1.96-2.01,4.38-1.67,6.77c0.13,1.1,0.37,2.18,0.7,3.24c0.33,1.04,0.72,2.03,1.09,2.95c0.51,1,0.51,2.17,0.01,3.17
		c-0.51,0.86-1.18,1.61-1.98,2.2c-1.53,1.33-3.16,2.58-2.03,4.42c1.1,1.82,2.45,3.54,2.34,5.52c-0.09,1.22-0.57,2.39-1.36,3.32
		c-1.33,1.68-2.84,3.2-4.5,4.54c-1.29,1.12-2.46,2.36-3.49,3.71c-0.89,1.18-1.7,2.42-2.42,3.71c-0.62,1.15-1.04,2.16-1.34,2.87
		c-0.01,0.03-0.02,0.06-0.04,0.09v17.3c0.06-0.39,1.97-11.29,8.45-17.33c6.09-5.67,11.77-7.47,13.26-8.3
		c-1.5,0.83-10.08,11.42-12.88,15.06c-4.32,5.62-8.83,12.67-8.83,20.46v0.01v23.6h-0.65v-29.81c-0.11-0.68-0.29-1.35-0.53-2
		c-0.45-1.13-1.05-2.19-1.79-3.16c-0.73-0.92-1.54-1.78-2.42-2.57c-0.88-0.76-1.77-1.43-2.61-2.04c-1.01-0.63-1.71-1.67-1.9-2.85
		c-0.11-1.07-0.04-2.14,0.21-3.19c0.09-0.54,0.19-1.08,0.26-1.6c0.06-0.49,0.06-0.98,0-1.47c-0.06-0.95-0.7-1.76-1.6-2.06
		c-2.08-0.78-4.23-1.22-5.57-2.77c-0.37-0.41-0.67-0.89-0.88-1.4c-0.28-0.64-0.49-1.31-0.62-1.99c-0.32-1.59-0.49-3.67-0.74-6.64
		c-0.37-3.48-1.6-6.81-3.58-9.69c-0.96-1.54-2.22-2.88-3.7-3.94L251.12,80.72z"/>
</g>
<line class="st2" x1="44.43" y1="166.36" x2="244.57" y2="166.36"/>
<g>
	<ellipse class="st3" cx="149.55" cy="81.29" rx="75.71" ry="69.5"/>
</g>
<g>
	<g>
		<g>
			<g>
				<g>
					<path class="st4" d="M206.89,144.2V77.45c0-1.73-1.41-3.14-3.14-3.14H95.36c-1.73,0-3.14,1.41-3.14,3.14v66.75H206.89z"/>
				</g>
				<path class="st2" d="M92.48,144.33v9.65c0,1.86,1.5,3.36,3.34,3.36h107.6c1.85,0,3.34-1.51,3.34-3.36v-9.65H92.48z"/>
				<circle class="st5" cx="149.55" cy="150" r="3"/>
				<g>
					<path class="st6" d="M169.38,171.57c0,0-0.83-0.41-1.79-0.77c-1.02-0.38-2.25-0.87-2.98-1.21c-1.27-0.61-1.38-1.01-1.85-3.09
						c-0.52-2.27-1-7.06-1.2-9.15h-24.01c-0.2,2.09-0.68,6.88-1.2,9.15c-0.48,2.08-0.58,2.48-1.85,3.09
						c-0.72,0.34-1.93,0.82-2.94,1.2l0,0c-0.97,0.37-1.77,0.65-1.77,0.65s-0.77,0.43,0.47,0.49h38.61
						C170.02,171.94,169.38,171.57,169.38,171.57z"/>
				</g>
				<g>
					<path class="st4" d="M162.3,163.04c-0.11-0.99-0.68-5.05-0.74-5.69h-24.01c-0.06,0.64,0,0.95-0.11,1.95L162.3,163.04z"/>
				</g>
				<rect x="97.54" y="79.7" class="st7" width="104.02" height="58.58"/>
			</g>
		</g>
	</g>
</g>
<g>
	<g>
		<g>
			<g>
				<rect x="97.15" y="79.2" class="st8" width="105.01" height="59.09"/>
			</g>
		</g>
		<g class="st9">
			<polygon class="st10" points="192.32,79.2 181.52,79.2 118.11,138.28 130.07,138.28 			"/>
			<path class="st10" d="M177.06,79.2h-14.69c0,0-58.17,52.22-58.22,52.22v6.87h8.4L177.06,79.2z"/>
		</g>
	</g>
	<g>
		<g>
			<path class="st11" d="M181.49,106.93c0.09,0.38,0.17,0.76,0.22,1.15c0.21,1.54,0.12,3.04-0.25,4.5c-0.37,1.46-1,2.8-1.9,4.05
				c-0.89,1.24-2.01,2.27-3.36,3.08s-2.78,1.32-4.29,1.52c-1.51,0.2-3,0.13-4.46-0.23c-0.4-0.1-0.79-0.22-1.17-0.36
				c-0.4,1.06-0.94,2.06-1.33,3.13c-0.03,0.07-0.05,0.14-0.07,0.21c0.52,0.19,1.04,0.35,1.58,0.48c1.88,0.45,3.81,0.53,5.8,0.23
				c1.99-0.29,3.89-0.98,5.7-2.07c1.81-1.09,3.31-2.44,4.5-4.06s2.03-3.36,2.51-5.23c0.48-1.87,0.59-3.8,0.32-5.8
				c-0.07-0.51-0.17-1-0.29-1.5C183.83,106.31,182.64,106.54,181.49,106.93z"/>
			<path class="st10" d="M179.14,97.31c-1.64-1.16-3.41-1.98-5.3-2.45c-1.89-0.47-3.84-0.57-5.84-0.3c-2,0.27-3.89,0.94-5.68,2.02
				c-1.79,1.07-3.27,2.43-4.45,4.07c-0.02,0.02-0.03,0.05-0.05,0.07l2.8,1.88c0.84-1.05,2.19-2.36,3.45-3.11
				c1.46-0.88,2.96-1.41,4.51-1.61c1.55-0.2,3.04-0.1,4.48,0.29c1.43,0.39,2.76,1.05,3.98,1.98c1.22,0.93,2.24,2.08,3.07,3.45
				c0.55,0.91,1.19,2.73,1.47,3.69l3.52-0.87c-0.35-1.61-0.97-3.17-1.88-4.69C182.15,99.95,180.79,98.48,179.14,97.31z"/>
			<path class="st12" d="M165.65,124.22c0.41-1.14,0.85-2.26,1.34-3.36c-1.28-0.37-2.49-0.96-3.62-1.77
				c-1.27-0.91-2.33-2.08-3.19-3.51c-0.82-1.37-1.36-2.81-1.61-4.33c-0.25-1.52-0.21-3,0.12-4.45c0.33-1.45,0.95-2.81,1.85-4.09
				c0.07-0.1,0.14-0.19,0.21-0.28c-0.94-0.62-1.84-1.29-2.73-1.98c-0.05,0.06-0.1,0.13-0.15,0.19c-1.18,1.64-2,3.4-2.47,5.3
				c-0.47,1.89-0.58,3.83-0.33,5.83c0.25,2,0.92,3.89,1.99,5.68c1.11,1.85,2.49,3.37,4.13,4.55
				C162.59,123.01,164.07,123.75,165.65,124.22z"/>
		</g>
		<g>
			<polygon class="st11" points="140.41,115.14 136.77,115.14 136.77,123.58 152.42,123.58 152.42,120.26 140.41,120.26 			"/>
			<polygon class="st10" points="140.41,102.59 136.77,102.59 136.77,115.44 140.41,115.44 140.41,109.25 152.07,109.25 
				152.07,105.93 140.41,105.93 			"/>
			<polygon class="st12" points="136.77,94.45 136.77,102.9 140.41,102.9 140.41,97.78 152.42,97.78 152.42,94.45 			"/>
		</g>
		<g>
			<path class="st11" d="M125.58,119.69C125.58,119.69,125.57,119.69,125.58,119.69c-0.67,0.31-1.38,0.47-2.15,0.47
				c-0.77,0-1.51-0.14-2.2-0.41c-0.7-0.27-1.3-0.65-1.82-1.14c-0.52-0.49-0.91-1.08-1.2-1.76c-0.28-0.68-0.42-1.42-0.42-2.22
				l-3.67,0.77c0.15,1.16,0.49,2.24,1,3.25c0.51,1,1.17,1.87,1.95,2.59c0.79,0.72,1.69,1.29,2.72,1.7c1.03,0.41,2.14,0.62,3.32,0.62
				c1.26,0,2.43-0.21,3.53-0.62C126.43,121.8,125.95,120.76,125.58,119.69z"/>
			<path class="st12" d="M117.34,105.42c0.58,0.58,1.26,1.08,2.03,1.51c0.77,0.43,1.57,0.82,2.4,1.18l2.01,0.85
				c0.46,0.19,0.92,0.41,1.38,0.64c0.57-1.05,1.21-2.06,1.78-3.12c-0.55-0.27-1.13-0.53-1.73-0.77l-2.09-0.81
				c-0.46-0.18-0.93-0.39-1.41-0.64c-0.48-0.24-0.91-0.53-1.29-0.87c-0.39-0.33-0.71-0.72-0.97-1.16c-0.26-0.44-0.39-0.94-0.39-1.51
				c0-0.64,0.14-1.22,0.42-1.72c0.28-0.5,0.66-0.93,1.12-1.29c0.46-0.36,0.99-0.64,1.56-0.83c0.58-0.19,1.17-0.29,1.76-0.29
				c1.11,0,2.03,0.23,2.76,0.7c0.73,0.46,1.37,1.15,1.91,2.05l2.9-1.74c-0.8-1.42-1.84-2.5-3.13-3.26
				c-1.29-0.76-2.74-1.14-4.37-1.14c-1.11,0-2.18,0.17-3.21,0.52c-1.03,0.35-1.94,0.84-2.74,1.49c-0.8,0.64-1.44,1.43-1.91,2.36
				c-0.48,0.93-0.71,1.98-0.71,3.17c0,1,0.17,1.89,0.52,2.67C116.3,104.16,116.76,104.84,117.34,105.42z"/>
			<path class="st10" d="M131.89,111.29c-0.36-0.91-0.86-1.72-1.51-2.41c-0.64-0.7-1.41-1.29-2.3-1.8c-0.74-0.42-1.52-0.8-2.36-1.15
				c-0.58,1.04-1.17,2.08-1.68,3.15c0.52,0.23,1.05,0.47,1.56,0.75c0.6,0.32,1.15,0.7,1.62,1.12c0.48,0.42,0.86,0.93,1.14,1.51
				c0.28,0.58,0.42,1.26,0.42,2.03c0,0.77-0.13,1.5-0.41,2.18c-0.27,0.68-0.64,1.28-1.12,1.8c-0.48,0.52-1.04,0.93-1.7,1.24
				c-0.08,0.04-0.16,0.06-0.24,0.1c0.18,1.12,0.43,2.24,0.73,3.34c0.24-0.07,0.49-0.16,0.72-0.25c1.13-0.45,2.12-1.08,2.96-1.87
				c0.84-0.8,1.49-1.76,1.97-2.88c0.48-1.12,0.71-2.34,0.71-3.65C132.43,113.26,132.25,112.2,131.89,111.29z"/>
		</g>
	</g>
	<g>
		
			<rect x="180.03" y="115.52" transform="matrix(0.6593 -0.7519 0.7519 0.6593 -28.1466 177.0902)" class="st10" width="2.63" height="8.16"/>
		<path class="st13" d="M182.52,110.01c0,6.72-5.44,12.16-12.16,12.16c-6.72,0-12.16-5.44-12.16-12.16
			c0-6.71,5.44-12.16,12.16-12.16C177.07,97.86,182.52,103.3,182.52,110.01z"/>
		<path class="st13" d="M179.69,121.5l14.06,12.33c0.98,0.86,2.46,0.76,3.31-0.22l0.22-0.25c0.86-0.98,0.76-2.46-0.22-3.31
			L183,117.71L179.69,121.5z"/>
		<path class="st5" d="M179.83,110.01c0,5.23-4.24,9.48-9.48,9.48c-5.23,0-9.47-4.24-9.47-9.48c0-5.23,4.24-9.48,9.47-9.48
			C175.59,100.54,179.83,104.78,179.83,110.01z"/>
	</g>
</g>
<g>
	<path class="st14" d="M35.56,165.45c0,0.32-0.26,0.57-0.57,0.57H12.5c-0.32,0-0.57-0.26-0.57-0.57l-1.15-27.21
		c0-0.32,0.26-0.57,0.57-0.57h24.78c0.32,0,0.57,0.26,0.57,0.57L35.56,165.45z"/>
	<path class="st10" d="M9.14,114.29c0,0-2.34,2.57-7.03-2.74c0,0,6.11-1.21,7.17,2.38L9.14,114.29z"/>
	<path class="st10" d="M9.4,113.92c0,0,3.48,0.04,2.77-7.01c0,0-5.04,3.66-3.13,6.87L9.4,113.92z"/>
	<path class="st8" d="M23.44,97.28c0,0-3.19,1.38-5.27-5.39c0,0,6.06,1.42,5.55,5.13L23.44,97.28z"/>
	<path class="st8" d="M24.03,96.83c0,0,3.15,1.47,5.42-5.25c0,0-6.1,1.25-5.68,4.97L24.03,96.83z"/>
	<path class="st8" d="M23.35,102.99c0,0-3.39,1.47-5.61-5.73c0,0,6.45,1.51,5.9,5.45L23.35,102.99z"/>
	<path class="st8" d="M23.98,102.52c0,0,3.35,1.56,5.76-5.58c0,0-6.48,1.33-6.04,5.29L23.98,102.52z"/>
	<path class="st8" d="M23.24,109.47c0,0-3.75,1.63-6.2-6.34c0,0,7.13,1.67,6.52,6.03L23.24,109.47z"/>
	<path class="st8" d="M23.94,108.95c0,0,3.7,1.73,6.37-6.17c0,0-7.17,1.48-6.68,5.85L23.94,108.95z"/>
	<path class="st8" d="M23.24,116.31c0,0-3.76,1.63-6.22-6.35c0,0,7.14,1.67,6.54,6.04L23.24,116.31z"/>
	<path class="st8" d="M23.94,115.79c0,0,3.71,1.73,6.38-6.19c0,0-7.19,1.48-6.7,5.86L23.94,115.79z"/>
	<path class="st8" d="M22.65,121.41c0,0-2.7,1.17-4.47-4.57c0,0,5.13,1.2,4.7,4.34L22.65,121.41z"/>
	<path class="st8" d="M23.18,121.2c0,0,2.48,1.59,5.14-3.8c0,0-5.26,0.37-5.33,3.54L23.18,121.2z"/>
	<path class="st8" d="M22.84,125.58c0,0,2.04,1.3,4.22-3.12c0,0-4.32,0.3-4.38,2.9L22.84,125.58z"/>
	<path class="st8" d="M22.75,125.58c0,0-2.04,1.3-4.22-3.12c0,0,4.32,0.3,4.38,2.9L22.75,125.58z"/>
	<path class="st10" d="M11.58,119.74c0,0-2.68,2.96-8.08-3.15c0,0,7.02-1.39,8.23,2.74L11.58,119.74z"/>
	<path class="st10" d="M11.87,119.32c0,0,3.99,0.04,3.19-8.06c0,0-5.79,4.2-3.59,7.9L11.87,119.32z"/>
	<path class="st10" d="M13.73,125.6c0,0-3,3.31-9.03-3.52c0,0,7.84-1.55,9.21,3.06L13.73,125.6z"/>
	<path class="st10" d="M14.06,125.13c0,0,4.46,0.05,3.56-9.01c0,0-6.47,4.7-4.02,8.83L14.06,125.13z"/>
	<path class="st10" d="M15.62,132.38c0,0-3.25,3.06-8.72-4.22c0,0,7.94-0.92,8.93,3.78L15.62,132.38z"/>
	<path class="st10" d="M15.99,131.94c0,0,4.45,0.4,4.26-8.7c0,0-6.82,4.17-4.7,8.49L15.99,131.94z"/>
	<g>
		<path class="st12" d="M36.18,115.57c0,0,2.44,2.47,6.91-3.03c0,0-6.15-0.95-7.06,2.68L36.18,115.57z"/>
		<path class="st12" d="M35.91,115.21c0,0-3.47,0.18-3.06-6.89c0,0,5.19,3.44,3.41,6.74L35.91,115.21z"/>
		<path class="st12" d="M33.98,121.11c0,0,2.81,2.84,7.94-3.48c0,0-7.07-1.09-8.11,3.08L33.98,121.11z"/>
		<path class="st12" d="M33.67,120.7c0,0-3.99,0.21-3.52-7.92c0,0,5.96,3.95,3.92,7.74L33.67,120.7z"/>
		<path class="st12" d="M32.07,127.05c0,0,3.14,3.18,8.87-3.89c0,0-7.9-1.22-9.07,3.45L32.07,127.05z"/>
		<path class="st12" d="M31.72,126.6c0,0-4.46,0.24-3.94-8.85c0,0,6.66,4.42,4.38,8.65L31.72,126.6z"/>
		<path class="st12" d="M30.47,133.91c0,0,3.38,2.92,8.54-4.58c0,0-7.97-0.59-8.77,4.15L30.47,133.91z"/>
		<path class="st12" d="M30.08,133.49c0,0-4.43,0.59-4.62-8.51c0,0,6.99,3.88,5.06,8.28L30.08,133.49z"/>
		<path class="st15" d="M28.21,143.71c0,0,1.25-13.4,9.62-32.71"/>
		<path class="st12" d="M37.42,111.16c0,0-2.27-2.63,3.58-6.64c0,0,0.45,6.21-3.24,6.82L37.42,111.16z"/>
	</g>
	<path class="st15" d="M21.42,142.67c0,0,3.41-39.05,1.97-50.22"/>
	<path class="st8" d="M23.45,92.73c0,0,3.09-1.59-0.84-7.5c0,0-2.74,5.59,0.46,7.54L23.45,92.73z"/>
	<path class="st15" d="M18.29,142.07c0,0-1.81-13.34-10.99-32.28"/>
</g>
<g>
	<path class="st14" d="M275.49,165.91c0,0.32-0.26,0.57-0.57,0.57h-22.48c-0.32,0-0.57-0.26-0.57-0.57l-1.15-27.21
		c0-0.32,0.26-0.57,0.57-0.57h24.78c0.32,0,0.57,0.26,0.57,0.57L275.49,165.91z"/>
	<path class="st10" d="M249.08,114.75c0,0-2.34,2.57-7.03-2.74c0,0,6.11-1.21,7.17,2.38L249.08,114.75z"/>
	<path class="st10" d="M249.34,114.39c0,0,3.47,0.04,2.77-7.01c0,0-5.04,3.66-3.13,6.87L249.34,114.39z"/>
	<path class="st8" d="M263.37,97.74c0,0-3.19,1.38-5.27-5.39c0,0,6.06,1.42,5.55,5.13L263.37,97.74z"/>
	<path class="st8" d="M263.96,97.3c0,0,3.15,1.47,5.42-5.25c0,0-6.1,1.25-5.68,4.97L263.96,97.3z"/>
	<path class="st8" d="M263.29,103.45c0,0-3.39,1.47-5.61-5.73c0,0,6.45,1.51,5.9,5.45L263.29,103.45z"/>
	<path class="st8" d="M263.91,102.98c0,0,3.35,1.56,5.76-5.58c0,0-6.48,1.33-6.04,5.29L263.91,102.98z"/>
	<path class="st8" d="M263.18,109.94c0,0-3.75,1.63-6.2-6.34c0,0,7.13,1.67,6.52,6.03L263.18,109.94z"/>
	<path class="st8" d="M263.87,109.42c0,0,3.7,1.73,6.37-6.17c0,0-7.17,1.48-6.68,5.85L263.87,109.42z"/>
	<path class="st8" d="M263.18,116.77c0,0-3.76,1.63-6.22-6.35c0,0,7.14,1.67,6.54,6.04L263.18,116.77z"/>
	<path class="st8" d="M263.87,116.25c0,0,3.71,1.73,6.38-6.19c0,0-7.19,1.48-6.7,5.86L263.87,116.25z"/>
	<path class="st8" d="M262.59,121.87c0,0-2.7,1.17-4.47-4.57c0,0,5.13,1.2,4.7,4.34L262.59,121.87z"/>
	<path class="st8" d="M263.11,121.66c0,0,2.48,1.59,5.14-3.8c0,0-5.26,0.37-5.33,3.54L263.11,121.66z"/>
	<path class="st8" d="M262.77,126.04c0,0,2.04,1.3,4.22-3.12c0,0-4.32,0.3-4.38,2.9L262.77,126.04z"/>
	<path class="st8" d="M262.69,126.04c0,0-2.04,1.3-4.22-3.12c0,0,4.32,0.3,4.38,2.9L262.69,126.04z"/>
	<path class="st10" d="M251.51,120.2c0,0-2.68,2.96-8.08-3.15c0,0,7.02-1.39,8.23,2.74L251.51,120.2z"/>
	<path class="st10" d="M251.81,119.78c0,0,3.99,0.04,3.19-8.06c0,0-5.79,4.2-3.59,7.9L251.81,119.78z"/>
	<path class="st10" d="M253.67,126.06c0,0-3,3.31-9.03-3.52c0,0,7.84-1.55,9.21,3.06L253.67,126.06z"/>
	<path class="st10" d="M254,125.59c0,0,4.46,0.05,3.56-9.01c0,0-6.47,4.7-4.02,8.83L254,125.59z"/>
	<path class="st10" d="M255.56,132.84c0,0-3.25,3.06-8.72-4.22c0,0,7.94-0.92,8.93,3.78L255.56,132.84z"/>
	<path class="st10" d="M255.93,132.4c0,0,4.45,0.4,4.26-8.7c0,0-6.82,4.17-4.7,8.49L255.93,132.4z"/>
	<g>
		<path class="st12" d="M276.12,116.03c0,0,2.44,2.47,6.91-3.03c0,0-6.15-0.95-7.06,2.68L276.12,116.03z"/>
		<path class="st12" d="M275.85,115.67c0,0-3.47,0.18-3.06-6.89c0,0,5.19,3.44,3.41,6.74L275.85,115.67z"/>
		<path class="st12" d="M273.92,121.57c0,0,2.81,2.84,7.94-3.48c0,0-7.07-1.09-8.11,3.08L273.92,121.57z"/>
		<path class="st12" d="M273.6,121.16c0,0-3.99,0.21-3.52-7.92c0,0,5.96,3.95,3.92,7.74L273.6,121.16z"/>
		<path class="st12" d="M272.01,127.52c0,0,3.14,3.18,8.87-3.89c0,0-7.9-1.22-9.07,3.45L272.01,127.52z"/>
		<path class="st12" d="M271.66,127.06c0,0-4.46,0.24-3.94-8.85c0,0,6.66,4.42,4.38,8.65L271.66,127.06z"/>
		<path class="st12" d="M270.41,134.38c0,0,3.38,2.92,8.54-4.58c0,0-7.97-0.59-8.77,4.15L270.41,134.38z"/>
		<path class="st12" d="M270.02,133.95c0,0-4.43,0.59-4.62-8.51c0,0,6.99,3.88,5.06,8.28L270.02,133.95z"/>
		<path class="st15" d="M268.15,144.17c0,0,1.25-13.4,9.62-32.71"/>
		<path class="st12" d="M277.35,111.62c0,0-2.27-2.63,3.58-6.64c0,0,0.45,6.21-3.24,6.82L277.35,111.62z"/>
	</g>
	<path class="st15" d="M261.35,143.14c0,0,3.41-39.05,1.97-50.22"/>
	<path class="st8" d="M263.39,93.19c0,0,3.09-1.59-0.84-7.5c0,0-2.74,5.59,0.46,7.54L263.39,93.19z"/>
	<path class="st15" d="M258.23,142.53c0,0-1.81-13.34-10.99-32.28"/>
</g>
<g>
	<g>
		<path class="st5" d="M112.61,34.17c0,9.55-7.74,17.29-17.29,17.29s-17.29-7.74-17.29-17.29c0-9.55,7.74-17.29,17.29-17.29
			S112.61,24.63,112.61,34.17z"/>
		<g>
			<g>
				<rect x="102.61" y="25.82" class="st14" width="2.93" height="18.63"/>
				<rect x="87.88" y="33.55" class="st11" width="2.93" height="10.9"/>
				<rect x="97.7" y="28.33" class="st8" width="2.92" height="16.11"/>
				<rect x="92.79" y="30.63" class="st13" width="2.92" height="13.82"/>
				<rect x="82.97" y="35.63" class="st10" width="2.92" height="8.82"/>
			</g>
			<g>
				<g>
					<path class="st14" d="M83.51,33.22c-0.14,0-0.27-0.07-0.34-0.2c-0.1-0.19-0.04-0.43,0.15-0.53l17.55-9.68
						c0.19-0.1,0.43-0.03,0.53,0.15c0.11,0.19,0.04,0.43-0.15,0.53L83.7,33.17C83.64,33.2,83.58,33.22,83.51,33.22z"/>
				</g>
				<polygon class="st14" points="100.72,25.69 101.92,22.55 98.59,22.21 				"/>
			</g>
		</g>
	</g>
	<g>
		<path class="st5" d="M96.66,77.94c0,9.73-7.88,17.61-17.61,17.61s-17.61-7.88-17.61-17.61s7.88-17.61,17.61-17.61
			S96.66,68.21,96.66,77.94z"/>
		<g>
			<rect x="71.14" y="81.72" class="st13" width="2.5" height="7.15"/>
			<rect x="70.48" y="80.16" class="st8" width="3.82" height="2.26"/>
			<path class="st12" d="M87.25,71.53v8.75c2.35-0.08,4.23-2.01,4.23-4.38S89.61,71.6,87.25,71.53z"/>
			<path class="st12" d="M69.78,72.65v6.56c-1.76-0.06-3.17-1.5-3.17-3.28C66.6,74.15,68.01,72.71,69.78,72.65z"/>
			<path class="st8" d="M85.62,67.93c-7.38,3.35-11.22,3.13-11.22,3.13v9.55c0,0,6.09-0.14,11.22,3.19V67.93z"/>
			<rect x="68.53" y="70.95" class="st12" width="6.71" height="9.83"/>
			<rect x="85.01" y="67.01" class="st13" width="3.12" height="17.18"/>
		</g>
	</g>
	<g>
		<path class="st5" d="M237.66,80.71c0,9.73-7.88,17.61-17.61,17.61c-9.73,0-17.61-7.88-17.61-17.61c0-9.73,7.88-17.61,17.61-17.61
			C229.78,63.1,237.66,70.99,237.66,80.71z"/>
		<g>
			<path class="st10" d="M220.05,80.71c0,0.23-8.19-7.45-8.19-7.45c2.03-2.23,4.94-3.62,8.19-3.62V80.71z"/>
			<path class="st13" d="M231.13,80.71c0,0-4.96,0-11.07,0V69.63C226.17,69.63,231.13,74.59,231.13,80.71z"/>
			<path class="st8" d="M208.98,80.72c0,0,4.96,0,11.07,0v11.07C213.94,91.79,208.98,86.83,208.98,80.72z"/>
			<path class="st14" d="M220.05,80.71h-11.07c0-2.87,1.09-5.48,2.88-7.45L220.05,80.71z"/>
			<g>
				<path class="st11" d="M220.05,80.72c0-0.23,8.19,7.45,8.19,7.45c-2.03,2.23-4.94,3.62-8.19,3.62V80.72z"/>
				<path class="st16" d="M220.05,80.72h11.07c0,2.87-1.09,5.48-2.88,7.45L220.05,80.72z"/>
			</g>
		</g>
	</g>
	<g>
		<g>
			<path class="st5" d="M165.85,19.72c0,10.65-8.63,19.27-19.28,19.27c-10.65,0-19.28-8.63-19.28-19.27
				c0-10.65,8.63-19.27,19.28-19.27C157.22,0.45,165.85,9.08,165.85,19.72z"/>
		</g>
		<path class="st8" d="M158.98,16.25h-4.38l3-3.19l-5.06-4.76l-2.49,2.65V7.31h-6.95v4.38l-3.19-3l-4.76,5.06l2.65,2.49h-3.64v6.94
			h4.38l-3,3.19l5.06,4.76l2.49-2.65v3.64h6.95v-4.38l3.19,3l4.76-5.06l-2.65-2.49h3.64V16.25z M146.57,24.72c-2.76,0-5-2.24-5-5
			s2.24-5,5-5c2.76,0,5,2.24,5,5S149.33,24.72,146.57,24.72z"/>
	</g>
	<g>
		<g>
			<path class="st5" d="M217.15,34.17c0,9.55-7.74,17.29-17.29,17.29c-9.55,0-17.29-7.74-17.29-17.29c0-9.55,7.74-17.29,17.29-17.29
				C209.41,16.89,217.15,24.63,217.15,34.17z"/>
		</g>
		<g>
			<g>
				<g>
					<polygon class="st12" points="204.1,44.34 188.49,34.32 204.1,24.36 205.06,25.85 191.78,34.33 205.06,42.85 					"/>
				</g>
			</g>
			<path class="st13" d="M200.74,24.75c0,2.12,1.72,3.84,3.84,3.84c2.12,0,3.84-1.72,3.84-3.84s-1.72-3.84-3.84-3.84
				C202.46,20.91,200.74,22.63,200.74,24.75z"/>
			<path class="st13" d="M186.43,34c0,2.48,2.01,4.49,4.49,4.49c2.48,0,4.49-2.01,4.49-4.49c0-2.48-2.01-4.49-4.49-4.49
				C188.44,29.5,186.43,31.52,186.43,34z"/>
			<circle class="st13" cx="204.58" cy="43.6" r="3.84"/>
		</g>
	</g>
</g>
</svg>
