<?xml version="1.0" encoding="utf-8"?>
<!-- Generator: Adobe Illustrator 24.3.0, SVG Export Plug-In . SVG Version: 6.00 Build 0)  -->
<svg version="1.1" id="Layer_1" xmlns="http://www.w3.org/2000/svg" xmlns:xlink="http://www.w3.org/1999/xlink" x="0px" y="0px"
	 viewBox="0 0 299 182" style="enable-background:new 0 0 299 182;" xml:space="preserve">
<style type="text/css">
	.st0{fill:#FFE6B1;}
	.st1{fill:#D6E3EB;stroke:#162873;stroke-width:0.9358;stroke-miterlimit:10;}
	.st2{fill:none;stroke:#FFFFFF;stroke-width:2;stroke-linecap:round;stroke-miterlimit:10;}
	.st3{fill:none;stroke:#FFFFFF;stroke-width:2;stroke-linecap:round;stroke-miterlimit:10;stroke-dasharray:0,8.9697;}
	.st4{fill:none;stroke:#FFFFFF;stroke-width:2;stroke-linecap:round;stroke-miterlimit:10;stroke-dasharray:0,9.2278;}
	.st5{fill:none;stroke:#FFFFFF;stroke-width:2;stroke-linecap:round;stroke-miterlimit:10;stroke-dasharray:0,9;}
	.st6{fill:#162873;}
	.st7{fill:#FFFFFF;}
	.st8{fill:#213899;}
	.st9{fill:#E7F4FF;}
	.st10{display:none;}
	.st11{display:inline;fill:#2D4199;}
	.st12{display:inline;fill:#AADEF8;}
	.st13{display:inline;fill:#00B0DD;}
	.st14{display:inline;}
	.st15{fill:#2C295B;}
	.st16{fill:none;stroke:#2D4199;stroke-miterlimit:10;}
	.st17{display:inline;fill:none;stroke:#2D4199;stroke-miterlimit:10;}
	.st18{fill:#2D4199;}
	.st19{fill:#AADEF8;}
	.st20{fill:#00B0DD;}
	.st21{fill:#00BBBF;}
	.st22{fill:#00CACF;}
	.st23{opacity:0.15;}
	.st24{fill:#00627E;}
	.st25{fill:#D60063;}
	.st26{fill:#8592A3;}
	.st27{fill:#FFDD00;}
	.st28{fill:#A1A1A1;}
	.st29{fill:#8BAAB7;}
	.st30{fill:#004668;}
	.st31{fill:#00ABDB;}
	.st32{fill:#46494C;}
	.st33{fill:#0086B5;}
	.st34{fill:#FFF69D;}
	.st35{fill:#D0D958;}
	.st36{fill:#E8861E;}
	.st37{fill:#58AE67;}
	.st38{fill:#00A1A5;}
	.st39{fill:#FF9C1A;}
	.st40{fill:#525251;}
	.st41{fill:#701E43;}
	.st42{fill:#667BB6;}
	.st43{fill:#FDF4F9;}
	.st44{fill:#95D1EA;}
	.st45{fill:#E25028;}
	.st46{fill:#F28E0F;}
	.st47{fill:#FFC61A;}
	.st48{fill:none;stroke:#002133;stroke-linejoin:round;stroke-miterlimit:10;}
	.st49{fill:#B9C1CB;}
	.st50{fill:#F5C8A1;}
	.st51{fill:#11162A;}
</style>
<g id="Group_5" transform="translate(0.165544, 11.021762)">
	<path id="Path_6" class="st0" d="M61.01,59.74l-0.34,0.16l-0.62,0.3c-0.41,0.2-0.77,0.4-1.15,0.6c-0.74,0.41-1.45,0.83-2.14,1.27
		c-1.36,0.86-2.68,1.79-3.94,2.79c-2.49,1.95-4.8,4.11-6.91,6.47c-2.09,2.33-3.99,4.82-5.68,7.44c-1.67,2.61-3.15,5.33-4.43,8.14
		c-1.26,2.79-2.35,5.65-3.24,8.58c-0.41,1.46-0.87,2.91-1.19,4.39l-0.52,2.2l-0.43,2.21c-0.67,3.61-1.12,7.27-1.35,10.93v-13.86
		c0.64-3.42,1.55-6.79,2.71-10.07c1.98-5.91,4.9-12.75,8.13-20.16c2.66-6.05,4.92-11.38,7.03-15.7c2.1-4.32,4.18-7.5,5.89-9.2
		c-1.69,1.69-4.86,3.87-8.28,7.53c-4.15,4.4-7.52,9.48-9.97,15.01c-2.86,6.55-4.72,13.5-5.51,20.61V59.49
		c0.66-2.09,1.57-4.09,2.71-5.96c1.97-3.39,4.69-7.14,7.43-11.46c1.94-3.13,3.65-6.4,5.11-9.79c0.88-2.2,1.93-4.33,3.13-6.38
		c-0.85,1.27-2.99,2.58-5.44,4.6c-3.02,2.38-5.63,5.23-7.73,8.45c-2.59,4.08-4.36,8.63-5.21,13.38V40.9
		c0.8-5.28,2.5-13.23,2.5-22.44c0-9.86-2.92-17.22-2.92-20.71c0,3.48-2.92,10.85-2.92,20.71c0,9.21,1.7,17.16,2.5,22.44v12.47
		c-0.88-7.79-2.89-15.4-5.98-22.6c-2.64-5.98-6.19-11.52-10.53-16.41c-2.73-2.99-5.68-5.77-8.83-8.32c1.98,1.73,4.16,5.26,6.41,9.95
		c2.27,4.7,4.7,10.53,7.61,17.12c3.49,8.09,6.55,15.56,8.61,22.01c1.2,3.61,2.11,7.3,2.73,11.05v19.25c-0.25-2.39-0.59-4.75-1-7.1
		c-0.93-5.22-2.22-10.38-3.85-15.42c-1.62-5.02-3.53-9.95-5.73-14.74c-1.1-2.41-2.31-4.78-3.59-7.15c-1.35-2.47-2.86-4.85-4.5-7.13
		c1.79,2.49,2.55,5.57,2.13,8.61c-0.17,1.4-0.47,2.78-0.89,4.12c-0.42,1.33-0.91,2.59-1.39,3.76c-0.65,1.27-0.65,2.77-0.02,4.04
		c0.64,1.09,1.5,2.04,2.52,2.8c1.95,1.69,4.02,3.29,2.58,5.63c-1.4,2.32-3.11,4.5-2.98,7.03c0.11,1.56,0.72,3.04,1.73,4.23
		c1.69,2.13,3.61,4.07,5.73,5.78c1.64,1.42,3.12,3,4.44,4.72c1.14,1.5,2.16,3.08,3.08,4.72c0.79,1.46,1.32,2.74,1.7,3.65l0.05,0.11
		v22.01c-0.08-0.49-2.5-14.37-10.75-22.04c-7.75-7.21-14.97-9.5-16.87-10.56C2.53,83.55,13.44,97.02,17,101.66
		c5.5,7.16,11.24,16.12,11.24,26.04v0.01v30.03h0.83V119.8c0.14-0.87,0.37-1.72,0.68-2.54c0.57-1.44,1.34-2.79,2.28-4.02
		c0.93-1.18,1.96-2.27,3.07-3.26c1.12-0.97,2.25-1.82,3.32-2.6c1.29-0.8,2.17-2.12,2.42-3.62c0.13-1.36,0.05-2.72-0.26-4.05
		c-0.12-0.69-0.24-1.37-0.33-2.04c-0.07-0.62-0.07-1.25,0-1.87c0.08-1.21,0.89-2.24,2.04-2.62c2.65-0.99,5.39-1.55,7.09-3.53
		c0.47-0.53,0.85-1.13,1.13-1.79c0.36-0.81,0.62-1.66,0.79-2.54c0.41-2.02,0.62-4.66,0.95-8.45c0.47-4.42,2.04-8.66,4.55-12.33
		c2.13-3.14,4.33-4.88,4.7-5.02L61.01,59.74z"/>
	<path id="Path_7" class="st0" d="M251.12,80.72l0.27,0.12l0.49,0.23c0.32,0.16,0.61,0.32,0.91,0.48c0.58,0.32,1.14,0.65,1.68,0.99
		c1.07,0.68,2.1,1.41,3.1,2.19c1.96,1.53,3.78,3.23,5.43,5.09c1.64,1.83,3.13,3.79,4.46,5.85c1.31,2.05,2.47,4.19,3.48,6.4
		c0.99,2.19,1.84,4.44,2.55,6.74c0.32,1.15,0.68,2.29,0.93,3.45l0.41,1.73l0.33,1.74c0.52,2.84,0.88,5.71,1.06,8.59v-10.89
		c-0.5-2.69-1.22-5.33-2.13-7.91c-1.55-4.65-3.85-10.03-6.39-15.84c-2.09-4.76-3.87-8.94-5.52-12.34c-1.17-2.63-2.72-5.07-4.63-7.23
		c1.32,1.32,3.82,3.04,6.51,5.92c3.26,3.46,5.91,7.45,7.83,11.79c2.25,5.15,3.71,10.61,4.33,16.2V80.52
		c-0.52-1.64-1.23-3.21-2.13-4.68c-1.55-2.66-3.69-5.62-5.84-9.01c-1.52-2.46-2.87-5.03-4.01-7.69c-0.69-1.73-1.52-3.41-2.46-5.01
		c0.67,0.99,2.35,2.02,4.27,3.62c2.37,1.87,4.42,4.11,6.07,6.64c2.04,3.21,3.43,6.78,4.09,10.52v-9c-0.63-4.15-1.97-10.4-1.97-17.63
		c0-7.75,2.29-13.54,2.29-16.27c0,2.74,2.29,8.53,2.29,16.27c0,7.23-1.33,13.49-1.97,17.64v9.8c0.69-6.12,2.27-12.1,4.7-17.76
		c2.07-4.7,4.87-9.06,8.28-12.9c2.15-2.35,4.46-4.54,6.94-6.54c-1.55,1.36-3.26,4.13-5.03,7.82c-1.78,3.69-3.7,8.28-5.98,13.46
		c-2.74,6.36-5.14,12.23-6.76,17.3c-0.94,2.83-1.66,5.74-2.14,8.68v15.13c0.2-1.88,0.46-3.74,0.79-5.58
		c0.73-4.11,1.74-8.16,3.03-12.12c1.27-3.95,2.77-7.81,4.5-11.58c0.86-1.89,1.81-3.76,2.82-5.62c1.06-1.94,2.25-3.81,3.54-5.6
		c-1.41,1.96-2.01,4.38-1.67,6.77c0.13,1.1,0.37,2.18,0.7,3.24c0.33,1.04,0.72,2.03,1.09,2.95c0.51,1,0.51,2.17,0.01,3.17
		c-0.51,0.86-1.18,1.61-1.98,2.2c-1.53,1.33-3.16,2.58-2.03,4.42c1.1,1.82,2.45,3.54,2.34,5.52c-0.09,1.22-0.57,2.39-1.36,3.32
		c-1.33,1.68-2.84,3.2-4.5,4.54c-1.29,1.12-2.46,2.36-3.49,3.71c-0.89,1.18-1.7,2.42-2.42,3.71c-0.62,1.15-1.04,2.16-1.34,2.87
		c-0.01,0.03-0.02,0.06-0.04,0.09v17.3c0.06-0.39,1.97-11.29,8.45-17.33c6.09-5.67,11.77-7.47,13.26-8.3
		c-1.5,0.83-10.08,11.42-12.88,15.06c-4.32,5.62-8.83,12.67-8.83,20.46v0.01v23.6h-0.65v-29.81c-0.11-0.68-0.29-1.35-0.53-2
		c-0.45-1.13-1.05-2.19-1.79-3.16c-0.73-0.92-1.54-1.78-2.42-2.57c-0.88-0.76-1.77-1.43-2.61-2.04c-1.01-0.63-1.71-1.67-1.9-2.85
		c-0.11-1.07-0.04-2.14,0.21-3.19c0.09-0.54,0.19-1.08,0.26-1.6c0.06-0.49,0.06-0.98,0-1.47c-0.06-0.95-0.7-1.76-1.6-2.06
		c-2.08-0.78-4.23-1.22-5.57-2.77c-0.37-0.41-0.67-0.89-0.88-1.4c-0.28-0.64-0.49-1.31-0.62-1.99c-0.32-1.59-0.49-3.67-0.74-6.64
		c-0.37-3.48-1.6-6.81-3.58-9.69c-0.96-1.54-2.22-2.88-3.7-3.94L251.12,80.72z"/>
</g>
<line class="st1" x1="44.43" y1="166.36" x2="244.57" y2="166.36"/>
<g>
	<g>
		<g>
			<line class="st2" x1="217.99" y1="98.77" x2="217.99" y2="98.77"/>
			<path class="st3" d="M219.25,89.89c0.14-1.84,0.22-3.69,0.22-5.56c0-39.04-31.65-70.69-70.69-70.69S78.09,45.29,78.09,84.33
				c0,3.4,0.24,6.75,0.71,10.02"/>
			<line class="st2" x1="79.57" y1="98.77" x2="79.57" y2="98.77"/>
			<line class="st4" x1="88.8" y1="98.77" x2="213.37" y2="98.77"/>
		</g>
	</g>
	<g>
		<line class="st5" x1="83.22" y1="68.82" x2="146.51" y2="91.7"/>
		<line class="st5" x1="102.82" y1="31.16" x2="150.36" y2="88.07"/>
		<line class="st5" x1="148.76" y1="11.57" x2="148.76" y2="84.86"/>
		<line class="st5" x1="195.36" y1="31.05" x2="152.05" y2="82.31"/>
		<line class="st5" x1="217.81" y1="69.69" x2="170.66" y2="83.68"/>
	</g>
</g>
<g>
	<g>
		<g>
			<g>
				<g>
					<path class="st6" d="M206.89,144.2V77.45c0-1.73-1.41-3.14-3.14-3.14H95.36c-1.73,0-3.14,1.41-3.14,3.14v66.75H206.89z"/>
				</g>
				<path class="st1" d="M92.48,144.33v9.65c0,1.86,1.5,3.36,3.34,3.36h107.6c1.85,0,3.34-1.51,3.34-3.36v-9.65H92.48z"/>
				<circle class="st7" cx="149.55" cy="150" r="3"/>
				<g>
					<path class="st8" d="M169.38,171.57c0,0-0.83-0.41-1.79-0.77c-1.02-0.38-2.25-0.87-2.98-1.21c-1.27-0.61-1.38-1.01-1.85-3.09
						c-0.52-2.27-1-7.06-1.2-9.15h-24.01c-0.2,2.09-0.68,6.88-1.2,9.15c-0.48,2.08-0.58,2.48-1.85,3.09
						c-0.72,0.34-1.93,0.82-2.94,1.2l0,0c-0.97,0.37-1.77,0.65-1.77,0.65s-0.77,0.43,0.47,0.49h38.61
						C170.02,171.94,169.38,171.57,169.38,171.57z"/>
				</g>
				<g>
					<path class="st6" d="M162.3,163.04c-0.11-0.99-0.68-5.05-0.74-5.69h-24.01c-0.06,0.64,0,0.95-0.11,1.95L162.3,163.04z"/>
				</g>
				<rect x="97.54" y="79.7" class="st9" width="104.02" height="58.58"/>
			</g>
		</g>
	</g>
</g>
<g class="st10">
	<path class="st11" d="M35.56,165.45c0,0.32-0.26,0.57-0.57,0.57H12.5c-0.32,0-0.57-0.26-0.57-0.57l-1.15-27.21
		c0-0.32,0.26-0.57,0.57-0.57h24.78c0.32,0,0.57,0.26,0.57,0.57L35.56,165.45z"/>
	<path class="st12" d="M9.14,114.29c0,0-2.34,2.57-7.03-2.74c0,0,6.11-1.21,7.17,2.38L9.14,114.29z"/>
	<path class="st12" d="M9.4,113.92c0,0,3.48,0.04,2.77-7.01c0,0-5.04,3.66-3.13,6.87L9.4,113.92z"/>
	<path class="st13" d="M23.44,97.28c0,0-3.19,1.38-5.27-5.39c0,0,6.06,1.42,5.55,5.13L23.44,97.28z"/>
	<path class="st13" d="M24.03,96.83c0,0,3.15,1.47,5.42-5.25c0,0-6.1,1.25-5.68,4.97L24.03,96.83z"/>
	<path class="st13" d="M23.35,102.99c0,0-3.39,1.47-5.61-5.73c0,0,6.45,1.51,5.9,5.45L23.35,102.99z"/>
	<path class="st13" d="M23.98,102.52c0,0,3.35,1.56,5.76-5.58c0,0-6.48,1.33-6.04,5.29L23.98,102.52z"/>
	<path class="st13" d="M23.24,109.47c0,0-3.75,1.63-6.2-6.34c0,0,7.13,1.67,6.52,6.03L23.24,109.47z"/>
	<path class="st13" d="M23.94,108.95c0,0,3.7,1.73,6.37-6.17c0,0-7.17,1.48-6.68,5.85L23.94,108.95z"/>
	<path class="st13" d="M23.24,116.31c0,0-3.76,1.63-6.22-6.35c0,0,7.14,1.67,6.54,6.04L23.24,116.31z"/>
	<path class="st13" d="M23.94,115.79c0,0,3.71,1.73,6.38-6.19c0,0-7.19,1.48-6.7,5.86L23.94,115.79z"/>
	<path class="st13" d="M22.65,121.41c0,0-2.7,1.17-4.47-4.57c0,0,5.13,1.2,4.7,4.34L22.65,121.41z"/>
	<path class="st13" d="M23.18,121.2c0,0,2.48,1.59,5.14-3.8c0,0-5.26,0.37-5.33,3.54L23.18,121.2z"/>
	<path class="st13" d="M22.84,125.58c0,0,2.04,1.3,4.22-3.12c0,0-4.32,0.3-4.38,2.9L22.84,125.58z"/>
	<path class="st13" d="M22.75,125.58c0,0-2.04,1.3-4.22-3.12c0,0,4.32,0.3,4.38,2.9L22.75,125.58z"/>
	<path class="st12" d="M11.58,119.74c0,0-2.68,2.96-8.08-3.15c0,0,7.02-1.39,8.23,2.74L11.58,119.74z"/>
	<path class="st12" d="M11.87,119.32c0,0,3.99,0.04,3.19-8.06c0,0-5.79,4.2-3.59,7.9L11.87,119.32z"/>
	<path class="st12" d="M13.73,125.6c0,0-3,3.31-9.03-3.52c0,0,7.84-1.55,9.21,3.06L13.73,125.6z"/>
	<path class="st12" d="M14.06,125.13c0,0,4.46,0.05,3.56-9.01c0,0-6.47,4.7-4.02,8.83L14.06,125.13z"/>
	<path class="st12" d="M15.62,132.38c0,0-3.25,3.06-8.72-4.22c0,0,7.94-0.92,8.93,3.78L15.62,132.38z"/>
	<path class="st12" d="M15.99,131.94c0,0,4.45,0.4,4.26-8.7c0,0-6.82,4.17-4.7,8.49L15.99,131.94z"/>
	<g class="st14">
		<path class="st15" d="M36.18,115.57c0,0,2.44,2.47,6.91-3.03c0,0-6.15-0.95-7.06,2.68L36.18,115.57z"/>
		<path class="st15" d="M35.91,115.21c0,0-3.47,0.18-3.06-6.89c0,0,5.19,3.44,3.41,6.74L35.91,115.21z"/>
		<path class="st15" d="M33.98,121.11c0,0,2.81,2.84,7.94-3.48c0,0-7.07-1.09-8.11,3.08L33.98,121.11z"/>
		<path class="st15" d="M33.67,120.7c0,0-3.99,0.21-3.52-7.92c0,0,5.96,3.95,3.92,7.74L33.67,120.7z"/>
		<path class="st15" d="M32.07,127.05c0,0,3.14,3.18,8.87-3.89c0,0-7.9-1.22-9.07,3.45L32.07,127.05z"/>
		<path class="st15" d="M31.72,126.6c0,0-4.46,0.24-3.94-8.85c0,0,6.66,4.42,4.38,8.65L31.72,126.6z"/>
		<path class="st15" d="M30.47,133.91c0,0,3.38,2.92,8.54-4.58c0,0-7.97-0.59-8.77,4.15L30.47,133.91z"/>
		<path class="st15" d="M30.08,133.49c0,0-4.43,0.59-4.62-8.51c0,0,6.99,3.88,5.06,8.28L30.08,133.49z"/>
		<path class="st16" d="M28.21,143.71c0,0,1.25-13.4,9.62-32.71"/>
		<path class="st15" d="M37.42,111.16c0,0-2.27-2.63,3.58-6.64c0,0,0.45,6.21-3.24,6.82L37.42,111.16z"/>
	</g>
	<path class="st17" d="M21.42,142.67c0,0,3.41-39.05,1.97-50.22"/>
	<path class="st13" d="M23.45,92.73c0,0,3.09-1.59-0.84-7.5c0,0-2.74,5.59,0.46,7.54L23.45,92.73z"/>
	<path class="st17" d="M18.29,142.07c0,0-1.81-13.34-10.99-32.28"/>
</g>
<g>
	<path class="st18" d="M255.63,165c0,0.22-0.18,0.39-0.39,0.39h-15.39c-0.22,0-0.39-0.18-0.39-0.39l-0.78-18.63
		c0-0.22,0.18-0.39,0.39-0.39h16.96c0.22,0,0.39,0.18,0.39,0.39L255.63,165z"/>
	<path class="st19" d="M237.55,129.98c0,0-1.6,1.76-4.81-1.88c0,0,4.18-0.83,4.91,1.63L237.55,129.98z"/>
	<path class="st19" d="M237.73,129.73c0,0,2.38,0.03,1.9-4.8c0,0-3.45,2.5-2.14,4.71L237.73,129.73z"/>
	<path class="st20" d="M247.34,118.33c0,0-2.18,0.95-3.61-3.69c0,0,4.15,0.97,3.8,3.51L247.34,118.33z"/>
	<path class="st20" d="M247.74,118.03c0,0,2.16,1,3.71-3.59c0,0-4.17,0.86-3.89,3.41L247.74,118.03z"/>
	<path class="st20" d="M247.28,122.24c0,0-2.32,1.01-3.84-3.93c0,0,4.41,1.03,4.04,3.73L247.28,122.24z"/>
	<path class="st20" d="M247.71,121.92c0,0,2.29,1.07,3.94-3.82c0,0-4.44,0.91-4.14,3.62L247.71,121.92z"/>
	<path class="st20" d="M247.2,126.68c0,0-2.57,1.11-4.25-4.34c0,0,4.88,1.14,4.47,4.13L247.2,126.68z"/>
	<path class="st20" d="M247.68,126.32c0,0,2.54,1.18,4.36-4.23c0,0-4.91,1.01-4.58,4.01L247.68,126.32z"/>
	<path class="st20" d="M247.2,131.36c0,0-2.57,1.12-4.26-4.35c0,0,4.89,1.14,4.48,4.14L247.2,131.36z"/>
	<path class="st20" d="M247.68,131c0,0,2.54,1.18,4.37-4.23c0,0-4.92,1.01-4.58,4.01L247.68,131z"/>
	<path class="st20" d="M246.8,134.85c0,0-1.85,0.8-3.06-3.13c0,0,3.51,0.82,3.22,2.97L246.8,134.85z"/>
	<path class="st20" d="M247.16,134.71c0,0,1.7,1.09,3.52-2.6c0,0-3.6,0.25-3.65,2.42L247.16,134.71z"/>
	<path class="st20" d="M246.93,137.71c0,0,1.39,0.89,2.89-2.13c0,0-2.96,0.21-3,1.99L246.93,137.71z"/>
	<path class="st20" d="M246.87,137.71c0,0-1.39,0.89-2.89-2.13c0,0,2.96,0.21,3,1.99L246.87,137.71z"/>
	<path class="st19" d="M239.22,133.7c0,0-1.84,2.02-5.53-2.15c0,0,4.8-0.95,5.64,1.88L239.22,133.7z"/>
	<path class="st19" d="M239.42,133.42c0,0,2.73,0.03,2.18-5.52c0,0-3.96,2.88-2.46,5.41L239.42,133.42z"/>
	<path class="st19" d="M240.69,137.72c0,0-2.05,2.26-6.18-2.41c0,0,5.37-1.06,6.3,2.1L240.69,137.72z"/>
	<path class="st19" d="M240.92,137.4c0,0,3.06,0.03,2.44-6.17c0,0-4.43,3.22-2.75,6.05L240.92,137.4z"/>
	<path class="st19" d="M241.99,142.36c0,0-2.23,2.09-5.97-2.89c0,0,5.44-0.63,6.12,2.59L241.99,142.36z"/>
	<path class="st19" d="M242.24,142.06c0,0,3.04,0.28,2.92-5.96c0,0-4.67,2.85-3.22,5.81L242.24,142.06z"/>
	<g>
		<path class="st15" d="M256.06,130.85c0,0,1.67,1.69,4.73-2.08c0,0-4.21-0.65-4.83,1.84L256.06,130.85z"/>
		<path class="st15" d="M255.88,130.61c0,0-2.38,0.13-2.1-4.72c0,0,3.55,2.36,2.34,4.61L255.88,130.61z"/>
		<path class="st15" d="M254.55,134.65c0,0,1.92,1.95,5.43-2.39c0,0-4.84-0.75-5.55,2.11L254.55,134.65z"/>
		<path class="st15" d="M254.34,134.37c0,0-2.73,0.14-2.41-5.42c0,0,4.08,2.71,2.68,5.3L254.34,134.37z"/>
		<path class="st15" d="M253.25,138.72c0,0,2.15,2.18,6.07-2.67c0,0-5.41-0.83-6.21,2.36L253.25,138.72z"/>
		<path class="st15" d="M253.01,138.4c0,0-3.05,0.16-2.69-6.06c0,0,4.56,3.03,3,5.92L253.01,138.4z"/>
		<path class="st15" d="M252.15,143.41c0,0,2.31,2,5.84-3.14c0,0-5.46-0.4-6,2.84L252.15,143.41z"/>
		<path class="st15" d="M251.89,143.12c0,0-3.03,0.4-3.17-5.83c0,0,4.79,2.66,3.46,5.67L251.89,143.12z"/>
		<path class="st16" d="M250.61,150.12c0,0,0.86-9.18,6.59-22.4"/>
		<path class="st15" d="M256.91,127.83c0,0-1.55-1.8,2.45-4.55c0,0,0.31,4.25-2.22,4.67L256.91,127.83z"/>
	</g>
	<path class="st16" d="M245.95,149.41c0,0,2.33-26.73,1.35-34.38"/>
	<path class="st20" d="M247.35,115.21c0,0,2.11-1.09-0.57-5.13c0,0-1.88,3.83,0.31,5.16L247.35,115.21z"/>
	<path class="st16" d="M243.81,149c0,0-1.24-9.13-7.52-22.1"/>
</g>
<g>
	<rect x="97.54" y="79.76" class="st21" width="104.02" height="58.45"/>
	<g>
		<polygon class="st22" points="141.38,79.76 97.54,121.75 97.54,138.21 105.61,138.21 166.64,79.76 		"/>
		<polygon class="st22" points="112.45,79.76 97.54,94.04 97.54,104.84 123.73,79.76 		"/>
		<polygon class="st22" points="189.93,79.76 128.91,138.21 138.96,138.21 199.99,79.76 		"/>
		<polygon class="st22" points="201.56,97.04 158.58,138.21 172.8,138.21 201.56,110.66 		"/>
	</g>
</g>
<g>
	<path class="st23" d="M226.27,100.68v-1.57c0-0.79-0.64-1.42-1.42-1.42h-0.24h-42.72h-0.24c-0.79,0-1.42,0.64-1.42,1.42v1.57h0
		v5.43h0v4.95h0v24.63c0,0.93,0.75,1.68,1.68,1.68h42.67c0.93,0,1.68-0.75,1.68-1.68v-24.63h0v-4.95h0L226.27,100.68L226.27,100.68z
		"/>
	<g>
		<path class="st24" d="M226.55,135.04h-42.67c-0.93,0-1.68-0.75-1.68-1.68V97.02c0-0.91,0.74-1.65,1.65-1.65h42.72
			c0.91,0,1.65,0.74,1.65,1.65v36.34C228.23,134.29,227.48,135.04,226.55,135.04z"/>
		<rect x="182.2" y="103.78" class="st25" width="46.03" height="4.95"/>
		<g>
			<path class="st26" d="M228.23,98.35h-46.04v-1.57c0-0.79,0.64-1.42,1.42-1.42h43.19c0.79,0,1.42,0.64,1.42,1.42V98.35z"/>
			<g>
				<path class="st27" d="M186.42,96.86c0-0.45-0.36-0.81-0.81-0.81c-0.45,0-0.81,0.36-0.81,0.81c0,0.45,0.36,0.81,0.81,0.81
					C186.05,97.66,186.42,97.3,186.42,96.86z"/>
				<path class="st27" d="M189.23,96.86c0-0.45-0.36-0.81-0.81-0.81s-0.81,0.36-0.81,0.81c0,0.45,0.36,0.81,0.81,0.81
					S189.23,97.3,189.23,96.86z"/>
				<path class="st27" d="M192.04,96.86c0-0.45-0.36-0.81-0.81-0.81c-0.45,0-0.81,0.36-0.81,0.81c0,0.45,0.36,0.81,0.81,0.81
					C191.68,97.66,192.04,97.3,192.04,96.86z"/>
			</g>
		</g>
		<g>
			<rect x="191.1" y="104.91" class="st7" width="26.71" height="2.62"/>
			<rect x="214.31" y="104.91" class="st28" width="3.5" height="2.62"/>
			<circle class="st7" cx="216.06" cy="106.22" r="0.66"/>
		</g>
		<g>
			<path class="st7" d="M186.39,101.07c0-0.53-0.43-0.95-0.95-0.95c-0.53,0-0.95,0.43-0.95,0.95c0,0.53,0.43,0.95,0.95,0.95
				C185.97,102.02,186.39,101.59,186.39,101.07z"/>
			<path class="st7" d="M208.1,102.02h-19.01c-0.53,0-0.95-0.43-0.95-0.95l0,0c0-0.53,0.43-0.95,0.95-0.95h19.01
				c0.53,0,0.95,0.43,0.95,0.95l0,0C209.05,101.59,208.63,102.02,208.1,102.02z"/>
		</g>
		<g>
			<g>
				<path class="st7" d="M215.78,119.71h-22.45c-0.43,0-0.77-0.35-0.77-0.77v-7.22c0-0.43,0.35-0.77,0.77-0.77h22.45
					c0.43,0,0.77,0.35,0.77,0.77v7.22C216.55,119.36,216.21,119.71,215.78,119.71z"/>
				<g>
					<path class="st29" d="M213.79,118.69h-18.46c-0.4,0-0.72-0.32-0.72-0.72v-3.05c0-0.4,0.32-0.72,0.72-0.72h18.46
						c0.4,0,0.72,0.32,0.72,0.72v3.05C214.51,118.37,214.18,118.69,213.79,118.69z"/>
					<path class="st29" d="M214.03,112.93h-18.95c-0.27,0-0.48-0.22-0.48-0.48l0,0c0-0.27,0.22-0.48,0.48-0.48h18.95
						c0.27,0,0.48,0.22,0.48,0.48l0,0C214.51,112.71,214.29,112.93,214.03,112.93z"/>
				</g>
			</g>
			<g>
				<path class="st7" d="M215.78,130.69h-22.45c-0.43,0-0.77-0.35-0.77-0.77v-7.22c0-0.43,0.35-0.77,0.77-0.77h22.45
					c0.43,0,0.77,0.35,0.77,0.77v7.22C216.55,130.34,216.21,130.69,215.78,130.69z"/>
				<g>
					<path class="st29" d="M213.79,129.67h-18.46c-0.4,0-0.72-0.32-0.72-0.72v-3.05c0-0.4,0.32-0.72,0.72-0.72h18.46
						c0.4,0,0.72,0.32,0.72,0.72v3.05C214.51,129.35,214.18,129.67,213.79,129.67z"/>
					<path class="st29" d="M214.03,123.91h-18.95c-0.27,0-0.48-0.22-0.48-0.48l0,0c0-0.27,0.22-0.48,0.48-0.48h18.95
						c0.27,0,0.48,0.22,0.48,0.48l0,0C214.51,123.69,214.29,123.91,214.03,123.91z"/>
				</g>
			</g>
			<g>
				<path class="st7" d="M225.94,119.63H219c-0.48,0-0.86-0.39-0.86-0.86v-7.03c0-0.48,0.39-0.86,0.86-0.86h6.94
					c0.48,0,0.86,0.39,0.86,0.86v7.03C226.8,119.24,226.42,119.63,225.94,119.63z"/>
				<g>
					<g>
						<path class="st29" d="M225.6,112.89h-3.72c-0.25,0-0.45-0.2-0.45-0.45l0,0c0-0.25,0.2-0.45,0.45-0.45h3.72
							c0.25,0,0.45,0.2,0.45,0.45l0,0C226.04,112.69,225.84,112.89,225.6,112.89z"/>
						<path class="st29" d="M225.45,116.29h-5.12c-0.33,0-0.59-0.27-0.59-0.59v-0.99c0-0.33,0.27-0.59,0.59-0.59h5.12
							c0.33,0,0.59,0.27,0.59,0.59v0.99C226.04,116.02,225.78,116.29,225.45,116.29z"/>
					</g>
					<circle class="st30" cx="219.73" cy="112.45" r="0.83"/>
				</g>
			</g>
			<g>
				<path class="st7" d="M225.94,130.69H219c-0.48,0-0.86-0.39-0.86-0.86v-7.03c0-0.48,0.39-0.86,0.86-0.86h6.94
					c0.48,0,0.86,0.39,0.86,0.86v7.03C226.8,130.3,226.42,130.69,225.94,130.69z"/>
				<g>
					<g>
						<path class="st29" d="M225.6,123.95h-3.72c-0.25,0-0.45-0.2-0.45-0.45l0,0c0-0.25,0.2-0.45,0.45-0.45h3.72
							c0.25,0,0.45,0.2,0.45,0.45l0,0C226.04,123.75,225.84,123.95,225.6,123.95z"/>
						<path class="st29" d="M225.45,127.35h-5.12c-0.33,0-0.59-0.27-0.59-0.59v-0.99c0-0.33,0.27-0.59,0.59-0.59h5.12
							c0.33,0,0.59,0.27,0.59,0.59v0.99C226.04,127.08,225.78,127.35,225.45,127.35z"/>
					</g>
					<circle class="st30" cx="219.73" cy="123.51" r="0.83"/>
				</g>
			</g>
			<g>
				<path class="st31" d="M185.53,113.6c0-0.53-0.43-0.95-0.95-0.95c-0.53,0-0.95,0.43-0.95,0.95s0.43,0.95,0.95,0.95
					C185.1,114.56,185.53,114.13,185.53,113.6z"/>
				<path class="st31" d="M185.53,118.69c0-0.53-0.43-0.95-0.95-0.95c-0.53,0-0.95,0.43-0.95,0.95c0,0.53,0.43,0.95,0.95,0.95
					C185.1,119.64,185.53,119.22,185.53,118.69z"/>
				<path class="st31" d="M185.53,123.78c0-0.53-0.43-0.95-0.95-0.95c-0.53,0-0.95,0.43-0.95,0.95s0.43,0.95,0.95,0.95
					C185.1,124.73,185.53,124.3,185.53,123.78z"/>
				<path class="st31" d="M185.53,128.86c0-0.53-0.43-0.95-0.95-0.95c-0.53,0-0.95,0.43-0.95,0.95c0,0.53,0.43,0.95,0.95,0.95
					C185.1,129.82,185.53,129.39,185.53,128.86z"/>
				<path class="st7" d="M190.37,114.2h-3.44c-0.35,0-0.64-0.28-0.64-0.64l0,0c0-0.35,0.28-0.64,0.64-0.64h3.44
					c0.35,0,0.64,0.28,0.64,0.64l0,0C191.01,113.92,190.72,114.2,190.37,114.2z"/>
				<path class="st7" d="M190.37,119.33h-3.44c-0.35,0-0.64-0.28-0.64-0.64l0,0c0-0.35,0.28-0.64,0.64-0.64h3.44
					c0.35,0,0.64,0.28,0.64,0.64l0,0C191.01,119.04,190.72,119.33,190.37,119.33z"/>
				<path class="st7" d="M190.37,124.45h-3.44c-0.35,0-0.64-0.28-0.64-0.64l0,0c0-0.35,0.28-0.64,0.64-0.64h3.44
					c0.35,0,0.64,0.28,0.64,0.64l0,0C191.01,124.17,190.72,124.45,190.37,124.45z"/>
				<path class="st7" d="M190.37,129.58h-3.44c-0.35,0-0.64-0.28-0.64-0.64l0,0c0-0.35,0.28-0.64,0.64-0.64h3.44
					c0.35,0,0.64,0.28,0.64,0.64l0,0C191.01,129.29,190.72,129.58,190.37,129.58z"/>
			</g>
		</g>
	</g>
</g>
<g>
	<path class="st23" d="M108.25,96.13h-0.31H68.29h-0.31c-0.68,0-1.24,0.55-1.24,1.24v0.31v1.74v39.85c0,0.86,0.69,1.55,1.55,1.55
		h39.65c0.86,0,1.55-0.69,1.55-1.55V99.41v-1.74v-0.31C109.49,96.68,108.93,96.13,108.25,96.13z"/>
	<g>
		<path class="st32" d="M109.9,138.48H70.24c-0.86,0-1.55-0.69-1.55-1.55V95.34c0-0.86,0.69-1.55,1.55-1.55h39.65
			c0.86,0,1.55,0.69,1.55,1.55v41.59C111.45,137.79,110.75,138.48,109.9,138.48z"/>
		<g>
			<path class="st33" d="M111.45,97.08H68.7v-2.05c0-0.68,0.55-1.24,1.24-1.24h40.28c0.68,0,1.24,0.55,1.24,1.24V97.08z"/>
			<g>
				<path class="st34" d="M71.82,95.44c0-0.41-0.33-0.73-0.73-0.73c-0.41,0-0.73,0.33-0.73,0.73c0,0.41,0.33,0.73,0.73,0.73
					C71.49,96.17,71.82,95.84,71.82,95.44z"/>
				<path class="st34" d="M74.37,95.44c0-0.41-0.33-0.73-0.73-0.73c-0.41,0-0.73,0.33-0.73,0.73c0,0.41,0.33,0.73,0.73,0.73
					C74.04,96.17,74.37,95.84,74.37,95.44z"/>
				<path class="st34" d="M76.93,95.44c0-0.41-0.33-0.73-0.73-0.73c-0.41,0-0.73,0.33-0.73,0.73c0,0.41,0.33,0.73,0.73,0.73
					C76.6,96.17,76.93,95.84,76.93,95.44z"/>
			</g>
		</g>
		<g>
			<path class="st35" d="M80.24,101.57h-7.37c-0.43,0-0.77-0.35-0.77-0.77l0,0c0-0.43,0.35-0.77,0.77-0.77h7.37
				c0.43,0,0.77,0.35,0.77,0.77l0,0C81.02,101.23,80.67,101.57,80.24,101.57z"/>
			<path class="st7" d="M107.27,101.57H83.99c-0.43,0-0.77-0.35-0.77-0.77l0,0c0-0.43,0.35-0.77,0.77-0.77h23.28
				c0.43,0,0.77,0.35,0.77,0.77l0,0C108.04,101.23,107.7,101.57,107.27,101.57z"/>
		</g>
		<g>
			<g>
				<path class="st36" d="M74.66,106.11c0-0.69-0.56-1.25-1.25-1.25c-0.69,0-1.25,0.56-1.25,1.25s0.56,1.25,1.25,1.25
					C74.09,107.37,74.66,106.81,74.66,106.11z"/>
				<path class="st36" d="M74.66,110.07c0-0.69-0.56-1.25-1.25-1.25c-0.69,0-1.25,0.56-1.25,1.25c0,0.69,0.56,1.25,1.25,1.25
					C74.09,111.32,74.66,110.76,74.66,110.07z"/>
				<path class="st36" d="M74.66,114.02c0-0.69-0.56-1.25-1.25-1.25c-0.69,0-1.25,0.56-1.25,1.25c0,0.69,0.56,1.25,1.25,1.25
					C74.09,115.27,74.66,114.71,74.66,114.02z"/>
			</g>
			<g>
				<path class="st7" d="M91.67,106.72H76.58c-0.33,0-0.61-0.27-0.61-0.61l0,0c0-0.33,0.27-0.61,0.61-0.61h15.09
					c0.33,0,0.61,0.27,0.61,0.61l0,0C92.28,106.45,92.01,106.72,91.67,106.72z"/>
				<path class="st7" d="M91.67,110.67H76.58c-0.33,0-0.61-0.27-0.61-0.61l0,0c0-0.33,0.27-0.61,0.61-0.61h15.09
					c0.33,0,0.61,0.27,0.61,0.61l0,0C92.28,110.4,92.01,110.67,91.67,110.67z"/>
				<path class="st7" d="M91.67,114.62H76.58c-0.33,0-0.61-0.27-0.61-0.61l0,0c0-0.33,0.27-0.61,0.61-0.61h15.09
					c0.33,0,0.61,0.27,0.61,0.61l0,0C92.28,114.35,92.01,114.62,91.67,114.62z"/>
			</g>
			<path class="st37" d="M105.16,114.62h-7.49c-1.56,0-2.83-1.27-2.83-2.83v-3.46c0-1.56,1.27-2.83,2.83-2.83h7.49
				c1.56,0,2.83,1.27,2.83,2.83v3.46C107.99,113.36,106.72,114.62,105.16,114.62z"/>
		</g>
		<g>
			<path class="st38" d="M105.64,126.54H74.5c-0.32,0-0.59-0.26-0.59-0.59l0,0c0-0.32,0.26-0.59,0.59-0.59h31.14
				c0.32,0,0.59,0.26,0.59,0.59l0,0C106.23,126.27,105.97,126.54,105.64,126.54z"/>
			<path class="st38" d="M105.64,128.9H74.5c-0.32,0-0.59-0.26-0.59-0.59l0,0c0-0.32,0.26-0.59,0.59-0.59h31.14
				c0.32,0,0.59,0.26,0.59,0.59l0,0C106.23,128.63,105.97,128.9,105.64,128.9z"/>
			<path class="st38" d="M105.64,131.25H74.5c-0.32,0-0.59-0.26-0.59-0.59l0,0c0-0.32,0.26-0.59,0.59-0.59h31.14
				c0.32,0,0.59,0.26,0.59,0.59l0,0C106.23,130.99,105.97,131.25,105.64,131.25z"/>
			<path class="st38" d="M105.66,133.61H74.48c-0.31,0-0.57-0.25-0.57-0.57V133c0-0.31,0.25-0.57,0.57-0.57h31.18
				c0.31,0,0.57,0.25,0.57,0.57v0.04C106.23,133.36,105.98,133.61,105.66,133.61z"/>
		</g>
		<path class="st35" d="M100.96,122.95H79.18c-0.94,0-1.71-0.77-1.71-1.71l0,0c0-0.94,0.77-1.71,1.71-1.71h21.78
			c0.94,0,1.71,0.77,1.71,1.71l0,0C102.67,122.19,101.9,122.95,100.96,122.95z"/>
	</g>
</g>
<g>
	<path class="st23" d="M174.32,57.52h-0.1h-0.74h-55.6h-0.74h-0.1c-1.34,0-2.43,1.09-2.43,2.43v0.83v3.02v66.45
		c0,1.03,0.83,1.86,1.86,1.86h58.41c1.03,0,1.86-0.83,1.86-1.86V63.8v-3.02v-0.83C176.75,58.61,175.66,57.52,174.32,57.52z"/>
	<g>
		<path class="st39" d="M176.85,129.78h-58.41c-1.03,0-1.86-0.83-1.86-1.86V58.45c0-1.8,1.46-3.26,3.26-3.26h55.6
			c1.8,0,3.26,1.46,3.26,3.26v69.47C178.71,128.95,177.87,129.78,176.85,129.78z"/>
		<path class="st7" d="M174.67,127.59h-54.05c-0.83,0-1.51-0.68-1.51-1.51v-70.9h57.07v70.9
			C176.18,126.91,175.5,127.59,174.67,127.59z"/>
		<path class="st40" d="M178.71,61.47h-62.13v-3.85c0-1.34,1.09-2.43,2.43-2.43h57.27c1.34,0,2.43,1.09,2.43,2.43V61.47z"/>
		<rect x="119.08" y="80.9" class="st19" width="57.13" height="27.03"/>
		<g>
			<path class="st7" d="M122.03,94.84c-0.09-0.11-0.09-0.27,0-0.37l1.22-1.4l0.88-1.01c0.17-0.2,0.5-0.08,0.5,0.19v2.41v2.41
				c0,0.26-0.33,0.39-0.5,0.19l-0.88-1.01L122.03,94.84z"/>
			<path class="st7" d="M173.26,94.46c0.09,0.11,0.09,0.27,0,0.37l-1.22,1.4l-0.88,1.01c-0.17,0.2-0.5,0.08-0.5-0.19v-2.41v-2.41
				c0-0.26,0.33-0.39,0.5-0.19l0.88,1.01L173.26,94.46z"/>
		</g>
		<g>
			<g>
				<path class="st41" d="M137.7,98.93h-9.21c-0.68,0-1.23-0.55-1.23-1.23V86.1c0-0.68,0.55-1.23,1.23-1.23h9.21
					c0.68,0,1.23,0.55,1.23,1.23v11.6C138.93,98.38,138.38,98.93,137.7,98.93z"/>
				<path class="st42" d="M135.29,88.9c0,0.51,0,4.6-3.63,1.28c-3.6-3.29-4.39,7.35-4.4,7.53c0,0.68,0.55,1.22,1.23,1.22h5.41
					l4.05-0.03c0.5-0.1,0.89-0.52,0.96-1.03l0.02-10.64C136.44,84.55,135.28,87.46,135.29,88.9z"/>
			</g>
			<g>
				<path class="st43" d="M152.25,98.93h-9.21c-0.68,0-1.23-0.55-1.23-1.23V86.1c0-0.68,0.55-1.23,1.23-1.23h9.21
					c0.68,0,1.23,0.55,1.23,1.23v11.6C153.48,98.38,152.93,98.93,152.25,98.93z"/>
				<path class="st42" d="M141.81,86.1v11.6c0,0.68,0.55,1.23,1.23,1.23h9.21c0.36,0,0.68-0.15,0.9-0.4l-11.01-13.27
					C141.93,85.49,141.81,85.78,141.81,86.1z"/>
				<polygon class="st44" points="152.04,97.2 143.62,87.05 152.05,87.04 				"/>
			</g>
			<g>
				<path class="st43" d="M166.8,98.93h-9.21c-0.68,0-1.23-0.55-1.23-1.23V86.1c0-0.68,0.55-1.23,1.23-1.23h9.21
					c0.68,0,1.23,0.55,1.23,1.23v11.6C168.03,98.38,167.47,98.93,166.8,98.93z"/>
				<g>
					<path class="st35" d="M164.45,93.9c0,1.79-1.45,3.25-3.23,3.25c-1.79,0-3.23-1.45-3.23-3.25c0-1.79,1.44-3.25,3.23-3.25
						C163.01,90.66,164.45,92.11,164.45,93.9z"/>
					<path class="st41" d="M166.86,90.9c0,1.6-1.29,2.9-2.88,2.9s-2.88-1.3-2.88-2.9c0-1.6,1.29-2.9,2.88-2.9
						S166.86,89.3,166.86,90.9z"/>
					<path class="st45" d="M163.28,89.55c0,1.6-1.29,2.9-2.88,2.9c-1.59,0-2.88-1.3-2.88-2.9c0-1.6,1.29-2.9,2.88-2.9
						C161.99,86.65,163.28,87.95,163.28,89.55z"/>
				</g>
			</g>
		</g>
		<g>
			<path class="st19" d="M170.25,71.01h-45.22c-1.6,0-2.9-1.3-2.9-2.9l0,0c0-1.6,1.3-2.9,2.9-2.9h45.22c1.6,0,2.9,1.3,2.9,2.9l0,0
				C173.15,69.71,171.85,71.01,170.25,71.01z"/>
			<g>
				<path class="st7" d="M168.98,69.03h-31.48c-0.51,0-0.92-0.41-0.92-0.92l0,0c0-0.51,0.41-0.92,0.92-0.92h31.48
					c0.51,0,0.92,0.41,0.92,0.92l0,0C169.9,68.61,169.49,69.03,168.98,69.03z"/>
				<path class="st46" d="M133.69,69.03h-7.39c-0.51,0-0.92-0.41-0.92-0.92l0,0c0-0.51,0.41-0.92,0.92-0.92h7.39
					c0.51,0,0.92,0.41,0.92,0.92l0,0C134.61,68.61,134.2,69.03,133.69,69.03z"/>
			</g>
		</g>
		<g>
			<path class="st45" d="M138.27,102.93h-10.39c-0.34,0-0.62-0.28-0.62-0.62l0,0c0-0.34,0.28-0.62,0.62-0.62h10.39
				c0.34,0,0.62,0.28,0.62,0.62l0,0C138.89,102.65,138.61,102.93,138.27,102.93z"/>
			<path class="st45" d="M152.65,102.93h-10.39c-0.34,0-0.62-0.28-0.62-0.62l0,0c0-0.34,0.28-0.62,0.62-0.62h10.39
				c0.34,0,0.62,0.28,0.62,0.62l0,0C153.27,102.65,152.99,102.93,152.65,102.93z"/>
			<path class="st45" d="M167.41,102.93h-10.39c-0.34,0-0.62-0.28-0.62-0.62l0,0c0-0.34,0.28-0.62,0.62-0.62h10.39
				c0.34,0,0.62,0.28,0.62,0.62l0,0C168.03,102.65,167.75,102.93,167.41,102.93z"/>
			<path class="st45" d="M138.27,105.45h-10.39c-0.34,0-0.62-0.28-0.62-0.62v0c0-0.34,0.28-0.62,0.62-0.62h10.39
				c0.34,0,0.62,0.28,0.62,0.62v0C138.89,105.17,138.61,105.45,138.27,105.45z"/>
			<path class="st45" d="M152.65,105.45h-10.39c-0.34,0-0.62-0.28-0.62-0.62v0c0-0.34,0.28-0.62,0.62-0.62h10.39
				c0.34,0,0.62,0.28,0.62,0.62v0C153.27,105.17,152.99,105.45,152.65,105.45z"/>
			<path class="st45" d="M167.41,105.45h-10.39c-0.34,0-0.62-0.28-0.62-0.62v0c0-0.34,0.28-0.62,0.62-0.62h10.39
				c0.34,0,0.62,0.28,0.62,0.62v0C168.03,105.17,167.75,105.45,167.41,105.45z"/>
		</g>
		<g>
			<circle class="st35" cx="123.49" cy="58.39" r="1.67"/>
			<path class="st35" d="M131.01,58.39c0-0.92-0.75-1.67-1.67-1.67c-0.92,0-1.67,0.75-1.67,1.67c0,0.92,0.75,1.67,1.67,1.67
				C130.26,60.07,131.01,59.32,131.01,58.39z"/>
			<circle class="st35" cx="135.17" cy="58.39" r="1.67"/>
		</g>
		<g>
			<g>
				<path class="st42" d="M133.63,122.07h-7.85c-0.52,0-0.93-0.42-0.93-0.93v-2.85c0-0.52,0.42-0.93,0.93-0.93h7.85
					c0.52,0,0.93,0.42,0.93,0.93v2.85C134.57,121.65,134.15,122.07,133.63,122.07z"/>
				<path class="st45" d="M133.93,115.96h-8.45c-0.34,0-0.62-0.28-0.62-0.62l0,0c0-0.34,0.28-0.62,0.62-0.62h8.45
					c0.34,0,0.62,0.28,0.62,0.62l0,0C134.55,115.68,134.27,115.96,133.93,115.96z"/>
			</g>
			<g>
				<path class="st42" d="M145.59,122.07h-7.86c-0.52,0-0.93-0.42-0.93-0.93v-2.85c0-0.52,0.42-0.93,0.93-0.93h7.86
					c0.52,0,0.93,0.42,0.93,0.93v2.85C146.52,121.65,146.11,122.07,145.59,122.07z"/>
				<path class="st45" d="M145.89,115.96h-8.45c-0.34,0-0.62-0.28-0.62-0.62l0,0c0-0.34,0.28-0.62,0.62-0.62h8.45
					c0.34,0,0.62,0.28,0.62,0.62l0,0C146.51,115.68,146.23,115.96,145.89,115.96z"/>
			</g>
			<g>
				<path class="st42" d="M157.55,122.07h-7.85c-0.52,0-0.93-0.42-0.93-0.93v-2.85c0-0.52,0.42-0.93,0.93-0.93h7.85
					c0.52,0,0.93,0.42,0.93,0.93v2.85C158.48,121.65,158.06,122.07,157.55,122.07z"/>
				<path class="st45" d="M157.84,115.96h-8.45c-0.34,0-0.62-0.28-0.62-0.62l0,0c0-0.34,0.28-0.62,0.62-0.62h8.45
					c0.34,0,0.62,0.28,0.62,0.62l0,0C158.46,115.68,158.19,115.96,157.84,115.96z"/>
			</g>
			<g>
				<path class="st42" d="M169.51,122.07h-7.86c-0.52,0-0.93-0.42-0.93-0.93v-2.85c0-0.52,0.42-0.93,0.93-0.93h7.86
					c0.52,0,0.93,0.42,0.93,0.93v2.85C170.44,121.65,170.02,122.07,169.51,122.07z"/>
				<path class="st45" d="M169.8,115.96h-8.45c-0.34,0-0.62-0.28-0.62-0.62l0,0c0-0.34,0.28-0.62,0.62-0.62h8.45
					c0.34,0,0.62,0.28,0.62,0.62l0,0C170.42,115.68,170.15,115.96,169.8,115.96z"/>
			</g>
		</g>
	</g>
</g>
<g>
	<circle class="st7" cx="79.78" cy="69.69" r="12.18"/>
	<g>
		<path class="st47" d="M85.31,66.21c0-3.05-2.48-5.53-5.53-5.53c-3.06,0-5.53,2.48-5.53,5.53c0,1.9,0.96,3.58,2.43,4.58l0.64,4.55
			l4.93,0.04l0.64-4.58C84.34,69.8,85.31,68.12,85.31,66.21z"/>
		<path class="st39" d="M79.78,60.68c-0.01,0-0.01,0-0.02,0v14.68l2.48,0.02l0.64-4.58c1.47-0.99,2.43-2.68,2.43-4.58
			C85.31,63.15,82.83,60.68,79.78,60.68z"/>
		<polygon class="st48" points="80.99,76.14 78.35,76.14 78.35,68.08 79.84,69.56 80.99,68.08 		"/>
		<g>
			<path class="st49" d="M83.35,72.87c0,0.37-0.15,0.67-0.34,0.67h-6.26c-0.19,0-0.34-0.3-0.34-0.67l0,0c0-0.37,0.15-0.67,0.34-0.67
				h6.26C83.2,72.2,83.35,72.5,83.35,72.87L83.35,72.87z"/>
			<path class="st26" d="M83.32,74c0,0.37-0.15,0.67-0.34,0.67h-6.26c-0.19,0-0.34-0.3-0.34-0.67l0,0c0-0.37,0.15-0.67,0.34-0.67
				h6.26C83.16,73.33,83.32,73.63,83.32,74L83.32,74z"/>
			<path class="st49" d="M83.32,75.27c0,0.37-0.15,0.67-0.34,0.67h-6.26c-0.19,0-0.34-0.3-0.34-0.67l0,0c0-0.37,0.15-0.67,0.34-0.67
				h6.26C83.16,74.6,83.32,74.9,83.32,75.27L83.32,75.27z"/>
			<path class="st49" d="M82.21,77.85c0,0.37-0.1,0.67-0.23,0.67h-4.16c-0.13,0-0.23-0.3-0.23-0.67l0,0c0-0.37,0.1-0.67,0.23-0.67
				h4.16C82.1,77.18,82.21,77.48,82.21,77.85L82.21,77.85z"/>
			<path class="st26" d="M82.92,76.62c0,0.37-0.13,0.67-0.3,0.67h-5.51c-0.17,0-0.3-0.3-0.3-0.67l0,0c0-0.37,0.13-0.67,0.3-0.67
				h5.51C82.79,75.95,82.92,76.25,82.92,76.62L82.92,76.62z"/>
		</g>
	</g>
</g>
<g>
	<circle class="st7" cx="102.94" cy="31.16" r="12.18"/>
	<g>
		<g>
			<path class="st49" d="M110.64,30.35c0-2.71-2.2-4.91-4.91-4.91h-5.58c-2.71,0-4.91,2.2-4.91,4.91c0,2.71,2.2,4.91,4.91,4.91h4.22
				l1.88,2.46l0.54-2.57C108.99,34.66,110.64,32.7,110.64,30.35z"/>
			<path class="st26" d="M102.98,25.44h-2.83c-2.71,0-4.91,2.2-4.91,4.91c0,2.71,2.2,4.91,4.91,4.91h2.83V25.44z"/>
		</g>
		<g>
			<path class="st7" d="M107.97,28.05H97.91c-0.18,0-0.32,0.15-0.32,0.32l0,0c0,0.18,0.15,0.32,0.32,0.32h10.06
				c0.18,0,0.32-0.15,0.32-0.32l0,0C108.3,28.2,108.15,28.05,107.97,28.05z"/>
			<path class="st7" d="M107.97,29.7H97.91c-0.18,0-0.32,0.15-0.32,0.32l0,0c0,0.18,0.15,0.32,0.32,0.32h10.06
				c0.18,0,0.32-0.15,0.32-0.32l0,0C108.3,29.85,108.15,29.7,107.97,29.7z"/>
			<path class="st7" d="M107.97,31.35H97.91c-0.18,0-0.32,0.15-0.32,0.32l0,0c0,0.18,0.15,0.32,0.32,0.32h10.06
				c0.18,0,0.32-0.15,0.32-0.32l0,0C108.3,31.5,108.15,31.35,107.97,31.35z"/>
		</g>
	</g>
</g>
<g>
	<circle class="st7" cx="148.76" cy="13.64" r="12.18"/>
	<g>
		<path class="st25" d="M152.23,21.33c-1.37,0.72-2.77,1-4.45,1c-4.09,0-7.57-3-7.57-7.79c0-5.14,3.57-9.59,9.12-9.59
			c4.35,0,7.27,3.05,7.27,7.22c0,3.75-2.1,5.94-4.45,5.94c-1,0-1.92-0.67-1.85-2.2h-0.1c-0.87,1.47-2.02,2.2-3.52,2.2
			c-1.45,0-2.7-1.17-2.7-3.15c0-3.1,2.45-5.92,5.92-5.92c1.07,0,2.02,0.22,2.67,0.52l-0.85,4.52c-0.38,1.9-0.08,2.77,0.75,2.8
			c1.28,0.03,2.7-1.67,2.7-4.57c0-3.62-2.17-6.22-6.05-6.22c-4.07,0-7.49,3.22-7.49,8.29c0,4.17,2.72,6.74,6.42,6.74
			c1.42,0,2.75-0.3,3.77-0.87L152.23,21.33z M150.85,10.55c-0.25-0.07-0.67-0.17-1.25-0.17c-2.2,0-3.97,2.07-3.97,4.5
			c0,1.1,0.55,1.9,1.65,1.9c1.45,0,2.77-1.85,3.05-3.4L150.85,10.55z"/>
	</g>
</g>
<g>
	
		<ellipse transform="matrix(0.7071 -0.7071 0.7071 0.7071 35.0682 147.3198)" class="st7" cx="195.36" cy="31.33" rx="12.18" ry="12.18"/>
	<g>
		<rect x="188.05" y="26.07" class="st26" width="14.64" height="10.51"/>
		<polygon class="st49" points="195.43,32.25 191.87,29.22 188.3,26.19 195.43,26.19 202.56,26.19 199,29.22 		"/>
	</g>
</g>
<g>
	<circle class="st7" cx="218.41" cy="69.69" r="12.18"/>
	<g>
		<g>
			<polygon class="st50" points="218.41,59.98 221.18,64.78 223.95,69.58 218.41,69.58 212.86,69.58 215.64,64.78 			"/>
			<polygon class="st51" points="216.79,62.79 218.41,62.79 220.03,62.79 218.41,59.98 			"/>
		</g>
		<path class="st39" d="M212.91,77.58c1.55,1.07,3.43,1.7,5.45,1.7c2.08,0,4.01-0.66,5.58-1.79v-7.94h-11.04V77.58z"/>
		<path class="st47" d="M218.4,69.55v9.73c2.07-0.01,3.98-0.67,5.54-1.79v-7.94H218.4z"/>
	</g>
</g>
</svg>
