<?xml version="1.0" encoding="utf-8"?>
<!-- Generator: Adobe Illustrator 24.3.0, SVG Export Plug-In . SVG Version: 6.00 Build 0)  -->
<svg version="1.1" id="Layer_1" xmlns="http://www.w3.org/2000/svg" xmlns:xlink="http://www.w3.org/1999/xlink" x="0px" y="0px"
	 viewBox="0 0 299 182" style="enable-background:new 0 0 299 182;" xml:space="preserve">
<style type="text/css">
	.st0{fill:#FFE6B1;}
	.st1{fill:#0099FF;}
	.st2{fill:#062776;}
	.st3{fill:#0033AE;}
	.st4{fill:#D6E3EB;stroke:#162873;stroke-width:0.9358;stroke-miterlimit:10;}
	.st5{fill:#97D2FF;}
	.st6{fill:#EDF5F6;}
	.st7{fill:none;stroke:#1A4766;stroke-width:0.2886;stroke-miterlimit:10;}
	.st8{clip-path:url(#SVGID_2_);}
	.st9{fill:#344999;}
	.st10{fill:#162873;}
	.st11{fill:#8562E6;}
	.st12{fill:#AAA1E2;}
	.st13{fill:#FFFFFF;}
	.st14{fill:#FFB2BC;}
	.st15{fill:#DEECF9;}
	.st16{opacity:0.47;}
	.st17{fill:#C2DEF9;}
	.st18{font-family:'Poppins-Medium';}
	.st19{font-size:4.3498px;}
	.st20{fill:#213899;}
	.st21{fill:#E7F4FF;}
	.st22{fill:none;stroke:#FFFFFF;stroke-width:0.3313;stroke-miterlimit:10;}
	.st23{fill:#EDF2F8;}
</style>
<g id="Group_5" transform="translate(0.165544, 11.021762)">
	<path id="Path_6" class="st0" d="M61.01,59.74l-0.34,0.16l-0.62,0.3c-0.41,0.2-0.77,0.4-1.15,0.6c-0.74,0.41-1.45,0.83-2.14,1.27
		c-1.36,0.86-2.68,1.79-3.94,2.79c-2.49,1.95-4.8,4.11-6.91,6.47c-2.09,2.33-3.99,4.82-5.68,7.44c-1.67,2.61-3.15,5.33-4.43,8.14
		c-1.26,2.79-2.35,5.65-3.24,8.58c-0.41,1.46-0.87,2.91-1.19,4.39l-0.52,2.2l-0.43,2.21c-0.67,3.61-1.12,7.27-1.35,10.93v-13.86
		c0.64-3.42,1.55-6.79,2.71-10.07c1.98-5.91,4.9-12.75,8.13-20.16c2.66-6.05,4.92-11.38,7.03-15.7c2.1-4.32,4.18-7.5,5.89-9.2
		c-1.69,1.69-4.86,3.87-8.28,7.53c-4.15,4.4-7.52,9.48-9.97,15.01c-2.86,6.55-4.72,13.5-5.51,20.61V59.49
		c0.66-2.09,1.57-4.09,2.71-5.96c1.97-3.39,4.69-7.14,7.43-11.46c1.94-3.13,3.65-6.4,5.11-9.79c0.88-2.2,1.93-4.33,3.13-6.38
		c-0.85,1.27-2.99,2.58-5.44,4.6c-3.02,2.38-5.63,5.23-7.73,8.45c-2.59,4.08-4.36,8.63-5.21,13.38V40.9
		c0.8-5.28,2.5-13.23,2.5-22.44c0-9.86-2.92-17.22-2.92-20.71c0,3.48-2.92,10.85-2.92,20.71c0,9.21,1.7,17.16,2.5,22.44v12.47
		c-0.88-7.79-2.89-15.4-5.98-22.6c-2.64-5.98-6.19-11.52-10.53-16.41c-2.73-2.99-5.68-5.77-8.83-8.32c1.98,1.73,4.16,5.26,6.41,9.95
		c2.27,4.7,4.7,10.53,7.61,17.12c3.49,8.09,6.55,15.56,8.61,22.01c1.2,3.61,2.11,7.3,2.73,11.05v19.25c-0.25-2.39-0.59-4.75-1-7.1
		c-0.93-5.22-2.22-10.38-3.85-15.42c-1.62-5.02-3.53-9.95-5.73-14.74c-1.1-2.41-2.31-4.78-3.59-7.15c-1.35-2.47-2.86-4.85-4.5-7.13
		c1.79,2.49,2.55,5.57,2.13,8.61c-0.17,1.4-0.47,2.78-0.89,4.12c-0.42,1.33-0.91,2.59-1.39,3.76c-0.65,1.27-0.65,2.77-0.02,4.04
		c0.64,1.09,1.5,2.04,2.52,2.8c1.95,1.69,4.02,3.29,2.58,5.63c-1.4,2.32-3.11,4.5-2.98,7.03c0.11,1.56,0.72,3.04,1.73,4.23
		c1.69,2.13,3.61,4.07,5.73,5.78c1.64,1.42,3.12,3,4.44,4.72c1.14,1.5,2.16,3.08,3.08,4.72c0.79,1.46,1.32,2.74,1.7,3.65l0.05,0.11
		v22.01c-0.08-0.49-2.5-14.37-10.75-22.04c-7.75-7.21-14.97-9.5-16.87-10.56C2.53,83.55,13.44,97.02,17,101.66
		c5.5,7.16,11.24,16.12,11.24,26.04v0.01v30.03h0.83V119.8c0.14-0.87,0.37-1.72,0.68-2.54c0.57-1.44,1.34-2.79,2.28-4.02
		c0.93-1.18,1.96-2.27,3.07-3.26c1.12-0.97,2.25-1.82,3.32-2.6c1.29-0.8,2.17-2.12,2.42-3.62c0.13-1.36,0.05-2.72-0.26-4.05
		c-0.12-0.69-0.24-1.37-0.33-2.04c-0.07-0.62-0.07-1.25,0-1.87c0.08-1.21,0.89-2.24,2.04-2.62c2.65-0.99,5.39-1.55,7.09-3.53
		c0.47-0.53,0.85-1.13,1.13-1.79c0.36-0.81,0.62-1.66,0.79-2.54c0.41-2.02,0.62-4.66,0.95-8.45c0.47-4.42,2.04-8.66,4.55-12.33
		c2.13-3.14,4.33-4.88,4.7-5.02L61.01,59.74z"/>
	<path id="Path_7" class="st0" d="M251.12,80.72l0.27,0.12l0.49,0.23c0.32,0.16,0.61,0.32,0.91,0.48c0.58,0.32,1.14,0.65,1.68,0.99
		c1.07,0.68,2.1,1.41,3.1,2.19c1.96,1.53,3.78,3.23,5.43,5.09c1.64,1.83,3.13,3.79,4.46,5.85c1.31,2.05,2.47,4.19,3.48,6.4
		c0.99,2.19,1.84,4.44,2.55,6.74c0.32,1.15,0.68,2.29,0.93,3.45l0.41,1.73l0.33,1.74c0.52,2.84,0.88,5.71,1.06,8.59v-10.89
		c-0.5-2.69-1.22-5.33-2.13-7.91c-1.55-4.65-3.85-10.03-6.39-15.84c-2.09-4.76-3.87-8.94-5.52-12.34c-1.17-2.63-2.72-5.07-4.63-7.23
		c1.32,1.32,3.82,3.04,6.51,5.92c3.26,3.46,5.91,7.45,7.83,11.79c2.25,5.15,3.71,10.61,4.33,16.2V80.52
		c-0.52-1.64-1.23-3.21-2.13-4.68c-1.55-2.66-3.69-5.62-5.84-9.01c-1.52-2.46-2.87-5.03-4.01-7.69c-0.69-1.73-1.52-3.41-2.46-5.01
		c0.67,0.99,2.35,2.02,4.27,3.62c2.37,1.87,4.42,4.11,6.07,6.64c2.04,3.21,3.43,6.78,4.09,10.52v-9c-0.63-4.15-1.97-10.4-1.97-17.63
		c0-7.75,2.29-13.54,2.29-16.27c0,2.74,2.29,8.53,2.29,16.27c0,7.23-1.33,13.49-1.97,17.64v9.8c0.69-6.12,2.27-12.1,4.7-17.76
		c2.07-4.7,4.87-9.06,8.28-12.9c2.15-2.35,4.46-4.54,6.94-6.54c-1.55,1.36-3.26,4.13-5.03,7.82c-1.78,3.69-3.7,8.28-5.98,13.46
		c-2.74,6.36-5.14,12.23-6.76,17.3c-0.94,2.83-1.66,5.74-2.14,8.68v15.13c0.2-1.88,0.46-3.74,0.79-5.58
		c0.73-4.11,1.74-8.16,3.03-12.12c1.27-3.95,2.77-7.81,4.5-11.58c0.86-1.89,1.81-3.76,2.82-5.62c1.06-1.94,2.25-3.81,3.54-5.6
		c-1.41,1.96-2.01,4.38-1.67,6.77c0.13,1.1,0.37,2.18,0.7,3.24c0.33,1.04,0.72,2.03,1.09,2.95c0.51,1,0.51,2.17,0.01,3.17
		c-0.51,0.86-1.18,1.61-1.98,2.2c-1.53,1.33-3.16,2.58-2.03,4.42c1.1,1.82,2.45,3.54,2.34,5.52c-0.09,1.22-0.57,2.39-1.36,3.32
		c-1.33,1.68-2.84,3.2-4.5,4.54c-1.29,1.12-2.46,2.36-3.49,3.71c-0.89,1.18-1.7,2.42-2.42,3.71c-0.62,1.15-1.04,2.16-1.34,2.87
		c-0.01,0.03-0.02,0.06-0.04,0.09v17.3c0.06-0.39,1.97-11.29,8.45-17.33c6.09-5.67,11.77-7.47,13.26-8.3
		c-1.5,0.83-10.08,11.42-12.88,15.06c-4.32,5.62-8.83,12.67-8.83,20.46v0.01v23.6h-0.65v-29.81c-0.11-0.68-0.29-1.35-0.53-2
		c-0.45-1.13-1.05-2.19-1.79-3.16c-0.73-0.92-1.54-1.78-2.42-2.57c-0.88-0.76-1.77-1.43-2.61-2.04c-1.01-0.63-1.71-1.67-1.9-2.85
		c-0.11-1.07-0.04-2.14,0.21-3.19c0.09-0.54,0.19-1.08,0.26-1.6c0.06-0.49,0.06-0.98,0-1.47c-0.06-0.95-0.7-1.76-1.6-2.06
		c-2.08-0.78-4.23-1.22-5.57-2.77c-0.37-0.41-0.67-0.89-0.88-1.4c-0.28-0.64-0.49-1.31-0.62-1.99c-0.32-1.59-0.49-3.67-0.74-6.64
		c-0.37-3.48-1.6-6.81-3.58-9.69c-0.96-1.54-2.22-2.88-3.7-3.94L251.12,80.72z"/>
</g>
<g id="Group_23" transform="translate(241.875389, 138.482902)">
	<g id="Group_20">
		<g id="Group_17" transform="translate(17.098446, 13.989637)">
			<path id="Path_60" class="st1" d="M8.96-13.11c-0.86,0.23-2.05,1.19-3.37,2.45C4.15-9.2,2.61-7.83,1-6.56
				c-1.1,0.86-2.2,1.62-3.25,2.38C-3.27-3.42-4.3-2.7-5.18-1.96c-1.8,1.44-3.17,2.86-3.64,3.92c0.47-1.05,0.67-3.01,1.57-5.38
				c0.48-1.31,1.12-2.55,1.91-3.71c0.91-1.32,2.02-2.49,3.29-3.47c1.95-1.42,4.26-2.25,6.67-2.39C6.59-13.16,8.11-12.88,8.96-13.11z
				"/>
		</g>
		<g id="Group_18" transform="translate(14.766839, 0.000000)">
			<path id="Path_61" class="st1" d="M-7.2,15.15c0.08-1.06-0.44-2.77-0.78-5.01c-0.47-2.68-0.42-5.42,0.14-8.08
				c0.8-3.31,2.17-6.46,4.03-9.31c1.55-2.46,3.02-4.24,3.58-5.51c-0.56,1.28-0.87,3.56-1.19,6.36c-0.32,3.22-0.81,6.42-1.48,9.58
				c-0.61,2.51-1.47,4.95-2.57,7.28C-6.37,12.47-7.11,14.09-7.2,15.15z"/>
		</g>
		<g id="Group_19" transform="translate(0.000000, 10.103627)">
			<path id="Path_62" class="st1" d="M-8.27-13.31c0.85,0.4,2.49,0.4,4.51,1.01c2.46,0.68,4.69,2.03,6.43,3.9
				C4.77-6,6.18-3.07,6.75,0.07C7.26,2.71,7.11,4.8,7.37,6C7.11,4.78,6,3,4.44,1.12C2.89-0.79,0.88-2.77-1.1-5.01
				c-1.65-1.81-2.89-3.64-4.06-5.18C-6.31-11.74-7.41-12.91-8.27-13.31z"/>
		</g>
	</g>
	<g id="Group_22" transform="translate(6.994819, 20.984456)">
		<g id="Group_21">
			<path id="Path_63" class="st2" d="M10.79-11.93H-6.04c-0.43,0-0.83,0.18-1.11,0.5c-0.28,0.32-0.42,0.74-0.37,1.16l2.05,17.2
				c0.09,0.75,0.72,1.31,1.48,1.31H8.73c0.75,0,1.39-0.56,1.48-1.31l2.06-17.2c0.05-0.42-0.08-0.85-0.37-1.16
				C11.62-11.75,11.21-11.93,10.79-11.93L10.79-11.93z"/>
			<path id="Path_64" class="st3" d="M-8.35-11.87l0.76,6.37c0.04,0.36,0.34,0.62,0.7,0.62h18.53c0.36,0,0.66-0.27,0.7-0.62
				l0.76-6.37c0.02-0.2-0.04-0.4-0.17-0.55c-0.13-0.15-0.33-0.24-0.53-0.23H-7.65c-0.2,0-0.39,0.08-0.53,0.23
				C-8.31-12.27-8.37-12.07-8.35-11.87L-8.35-11.87z"/>
		</g>
	</g>
</g>
<g>
	<g>
		<line class="st4" x1="44.43" y1="166.36" x2="244.57" y2="166.36"/>
		<g>
			<g>
				<g>
					<g>
						<path class="st5" d="M207.35,110.12c1.11-0.46,2.43-0.89,3.53-0.29c2.09,1.13,0.93,4.05-0.48,5.74
							c3.51-2.75,7.31-5.61,11.97-5.97c0.61-0.05,1.25-0.04,1.81,0.23c1.1,0.54,1.43,1.97,1.03,3.01c-0.4,1.05-1.32,1.81-2.21,2.52
							c6.2-2.31,13.64-1.87,19.86,1.18c0.49,0.24,1.03,0.55,1.18,1.05c0.17,0.55-0.2,1.07-0.57,1.49c-2.38,2.64-5.88,4.33-9.63,4.66
							c2.35-0.14,3.55,3.32,2.08,4.97c-1.47,1.65-4.16,1.76-6.52,1.45c-2.36-0.31-4.81-0.92-7.03-0.3c1.34-0.42,2.82,1.18,2.54,2.5
							c-0.28,1.32-1.76,2.1-3.2,2.13c-1.44,0.03-2.85-0.52-4.22-1.06c-1.92-0.76-3.83-1.52-5.75-2.28
							c-0.19,0.63-0.11,1.35,0.23,1.96c-1.75,1.84-4.99,1.26-7.64,0.55c-6.79-1.83-14.66-3.73-20.01-8.46
							C188.45,117.94,199.67,113.3,207.35,110.12z"/>
						<g>
							<path class="st6" d="M227.69,123.91c0.5,0.01,1.27-0.02,1.2,0.53c-0.1,0.81-2.7,0.28-2.41-0.48
								C226.59,123.66,227.34,123.93,227.69,123.91"/>
							<path class="st6" d="M206.44,130.36c0.5,0.01,1.27-0.02,1.2,0.53c-0.1,0.81-2.7,0.28-2.41-0.48
								C205.34,130.1,206.09,130.37,206.44,130.36"/>
							<path class="st6" d="M214.67,129.75c0.42,0.28,1.1,0.67,0.71,1.06c-0.58,0.58-2.49-1.24-1.78-1.68
								C213.87,128.96,214.35,129.58,214.67,129.75"/>
							<path class="st6" d="M203.37,121.39c0.42,0.28,1.1,0.67,0.71,1.06c-0.58,0.58-2.49-1.24-1.78-1.68
								C202.58,120.6,203.05,121.21,203.37,121.39"/>
							<path class="st6" d="M218.77,117.27c-0.29,0.37-0.68,0.97-1.11,0.56c-0.63-0.61,1.25-2.22,1.74-1.5
								C219.59,116.61,218.95,117,218.77,117.27"/>
							<path class="st6" d="M200.74,116.26c-0.29,0.37-0.68,0.97-1.11,0.56c-0.63-0.61,1.25-2.22,1.74-1.5
								C201.56,115.6,200.92,115.99,200.74,116.26"/>
							<path class="st6" d="M233.04,119.74c-0.49,0.05-1.24,0.18-1.25-0.38c-0.01-0.82,2.61-0.61,2.44,0.18
								C234.15,119.85,233.38,119.67,233.04,119.74"/>
							<path class="st6" d="M220.48,126.81c-0.41-0.29-1.09-0.69-0.68-1.08c0.59-0.57,2.46,1.29,1.74,1.72
								C221.25,127.62,220.79,127,220.48,126.81"/>
							<path class="st6" d="M228.81,127.16c-0.49,0.05-1.24,0.18-1.25-0.38c-0.01-0.82,2.61-0.61,2.44,0.18
								C229.93,127.28,229.15,127.1,228.81,127.16"/>
							<path class="st6" d="M208.81,117.91c-0.27,0.38-0.64,0.99-1.09,0.59c-0.65-0.59,1.17-2.26,1.67-1.57
								C209.6,117.22,208.97,117.63,208.81,117.91"/>
							<path class="st6" d="M226.32,118.43c-0.27,0.38-0.64,0.99-1.09,0.59c-0.65-0.59,1.17-2.26,1.67-1.57
								C227.11,117.74,226.48,118.15,226.32,118.43"/>
							<path class="st6" d="M195.01,123.16c-0.27,0.38-0.64,0.99-1.09,0.59c-0.65-0.59,1.17-2.26,1.67-1.57
								C195.8,122.47,195.17,122.88,195.01,123.16"/>
							<path class="st6" d="M200.09,128.35c0.44,0.25,1.15,0.58,0.8,1.01c-0.52,0.63-2.58-1.03-1.92-1.53
								C199.23,127.62,199.77,128.2,200.09,128.35"/>
							<path class="st6" d="M211.62,125.33c0.47-0.12,1.18-0.37,1.29,0.19c0.16,0.82-2.44,1.02-2.41,0.2
								C210.51,125.39,211.3,125.44,211.62,125.33"/>
						</g>
					</g>
					<path class="st7" d="M228.93,120.66c-17.18,3.13-34.78,4.74-52.49,4.79"/>
				</g>
				<g>
					<g>
						<path class="st5" d="M84.42,154.03c-1.15,0.32-2.52,0.59-3.54-0.14c-1.94-1.38-0.43-4.13,1.16-5.64
							c-3.81,2.3-7.93,4.68-12.6,4.48c-0.61-0.03-1.25-0.11-1.76-0.45c-1.02-0.67-1.18-2.12-0.66-3.12
							c0.52-0.99,1.53-1.63,2.49-2.23c-6.43,1.55-13.77,0.21-19.58-3.56c-0.46-0.3-0.95-0.67-1.04-1.19
							c-0.1-0.57,0.33-1.04,0.75-1.41c2.68-2.33,6.36-3.59,10.12-3.46c-2.35-0.15-3.12-3.72-1.46-5.18
							c1.66-1.46,4.34-1.25,6.65-0.66c2.3,0.59,4.66,1.5,6.94,1.14c-1.38,0.25-2.66-1.51-2.22-2.78c0.44-1.27,2-1.87,3.43-1.73
							c1.43,0.14,2.77,0.86,4.06,1.56c1.81,0.99,3.62,1.97,5.43,2.96c0.27-0.6,0.27-1.33,0.01-1.97c1.96-1.62,5.11-0.65,7.65,0.37
							c6.52,2.63,14.1,5.47,18.84,10.81C104.13,148.55,92.43,151.8,84.42,154.03z"/>
						<g>
							<path class="st6" d="M65.89,137.89c-0.49-0.08-1.26-0.13-1.13-0.67c0.2-0.79,2.71,0.05,2.34,0.77
								C66.95,138.28,66.24,137.91,65.89,137.89"/>
							<path class="st6" d="M87.76,134.05c-0.49-0.08-1.26-0.13-1.13-0.67c0.2-0.79,2.71,0.05,2.34,0.77
								C88.82,134.44,88.11,134.08,87.76,134.05"/>
							<path class="st6" d="M79.52,133.66c-0.38-0.33-1.01-0.79-0.58-1.14c0.64-0.51,2.32,1.53,1.57,1.88
								C80.21,134.55,79.81,133.87,79.52,133.66"/>
							<path class="st6" d="M89.73,143.33c-0.38-0.33-1.01-0.79-0.58-1.14c0.64-0.51,2.32,1.53,1.57,1.88
								C90.42,144.21,90.02,143.54,89.73,143.33"/>
							<path class="st6" d="M73.95,145.55c0.33-0.33,0.79-0.88,1.17-0.42c0.55,0.68-1.51,2.05-1.91,1.28
								C73.05,146.11,73.74,145.81,73.95,145.55"/>
							<path class="st6" d="M91.72,148.73c0.33-0.33,0.79-0.88,1.17-0.42c0.55,0.68-1.51,2.05-1.91,1.28
								C90.82,149.29,91.51,148.98,91.72,148.73"/>
							<path class="st6" d="M60.08,141.39c0.5,0.01,1.25-0.03,1.2,0.53c-0.08,0.82-2.67,0.29-2.4-0.47
								C58.99,141.14,59.73,141.41,60.08,141.39"/>
							<path class="st6" d="M73.4,135.88c0.38,0.34,1,0.82,0.55,1.15c-0.65,0.49-2.29-1.58-1.52-1.91
								C72.73,134.98,73.11,135.66,73.4,135.88"/>
							<path class="st6" d="M65.17,134.53c0.5,0.01,1.25-0.03,1.2,0.53c-0.08,0.82-2.67,0.29-2.4-0.47
								C64.08,134.28,64.82,134.55,65.17,134.53"/>
							<path class="st6" d="M83.91,146.12c0.32-0.34,0.76-0.91,1.15-0.46c0.58,0.66-1.43,2.11-1.85,1.35
								C83.04,146.71,83.71,146.38,83.91,146.12"/>
							<path class="st6" d="M66.59,143.5c0.32-0.34,0.76-0.91,1.15-0.46c0.58,0.66-1.43,2.11-1.85,1.35
								C65.72,144.09,66.4,143.76,66.59,143.5"/>
							<path class="st6" d="M98.24,142.57c0.32-0.34,0.76-0.91,1.15-0.46c0.58,0.66-1.43,2.11-1.85,1.35
								C97.37,143.16,98.04,142.83,98.24,142.57"/>
							<path class="st6" d="M93.82,136.81c-0.41-0.3-1.07-0.71-0.67-1.1c0.59-0.56,2.44,1.34,1.72,1.75
								C94.59,137.64,94.13,137,93.82,136.81"/>
							<path class="st6" d="M82.02,138.42c-0.48,0.07-1.22,0.23-1.26-0.34c-0.06-0.83,2.55-0.72,2.42,0.09
								C83.12,138.5,82.35,138.34,82.02,138.42"/>
						</g>
					</g>
					<path class="st7" d="M64.27,140.96c17.44-1.04,35.1-0.51,52.68,1.57"/>
				</g>
				<g>
					<defs>
						<path id="SVGID_1_" d="M177.83,122.6c13.3-0.34,26.12-4.46,36.83-11.35c-0.98-2.01-1.94-3.93-2.1-4.38
							c1.21,1.14,2.37,2.29,3.58,3.4c4.2-2.85,8.05-6.14,11.44-9.79c-1.17-1.72-2.23-3.55-2.54-5.2c0.55,0.17,2.58,1.84,4.39,3.12
							c2.14-2.51,4.06-5.17,5.75-7.98c-1.45-0.61-2.86-1.26-4.09-2.05c0.38,0,2.98,0.09,5.2,0.13c2.59-4.72,4.46-9.9,4.19-15.28
							c-0.01-0.18-0.02-0.35-0.03-0.53c-5.13,0.86-10.15,2.13-15.01,3.78c-0.86,2.58-2.01,5.17-2.01,7.86c0-2.38,0-4.77,0-7.15
							c-0.44,0.16-0.88,0.32-1.32,0.49c-4.59,1.75-9.01,3.84-13.22,6.24c0.13,1.29,0.31,2.35,0.63,2.59
							c-0.74-0.54-1.45-1.11-2.14-1.72c-4.67,2.78-9.06,5.94-13.09,9.46c-8.47,7.38-17,15.1-17.98,26.68
							c-0.04,0.46-0.03,1.01,0.3,1.34c0.04,0.05,0.09,0.09,0.15,0.13C177.08,122.61,177.47,122.61,177.83,122.6z"/>
					</defs>
					<clipPath id="SVGID_2_">
						<use xlink:href="#SVGID_1_"  style="overflow:visible;"/>
					</clipPath>
					<g class="st8">
						<g>
							<path class="st9" d="M240.46,72.71c-5.13,0.86-10.15,2.13-15.01,3.78c-0.86,2.58-2.01,5.17-2.01,7.86c0-2.38,0-4.77,0-7.15
								c-0.44,0.16-0.88,0.32-1.32,0.49c-4.59,1.75-9.01,3.84-13.22,6.24c0.13,1.29,0.31,2.35,0.63,2.59
								c-0.74-0.54-1.45-1.11-2.14-1.72c-4.67,2.78-9.06,5.94-13.09,9.46c-8.47,7.38-17,15.1-17.98,26.68
								c-0.04,0.46-0.03,1.01,0.3,1.34c21.25-15.52,45.7-31.34,63.87-49.05C240.49,73.06,240.48,72.88,240.46,72.71z"/>
						</g>
						<g>
							<path class="st10" d="M176.63,122.28c0.04,0.05,0.09,0.09,0.15,0.13c0.3,0.2,0.69,0.2,1.06,0.19
								c13.3-0.34,26.12-4.46,36.83-11.35c-0.98-2.01-1.94-3.93-2.1-4.38c1.21,1.14,2.37,2.29,3.58,3.4
								c4.2-2.85,8.05-6.14,11.44-9.79c-1.17-1.72-2.23-3.55-2.54-5.2c0.55,0.17,2.58,1.84,4.39,3.12c2.14-2.51,4.06-5.17,5.75-7.98
								c-1.45-0.61-2.86-1.26-4.09-2.05c0.38,0,2.98,0.09,5.2,0.13c2.59-4.72,4.46-9.9,4.19-15.28
								C222.33,90.95,197.88,106.76,176.63,122.28z"/>
						</g>
					</g>
					<g class="st8">
						<path class="st11" d="M173.49,124.39l-0.1-0.14l17.96-12.51c15.86-11.05,32.26-22.47,46.51-35.72
							c1.15-1.07,2.16-2.05,2.81-3.26l0.15,0.08c-0.67,1.23-1.68,2.22-2.84,3.3c-14.26,13.26-30.66,24.68-46.53,35.73L173.49,124.39
							z"/>
					</g>
					<g class="st8">
						<path class="st11" d="M226.24,104.5c-4.27-2.43-8.09-5.69-11.07-9.44l0.13-0.11c2.96,3.73,6.77,6.98,11.02,9.4L226.24,104.5z"
							/>
					</g>
					<g class="st8">
						<path class="st11" d="M220.77,109.15c-4.77-2.2-8.86-5.78-11.52-10.09l0.14-0.09c2.64,4.28,6.7,7.84,11.45,10.03
							L220.77,109.15z"/>
					</g>
					<g class="st8">
						<path class="st11" d="M218.51,92.23c-0.19-1.64,0.21-3.27,0.67-4.94c1.35-4.85,2.98-9.69,4.85-14.38l0.16,0.06
							c-1.86,4.68-3.49,9.51-4.84,14.36c-0.46,1.65-0.86,3.26-0.67,4.87L218.51,92.23z"/>
					</g>
					<g class="st8">
						<path class="st11" d="M216.11,93.94c-0.45-7.17,1.68-13.99,4.3-21.51l0.16,0.06c-2.62,7.51-4.75,14.31-4.29,21.45
							L216.11,93.94z"/>
					</g>
					<g class="st8">
						<path class="st11" d="M232.16,81.26l-0.01-0.17c4.38-0.21,8.66-1.67,12.06-4.1l0.1,0.14
							C240.88,79.58,236.56,81.05,232.16,81.26z"/>
					</g>
					<g class="st8">
						<path class="st11" d="M229.53,83.52l-0.02-0.17c3.97-0.4,8.79-1.31,13.23-2.49l0.04,0.16
							C238.34,82.21,233.51,83.12,229.53,83.52z"/>
					</g>
					<g class="st8">
						<path class="st11" d="M203.53,103.39c-2.13-2.04-3.59-4.93-4.24-8.35c-0.58-3.07-0.47-6.17-0.36-9.17l0.17,0.01
							c-0.11,2.99-0.21,6.07,0.36,9.13c0.45,2.36,1.53,5.71,4.19,8.26L203.53,103.39z"/>
					</g>
					<g class="st8">
						<path class="st11" d="M201.43,104.82c-3.92-5.08-5.67-11.44-4.8-17.46l0.17,0.02c-0.86,5.97,0.88,12.28,4.77,17.33
							L201.43,104.82z"/>
					</g>
					<g class="st8">
						<path class="st11" d="M210.62,120.08c-3.27-1.79-5.74-3.48-7.78-5.32c-2.54-2.29-4.35-4.77-5.39-7.39l0.16-0.06
							c1.03,2.6,2.83,5.06,5.34,7.33c2.03,1.83,4.49,3.51,7.75,5.3L210.62,120.08z"/>
					</g>
					<g class="st8">
						<path class="st11" d="M192.88,110.71c-2.33-2.22-4-5.31-4.7-8.69c-0.6-2.9-0.55-6.13,0.17-9.6l0.17,0.03
							c-0.71,3.44-0.77,6.65-0.17,9.53c0.7,3.35,2.35,6.4,4.65,8.6L192.88,110.71z"/>
					</g>
				</g>
			</g>
			<g>
				<g>
					<g>
						<g>
							<path class="st12" d="M106.98,124.51l-0.07-0.02c-9.03-2.2-16.94-8.98-21.18-18.14c-4.24-9.16-4.27-19.58-0.1-27.88
								l0.03-0.06l0.07,0.02c9.03,2.2,16.95,8.98,21.18,18.14l0,0c4.24,9.16,4.27,19.58,0.1,27.88L106.98,124.51z M85.76,78.62
								c-4.12,8.24-4.07,18.58,0.14,27.67c4.2,9.09,12.05,15.82,20.99,18.02c4.12-8.24,4.07-18.58-0.14-27.67l0,0
								C102.55,87.55,94.71,80.82,85.76,78.62z"/>
						</g>
					</g>
					<g>
						<g>
							
								<rect x="97.51" y="80.72" transform="matrix(0.8898 -0.4563 0.4563 0.8898 -36.2675 55.8869)" class="st12" width="0.18" height="44.66"/>
						</g>
						<g>
							
								<rect x="88.14" y="86.81" transform="matrix(0.3066 -0.9518 0.9518 0.3066 -24.7879 146.6113)" class="st12" width="0.18" height="7.02"/>
						</g>
						<g>
							
								<rect x="90.84" y="92.52" transform="matrix(0.3066 -0.9518 0.9518 0.3066 -29.128 153.7065)" class="st12" width="0.18" height="8.65"/>
						</g>
						<g>
							
								<rect x="91.55" y="95.5" transform="matrix(0.3065 -0.9519 0.9519 0.3065 -34.2341 158.4722)" class="st12" width="0.18" height="14.46"/>
						</g>
						<g>
							
								<rect x="95.21" y="102.53" transform="matrix(0.3066 -0.9518 0.9518 0.3066 -38.2058 166.6876)" class="st12" width="0.18" height="14.06"/>
						</g>
						<g>
							
								<rect x="101.65" y="113.38" transform="matrix(0.3066 -0.9518 0.9518 0.3066 -41.1026 178.1706)" class="st12" width="0.18" height="7.83"/>
						</g>
						<g>
							
								<rect x="88.82" y="87.1" transform="matrix(0.3069 -0.9517 0.9517 0.3069 -18.9826 148.3044)" class="st12" width="7.02" height="0.18"/>
						</g>
						<g>
							
								<rect x="90.94" y="92.01" transform="matrix(0.3069 -0.9517 0.9517 0.3069 -20.8299 155.5843)" class="st12" width="10.94" height="0.18"/>
						</g>
						<g>
							
								<rect x="93.46" y="97.47" transform="matrix(0.3071 -0.9517 0.9517 0.3071 -23.3435 163.0589)" class="st12" width="13.69" height="0.18"/>
						</g>
						<g>
							
								<rect x="96.8" y="104.07" transform="matrix(0.3072 -0.9517 0.9517 0.3072 -27.1827 170.979)" class="st12" width="14.07" height="0.18"/>
						</g>
						<g>
							
								<rect x="100.96" y="111.79" transform="matrix(0.3069 -0.9517 0.9517 0.3069 -32.3121 179.3844)" class="st12" width="12.08" height="0.18"/>
						</g>
					</g>
				</g>
				<g>
					<g>
						<path class="st10" d="M96.31,112.72c8.93,5.47,14.42,14.2,15.51,23.08c-8.4,3.06-18.68,2.14-27.61-3.33
							c-8.93-5.47-14.42-14.2-15.51-23.08C77.11,106.33,87.38,107.26,96.31,112.72z"/>
					</g>
					<g>
						<g>
							
								<rect x="91.13" y="100.69" transform="matrix(0.5223 -0.8528 0.8528 0.5223 -61.3324 136.5549)" class="st13" width="0.18" height="44.66"/>
						</g>
						<g>
							
								<rect x="73.09" y="116.94" transform="matrix(0.9723 -0.2337 0.2337 0.9723 -25.2298 21.1429)" class="st13" width="7.02" height="0.18"/>
						</g>
						<g>
							
								<rect x="77.97" y="121.11" transform="matrix(0.9723 -0.2337 0.2337 0.9723 -26.0434 22.5878)" class="st13" width="8.65" height="0.18"/>
						</g>
						<g>
							
								<rect x="78.74" y="125.76" transform="matrix(0.9723 -0.2338 0.2338 0.9723 -27.0399 23.5851)" class="st13" width="14.46" height="0.18"/>
						</g>
						<g>
							
								<rect x="85.62" y="129.69" transform="matrix(0.9723 -0.2338 0.2338 0.9723 -27.7737 25.2567)" class="st13" width="14.06" height="0.18"/>
						</g>
						<g>
							
								<rect x="98.26" y="132.94" transform="matrix(0.9723 -0.2337 0.2337 0.9723 -28.2619 27.5642)" class="st13" width="7.83" height="0.18"/>
						</g>
						<g>
							
								<rect x="78.38" y="108.71" transform="matrix(0.9723 -0.2336 0.2336 0.9723 -24.0454 21.4364)" class="st13" width="0.18" height="7.02"/>
						</g>
						<g>
							
								<rect x="84.41" y="108.82" transform="matrix(0.9723 -0.2337 0.2337 0.9723 -24.3659 22.9083)" class="st13" width="0.18" height="10.94"/>
						</g>
						<g>
							
								<rect x="90.58" y="110.08" transform="matrix(0.9723 -0.2337 0.2337 0.9723 -24.815 24.4277)" class="st13" width="0.18" height="13.69"/>
						</g>
						<g>
							
								<rect x="97.03" y="113.69" transform="matrix(0.9723 -0.2336 0.2336 0.9723 -25.5169 26.0316)" class="st13" width="0.18" height="14.07"/>
						</g>
						<g>
							
								<rect x="103.76" y="119.62" transform="matrix(0.9723 -0.2337 0.2337 0.9723 -26.4927 27.7497)" class="st13" width="0.18" height="12.08"/>
						</g>
					</g>
				</g>
			</g>
			<g>
				<g>
					<g>
						<g>
							<path class="st12" d="M182.82,89.56c-0.56,0-1.11-0.02-1.67-0.05l-0.07,0l-0.01-0.07c-1.54-9.16,1.57-19.11,8.31-26.62
								c6.75-7.5,16.31-11.65,25.58-11.09l0.07,0l0.01,0.07c1.54,9.16-1.57,19.11-8.31,26.62l0,0
								C200.4,85.47,191.57,89.56,182.82,89.56z M181.24,89.33c9.2,0.53,18.68-3.59,25.37-11.04l0,0c6.69-7.44,9.79-17.31,8.28-26.4
								c-9.2-0.53-18.68,3.59-25.37,11.04C182.82,70.38,179.73,80.24,181.24,89.33z"/>
						</g>
					</g>
					<g>
						<g>
							<polygon class="st12" points="182.93,89.67 182.8,89.55 211.28,55.16 211.42,55.27 							"/>
						</g>
						<g>
							
								<rect x="205.02" y="55.28" transform="matrix(0.9956 -0.0936 0.0936 0.9956 -4.6033 19.4644)" class="st12" width="0.18" height="7.02"/>
						</g>
						<g>
							
								<rect x="200.09" y="59.51" transform="matrix(0.9956 -0.0936 0.0936 0.9956 -5.0978 19.0231)" class="st12" width="0.18" height="8.65"/>
						</g>
						<g>
							
								<rect x="194.96" y="59.58" transform="matrix(0.9956 -0.0937 0.0937 0.9956 -5.4028 18.5729)" class="st12" width="0.18" height="14.46"/>
						</g>
						<g>
							
								<rect x="190.12" y="65.84" transform="matrix(0.9956 -0.0936 0.0936 0.9956 -5.9882 18.1326)" class="st12" width="0.18" height="14.06"/>
						</g>
						<g>
							
								<rect x="185.56" y="77.92" transform="matrix(0.9956 -0.0936 0.0936 0.9956 -6.8431 17.7296)" class="st12" width="0.18" height="7.83"/>
						</g>
						<g>
							
								<rect x="206.1" y="61.23" transform="matrix(0.9956 -0.0938 0.0938 0.9956 -4.8264 19.9273)" class="st12" width="7.02" height="0.18"/>
						</g>
						<g>
							
								<rect x="201.23" y="66.91" transform="matrix(0.9956 -0.0935 0.0935 0.9956 -5.3599 19.626)" class="st12" width="10.94" height="0.18"/>
						</g>
						<g>
							
								<rect x="196.37" y="72.64" transform="matrix(0.9956 -0.0935 0.0935 0.9956 -5.9117 19.3251)" class="st12" width="13.69" height="0.18"/>
						</g>
						<g>
							
								<rect x="191.51" y="78.49" transform="matrix(0.9956 -0.0938 0.0938 0.9956 -6.4979 18.9785)" class="st12" width="14.07" height="0.18"/>
						</g>
						<g>
							
								<rect x="186.66" y="84.45" transform="matrix(0.9956 -0.0938 0.0938 0.9956 -7.0818 18.4535)" class="st12" width="12.08" height="0.18"/>
						</g>
					</g>
				</g>
				<g>
					<g>
						<path class="st0" d="M187.71,75.05c-1.5,10.36-7.36,18.85-15.09,23.36c-6.13-6.51-9.33-16.32-7.83-26.68
							c1.5-10.36,7.36-18.85,15.09-23.36C186.01,54.88,189.21,64.69,187.71,75.05z"/>
					</g>
					<g>
						<g>
							
								<rect x="153.91" y="74.34" transform="matrix(0.1445 -0.9895 0.9895 0.1445 77.1312 238.0607)" class="st14" width="44.66" height="0.18"/>
						</g>
						<g>
							
								<rect x="175.89" y="55.12" transform="matrix(0.8014 -0.5982 0.5982 0.8014 -0.115 116.9044)" class="st14" width="0.18" height="7.02"/>
						</g>
						<g>
							
								<rect x="174.31" y="61.18" transform="matrix(0.8014 -0.5981 0.5981 0.8014 -4.5464 117.3238)" class="st14" width="0.18" height="8.65"/>
						</g>
						<g>
							
								<rect x="171.47" y="63.49" transform="matrix(0.8013 -0.5982 0.5982 0.8013 -8.2197 116.6808)" class="st14" width="0.18" height="14.46"/>
						</g>
						<g>
							
								<rect x="170.5" y="71.38" transform="matrix(0.8014 -0.5982 0.5982 0.8014 -13.0181 117.6126)" class="st14" width="0.18" height="14.06"/>
						</g>
						<g>
							
								<rect x="171.27" y="84.53" transform="matrix(0.8014 -0.5981 0.5981 0.8014 -18.8692 120.0532)" class="st14" width="0.18" height="7.83"/>
						</g>
						<g>
							
								<rect x="177.62" y="58.36" transform="matrix(0.8014 -0.5981 0.5981 0.8014 1.0135 119.9444)" class="st14" width="7.02" height="0.18"/>
						</g>
						<g>
							
								<rect x="176.14" y="64.72" transform="matrix(0.8013 -0.5983 0.5983 0.8013 -2.6831 121.5381)" class="st14" width="10.94" height="0.18"/>
						</g>
						<g>
							
								<rect x="174.77" y="71.43" transform="matrix(0.8014 -0.5981 0.5981 0.8014 -6.7101 122.832)" class="st14" width="13.69" height="0.18"/>
						</g>
						<g>
							
								<rect x="173.64" y="78.86" transform="matrix(0.8014 -0.5981 0.5981 0.8014 -11.3384 123.7413)" class="st14" width="14.07" height="0.18"/>
						</g>
						<g>
							
								<rect x="172.74" y="86.99" transform="matrix(0.8013 -0.5983 0.5983 0.8013 -16.5659 124.2735)" class="st14" width="12.08" height="0.18"/>
						</g>
					</g>
				</g>
			</g>
		</g>
		<g>
			<g>
				<path class="st0" d="M187.23,37.3l0.65,0.95c0.04,0.05,0.09,0.09,0.15,0.11l1.11,0.33c0.18,0.05,0.25,0.27,0.14,0.42l-0.7,0.92
					c-0.04,0.05-0.06,0.11-0.06,0.17l0.03,1.16c0.01,0.19-0.18,0.33-0.36,0.26l-1.09-0.39c-0.06-0.02-0.12-0.02-0.18,0l-1.09,0.39
					c-0.18,0.06-0.37-0.07-0.36-0.26l0.03-1.16c0-0.06-0.02-0.12-0.06-0.17l-0.7-0.92c-0.12-0.15-0.04-0.37,0.14-0.42l1.11-0.33
					c0.06-0.02,0.11-0.06,0.15-0.11l0.65-0.95C186.89,37.14,187.13,37.14,187.23,37.3z"/>
				<path class="st0" d="M195.37,37.3l0.65,0.95c0.04,0.05,0.09,0.09,0.15,0.11l1.11,0.33c0.18,0.05,0.25,0.27,0.14,0.42l-0.7,0.92
					c-0.04,0.05-0.06,0.11-0.06,0.17l0.03,1.16c0.01,0.19-0.18,0.33-0.36,0.26l-1.09-0.39c-0.06-0.02-0.12-0.02-0.18,0l-1.09,0.39
					c-0.18,0.06-0.37-0.07-0.36-0.26l0.03-1.16c0-0.06-0.02-0.12-0.06-0.17l-0.7-0.92c-0.12-0.15-0.04-0.37,0.14-0.42l1.11-0.33
					c0.06-0.02,0.11-0.06,0.15-0.11l0.65-0.95C195.04,37.14,195.27,37.14,195.37,37.3z"/>
				<path class="st0" d="M203.81,37.3l0.65,0.95c0.04,0.05,0.09,0.09,0.15,0.11l1.11,0.33c0.18,0.05,0.25,0.27,0.14,0.42l-0.7,0.92
					c-0.04,0.05-0.06,0.11-0.06,0.17l0.03,1.16c0.01,0.19-0.18,0.33-0.36,0.26l-1.09-0.39c-0.06-0.02-0.12-0.02-0.18,0l-1.09,0.39
					c-0.18,0.06-0.37-0.07-0.36-0.26l0.03-1.16c0-0.06-0.02-0.12-0.06-0.17l-0.7-0.92c-0.12-0.15-0.04-0.37,0.14-0.42l1.11-0.33
					c0.06-0.02,0.11-0.06,0.15-0.11l0.65-0.95C203.47,37.14,203.7,37.14,203.81,37.3z"/>
				<path class="st0" d="M212.24,37.3l0.65,0.95c0.04,0.05,0.09,0.09,0.15,0.11l1.11,0.33c0.18,0.05,0.25,0.27,0.14,0.42l-0.7,0.92
					c-0.04,0.05-0.06,0.11-0.06,0.17l0.03,1.16c0.01,0.19-0.18,0.33-0.36,0.26l-1.09-0.39c-0.06-0.02-0.12-0.02-0.18,0l-1.09,0.39
					c-0.18,0.06-0.37-0.07-0.36-0.26l0.03-1.16c0-0.06-0.02-0.12-0.06-0.17l-0.7-0.92c-0.12-0.15-0.04-0.37,0.14-0.42l1.11-0.33
					c0.06-0.02,0.11-0.06,0.15-0.11l0.65-0.95C211.9,37.14,212.13,37.14,212.24,37.3z"/>
				<path class="st0" d="M220.38,37.3l0.65,0.95c0.04,0.05,0.09,0.09,0.15,0.11l1.11,0.33c0.18,0.05,0.25,0.27,0.14,0.42l-0.7,0.92
					c-0.04,0.05-0.06,0.11-0.06,0.17l0.03,1.16c0.01,0.19-0.18,0.33-0.36,0.26l-1.09-0.39c-0.06-0.02-0.12-0.02-0.18,0l-1.09,0.39
					c-0.18,0.06-0.37-0.07-0.36-0.26l0.03-1.16c0-0.06-0.02-0.12-0.06-0.17l-0.7-0.92c-0.12-0.15-0.04-0.37,0.14-0.42l1.11-0.33
					c0.06-0.02,0.11-0.06,0.15-0.11l0.65-0.95C220.04,37.14,220.27,37.14,220.38,37.3z"/>
			</g>
			<g>
				<g>
					<path class="st15" d="M173.38,42.09h-13.07c-0.39,0-0.71-0.32-0.71-0.71l0,0c0-0.39,0.32-0.71,0.71-0.71h13.07
						c0.39,0,0.71,0.32,0.71,0.71l0,0C174.08,41.77,173.77,42.09,173.38,42.09z"/>
				</g>
				<g>
					<path class="st15" d="M173.38,45.09h-13.07c-0.39,0-0.71-0.32-0.71-0.71l0,0c0-0.39,0.32-0.71,0.71-0.71h13.07
						c0.39,0,0.71,0.32,0.71,0.71l0,0C174.08,44.77,173.77,45.09,173.38,45.09z"/>
				</g>
				<g>
					<path class="st15" d="M173.38,48.09h-13.07c-0.39,0-0.71-0.32-0.71-0.71l0,0c0-0.39,0.32-0.71,0.71-0.71h13.07
						c0.39,0,0.71,0.32,0.71,0.71l0,0C174.08,47.78,173.77,48.09,173.38,48.09z"/>
				</g>
			</g>
			<g>
				<g>
					<path class="st15" d="M98.48,63.81H85.41c-0.39,0-0.71-0.32-0.71-0.71l0,0c0-0.39,0.32-0.71,0.71-0.71h13.07
						c0.39,0,0.71,0.32,0.71,0.71l0,0C99.19,63.5,98.87,63.81,98.48,63.81z"/>
				</g>
				<g>
					<path class="st15" d="M98.48,66.82H85.41c-0.39,0-0.71-0.32-0.71-0.71l0,0c0-0.39,0.32-0.71,0.71-0.71h13.07
						c0.39,0,0.71,0.32,0.71,0.71l0,0C99.19,66.5,98.87,66.82,98.48,66.82z"/>
				</g>
				<g>
					<path class="st15" d="M94.6,69.82h-9.19c-0.39,0-0.71-0.32-0.71-0.71l0,0c0-0.39,0.32-0.71,0.71-0.71h9.19
						c0.39,0,0.71,0.32,0.71,0.71l0,0C95.3,69.5,94.99,69.82,94.6,69.82z"/>
				</g>
			</g>
			<g>
				<g class="st16">
					<g>
						<rect x="105.02" y="49.15" class="st15" width="26.85" height="17.31"/>
					</g>
					<g>
						<polygon class="st17" points="105.02,49.15 118.44,57.81 131.87,49.15 						"/>
					</g>
				</g>
				<g>
					<g>
						<rect x="108.55" y="52.69" class="st15" width="26.85" height="17.31"/>
					</g>
					<g>
						<polygon class="st17" points="108.55,52.69 121.97,61.34 135.4,52.69 						"/>
					</g>
				</g>
				<g>
					<path class="st10" d="M137.87,53.48c0,1.8-1.46,3.27-3.27,3.27c-1.8,0-3.27-1.46-3.27-3.27s1.46-3.27,3.27-3.27
						C136.41,50.21,137.87,51.68,137.87,53.48z"/>
					<text transform="matrix(1 0 0 1 133.2713 54.9419)" class="st13 st18 st19">2</text>
				</g>
			</g>
		</g>
		<g>
			<g>
				<g>
					<g>
						<g>
							<path class="st10" d="M206.89,144.2V77.45c0-1.73-1.41-3.14-3.14-3.14H95.36c-1.73,0-3.14,1.41-3.14,3.14v66.75H206.89z"/>
						</g>
						<path class="st4" d="M92.48,144.33v9.65c0,1.86,1.5,3.36,3.34,3.36h107.6c1.85,0,3.34-1.51,3.34-3.36v-9.65H92.48z"/>
						<circle class="st13" cx="149.55" cy="150" r="3"/>
						<g>
							<path class="st20" d="M169.38,171.57c0,0-0.83-0.41-1.79-0.77c-1.02-0.38-2.25-0.87-2.98-1.21
								c-1.27-0.61-1.38-1.01-1.85-3.09c-0.52-2.27-1-7.06-1.2-9.15h-24.01c-0.2,2.09-0.68,6.88-1.2,9.15
								c-0.48,2.08-0.58,2.48-1.85,3.09c-0.72,0.34-1.93,0.82-2.94,1.2l0,0c-0.97,0.37-1.77,0.65-1.77,0.65s-0.77,0.43,0.47,0.49
								h38.61C170.02,171.94,169.38,171.57,169.38,171.57z"/>
						</g>
						<g>
							<path class="st10" d="M162.3,163.04c-0.11-0.99-0.68-5.05-0.74-5.69h-24.01c-0.06,0.64,0,0.95-0.11,1.95L162.3,163.04z"/>
						</g>
						<rect x="97.54" y="79.7" class="st21" width="104.02" height="58.58"/>
					</g>
					<g>
						<g>
							<rect x="97.54" y="79.7" class="st17" width="104.02" height="5.81"/>
						</g>
						<rect x="177.73" y="86.75" class="st13" width="21.87" height="28.45"/>
						<g>
							<rect x="97.81" y="86.79" class="st15" width="78.93" height="51.31"/>
						</g>
						<rect x="111.65" y="81.21" class="st5" width="48.38" height="2.79"/>
						<rect x="106.74" y="81.21" class="st13" width="2.98" height="2.79"/>
						<g>
							<path class="st13" d="M188.34,83.79c0,0,0-0.11,0-0.16c0-0.54-0.44-0.98-0.98-0.98c-0.18,0-0.8,0-0.98,0
								c-0.54,0-0.98,0.44-0.98,0.98c0,0.06,0,0.16,0,0.16H188.34z"/>
							<path class="st13" d="M187.52,81.5c0,0.36-0.29,0.65-0.65,0.65c-0.36,0-0.65-0.29-0.65-0.65c0-0.36,0.29-0.65,0.65-0.65
								C187.23,80.84,187.52,81.14,187.52,81.5z"/>
						</g>
						<g>
							<path class="st10" d="M189.1,83.71c0,0.48-0.39,0.87-0.87,0.87c-0.48,0-0.87-0.39-0.87-0.87c0-0.48,0.39-0.87,0.87-0.87
								C188.71,82.84,189.1,83.23,189.1,83.71z"/>
						</g>
						<path class="st13" d="M194.07,81.01h-2.67c-0.14,0-0.25,0.11-0.25,0.25v2.08c0,0.14,0.11,0.25,0.25,0.25h0.17v0.58l0.58-0.58
							h1.92c0.14,0,0.25-0.11,0.25-0.25v-2.08C194.32,81.12,194.21,81.01,194.07,81.01z"/>
						<path class="st10" d="M195.14,83.71c0,0.48-0.39,0.87-0.87,0.87c-0.48,0-0.87-0.39-0.87-0.87c0-0.48,0.39-0.87,0.87-0.87
							C194.75,82.84,195.14,83.23,195.14,83.71z"/>
						<rect x="177.73" y="116.35" class="st13" width="21.87" height="20.44"/>
						<g>
							<rect x="177.73" y="127.76" class="st17" width="21.87" height="9.12"/>
						</g>
						<g>
							<rect x="184.95" y="92.1" class="st5" width="5.22" height="1.21"/>
							<rect x="179.21" y="88.19" class="st5" width="5.22" height="1.21"/>
							<rect x="179.21" y="112.3" class="st5" width="5.22" height="1.21"/>
							<rect x="189.92" y="88.19" class="st5" width="1.78" height="1.21"/>
							<rect x="192.66" y="88.19" class="st5" width="1.78" height="1.21"/>
							<rect x="179.21" y="117.79" class="st5" width="5.22" height="1.21"/>
							<rect x="189.92" y="117.79" class="st5" width="1.78" height="1.21"/>
							<rect x="192.66" y="117.79" class="st5" width="1.78" height="1.21"/>
							<rect x="184.95" y="94.37" class="st5" width="9.23" height="1.21"/>
							<path class="st5" d="M183.52,93.75c0,1.18-0.96,2.13-2.13,2.13c-1.18,0-2.13-0.96-2.13-2.13c0-1.18,0.96-2.13,2.13-2.13
								C182.56,91.62,183.52,92.57,183.52,93.75z"/>
							<rect x="184.95" y="99.07" class="st5" width="5.22" height="1.21"/>
							<rect x="184.95" y="101.33" class="st5" width="9.23" height="1.21"/>
							<path class="st5" d="M183.52,100.72c0,1.18-0.96,2.13-2.13,2.13c-1.18,0-2.13-0.96-2.13-2.13c0-1.18,0.96-2.13,2.13-2.13
								C182.56,98.58,183.52,99.54,183.52,100.72z"/>
							<rect x="184.95" y="106.03" class="st5" width="5.22" height="1.21"/>
							<rect x="184.95" y="108.3" class="st5" width="9.23" height="1.21"/>
							<rect x="184.95" y="122.23" class="st5" width="5.22" height="1.21"/>
							<rect x="184.95" y="124.49" class="st5" width="9.23" height="1.21"/>
							<path class="st5" d="M183.52,107.68c0,1.18-0.96,2.13-2.13,2.13c-1.18,0-2.13-0.95-2.13-2.13c0-1.18,0.96-2.13,2.13-2.13
								C182.56,105.55,183.52,106.5,183.52,107.68z"/>
							<rect x="179.29" y="121.52" class="st5" width="4.18" height="4.18"/>
						</g>
					</g>
				</g>
				<g>
					<g>
						<rect x="142.07" y="111.86" class="st13" width="57.63" height="21.95"/>
						<g>
							<g>
								<rect x="172.38" y="115.67" class="st5" width="24.44" height="1.65"/>
							</g>
							<g>
								<rect x="172.38" y="119.21" class="st5" width="27.88" height="1.24"/>
							</g>
							<g>
								<rect x="172.27" y="122.1" class="st5" width="24.34" height="1.25"/>
							</g>
							<g>
								<rect x="172.27" y="124.9" class="st5" width="27.1" height="1.24"/>
							</g>
							<g>
								<rect x="172.27" y="127.92" class="st5" width="6.05" height="1.24"/>
							</g>
						</g>
						<rect x="145.5" y="115.75" class="st5" width="24.59" height="14.54"/>
					</g>
					<g>
						<line class="st22" x1="145.5" y1="115.75" x2="170.09" y2="130.29"/>
						<line class="st22" x1="170.09" y1="115.75" x2="145.5" y2="130.29"/>
					</g>
				</g>
				<g>
					<rect x="100.25" y="88.72" class="st13" width="39.21" height="45.04"/>
					<g>
						<rect x="102.37" y="91.16" class="st23" width="34.98" height="17.88"/>
					</g>
					<g>
						<g>
							<rect x="102.37" y="111.16" class="st23" width="34.98" height="20.14"/>
						</g>
						<g>
							<polygon class="st5" points="137.34,131.29 116.18,131.22 126.39,121.4 							"/>
							<polygon class="st5" points="133.81,131.29 102.4,131.18 117.56,116.61 							"/>
							<path class="st5" d="M134.69,114.78c0,0.93-0.75,1.68-1.68,1.68s-1.68-0.75-1.68-1.68s0.75-1.68,1.68-1.68
								S134.69,113.85,134.69,114.78z"/>
						</g>
					</g>
				</g>
				<g>
					<rect x="141.94" y="88.72" class="st13" width="32.5" height="20.31"/>
					<g>
						<g>
							<rect x="144.83" y="92.7" class="st5" width="24.44" height="1.65"/>
						</g>
						<g>
							<rect x="144.83" y="96.25" class="st5" width="27.88" height="1.24"/>
						</g>
						<g>
							<rect x="144.71" y="99.14" class="st5" width="24.34" height="1.25"/>
						</g>
						<g>
							<rect x="144.71" y="101.94" class="st5" width="27.1" height="1.24"/>
						</g>
						<g>
							<rect x="144.71" y="104.95" class="st5" width="6.05" height="1.24"/>
						</g>
					</g>
				</g>
			</g>
		</g>
	</g>
</g>
</svg>
